<svg width="46" height="45" viewBox="0 0 46 45" fill="none" xmlns="http://www.w3.org/2000/svg">
    <path d="M15.5174 16.1807C15.16 16.6017 15.2114 17.2328 15.6324 17.5903C16.0534 17.9478 16.6845 17.8963 17.042 17.4753L15.5174 16.1807ZM11.5119 24.4255C11.3865 23.8876 10.8489 23.5533 10.311 23.6786L1.54604 25.7221C1.00817 25.8475 0.673804 26.3851 0.799199 26.923C0.924593 27.4609 1.46227 27.7952 2.00013 27.6698L9.7912 25.8535L11.6076 33.6445C11.733 34.1824 12.2706 34.5168 12.8085 34.3914C13.3464 34.266 13.6807 33.7283 13.5553 33.1904L11.5119 24.4255ZM38.7435 4.21911C39.3746 4.755 39.7764 5.71037 39.7705 7.2175C39.7647 8.71833 39.3493 10.6224 38.5178 12.8201C36.8581 17.2067 33.6218 22.5517 29.1802 27.7824L30.7047 29.0769C35.2542 23.7191 38.6284 18.1796 40.3884 13.5278C41.2667 11.2063 41.7634 9.0528 41.7705 7.22532C41.7776 5.40414 41.2934 3.76054 40.038 2.69458L38.7435 4.21911ZM29.1802 27.7824C24.7387 33.013 19.989 37.073 15.9293 39.4217C13.8955 40.5984 12.0839 41.3169 10.6039 41.566C9.11763 41.8161 8.10977 41.5744 7.47866 41.0385L6.18413 42.5631C7.43946 43.629 9.13983 43.8405 10.9358 43.5383C12.7379 43.235 14.7825 42.3958 16.9309 41.1528C21.2359 38.6621 26.1553 34.4347 30.7047 29.0769L29.1802 27.7824ZM17.042 17.4753C21.4835 12.2446 26.2332 8.1847 30.2928 5.83597C32.3267 4.65927 34.1383 3.94073 35.6183 3.69167C37.1045 3.44157 38.1124 3.68321 38.7435 4.21911L40.038 2.69458C38.7827 1.62862 37.0823 1.41719 35.2864 1.7194C33.4842 2.02266 31.4397 2.86181 29.2913 4.10482C24.9863 6.59551 20.0669 10.823 15.5174 16.1807L17.042 17.4753ZM7.47866 41.0385C6.51905 40.2237 6.11354 38.4187 6.77605 35.4659C7.41853 32.6024 8.99663 29.0248 11.3872 25.1806L9.68885 24.1244C7.22875 28.0803 5.533 31.8706 4.82456 35.0281C4.13616 38.0963 4.30268 40.9655 6.18413 42.5631L7.47866 41.0385Z" fill="#484848" />
</svg>