<svg width="301" height="26" viewBox="0 0 301 26" fill="none" xmlns="http://www.w3.org/2000/svg">
<path d="M38.79 2.86H41.18C41.7067 2.86 42.14 2.91667 42.48 3.03C42.8267 3.14333 43.0967 3.29667 43.29 3.49C43.49 3.68333 43.6267 3.91 43.7 4.17C43.78 4.42333 43.82 4.69333 43.82 4.98C43.82 5.28 43.78 5.56667 43.7 5.84C43.62 6.11333 43.48 6.35333 43.28 6.56C43.08 6.76667 42.81 6.93 42.47 7.05C42.13 7.17 41.7 7.23 41.18 7.23H39.7V10H38.79V2.86ZM41.17 6.45C41.5167 6.45 41.8033 6.41667 42.03 6.35C42.2567 6.28333 42.4333 6.18667 42.56 6.06C42.6867 5.93333 42.7733 5.78333 42.82 5.61C42.8733 5.43 42.9 5.23 42.9 5.01C42.9 4.78333 42.8733 4.58333 42.82 4.41C42.7667 4.23667 42.6733 4.09333 42.54 3.98C42.4067 3.86667 42.2267 3.78333 42 3.73C41.78 3.67 41.5 3.64 41.16 3.64H39.7V6.45H41.17ZM49.0482 8.55C48.9615 9.05 48.7382 9.44333 48.3782 9.73C48.0249 10.0167 47.5149 10.16 46.8482 10.16C46.0615 10.16 45.4582 9.92333 45.0382 9.45C44.6182 8.97 44.4082 8.30333 44.4082 7.45C44.4082 7.00333 44.4682 6.60667 44.5882 6.26C44.7082 5.91333 44.8749 5.62333 45.0882 5.39C45.3082 5.15667 45.5682 4.98 45.8682 4.86C46.1682 4.73333 46.4949 4.67 46.8482 4.67C47.2482 4.67 47.5915 4.73333 47.8782 4.86C48.1649 4.98667 48.3982 5.16333 48.5782 5.39C48.7649 5.61 48.9015 5.87333 48.9882 6.18C49.0815 6.48667 49.1282 6.82333 49.1282 7.19V7.63H45.2882C45.2882 7.89 45.3215 8.13333 45.3882 8.36C45.4615 8.58 45.5615 8.77333 45.6882 8.94C45.8215 9.1 45.9849 9.22667 46.1782 9.32C46.3715 9.41333 46.5949 9.46 46.8482 9.46C47.2815 9.46 47.5982 9.38 47.7982 9.22C47.9982 9.05333 48.1349 8.83 48.2082 8.55H49.0482ZM48.2582 6.98C48.2582 6.73333 48.2315 6.51 48.1782 6.31C48.1249 6.11 48.0415 5.94 47.9282 5.8C47.8149 5.65333 47.6682 5.54 47.4882 5.46C47.3082 5.38 47.0915 5.34 46.8382 5.34C46.3782 5.34 46.0182 5.48 45.7582 5.76C45.5049 6.04 45.3549 6.44667 45.3082 6.98H48.2582ZM50.2813 4.83H51.1413V5.63C51.3347 5.34333 51.5613 5.12333 51.8213 4.97C52.0813 4.81667 52.358 4.74 52.6513 4.74C52.8313 4.74 52.9847 4.75333 53.1113 4.78L53.0013 5.59C52.9347 5.57667 52.868 5.56667 52.8013 5.56C52.7347 5.54667 52.6613 5.54 52.5813 5.54C52.4213 5.54 52.258 5.57 52.0913 5.63C51.9247 5.68333 51.768 5.77667 51.6213 5.91C51.4747 6.03667 51.358 6.18333 51.2713 6.35C51.1913 6.51667 51.1513 6.71 51.1513 6.93V10H50.2813V4.83ZM54.4058 8.49C54.4658 8.85 54.6158 9.10333 54.8558 9.25C55.1024 9.39 55.4358 9.46 55.8558 9.46C56.2958 9.46 56.6058 9.38667 56.7858 9.24C56.9724 9.08667 57.0658 8.88667 57.0658 8.64C57.0658 8.54 57.0524 8.44667 57.0258 8.36C57.0058 8.26667 56.9624 8.18667 56.8958 8.12C56.8291 8.04667 56.7358 7.98333 56.6158 7.93C56.4958 7.87667 56.3391 7.83333 56.1458 7.8L55.4858 7.7C55.1924 7.65333 54.9358 7.59333 54.7158 7.52C54.4958 7.44667 54.3091 7.35333 54.1558 7.24C54.0024 7.12 53.8858 6.97667 53.8058 6.81C53.7324 6.63667 53.6958 6.43 53.6958 6.19C53.6958 5.95 53.7458 5.73667 53.8458 5.55C53.9524 5.36333 54.0958 5.20667 54.2758 5.08C54.4624 4.94667 54.6791 4.84667 54.9258 4.78C55.1791 4.70667 55.4524 4.67 55.7458 4.67C56.1191 4.67 56.4291 4.70667 56.6758 4.78C56.9291 4.85333 57.1358 4.95333 57.2958 5.08C57.4558 5.20667 57.5791 5.35667 57.6658 5.53C57.7524 5.70333 57.8191 5.88667 57.8658 6.08L57.0758 6.21C57.0291 6.07 56.9758 5.94667 56.9158 5.84C56.8558 5.73333 56.7758 5.64667 56.6758 5.58C56.5758 5.50667 56.4524 5.45333 56.3058 5.42C56.1658 5.38 55.9891 5.36 55.7758 5.36C55.5358 5.36 55.3358 5.38333 55.1758 5.43C55.0158 5.47 54.8858 5.52667 54.7858 5.6C54.6924 5.67333 54.6258 5.75667 54.5858 5.85C54.5458 5.93667 54.5258 6.03 54.5258 6.13C54.5258 6.23667 54.5391 6.33333 54.5658 6.42C54.5924 6.5 54.6424 6.57333 54.7158 6.64C54.7891 6.7 54.8891 6.75333 55.0158 6.8C55.1424 6.84667 55.3058 6.88667 55.5058 6.92L56.2558 7.04C56.8624 7.14 57.2958 7.31333 57.5558 7.56C57.8224 7.80667 57.9558 8.16667 57.9558 8.64C57.9558 8.86 57.9124 9.06333 57.8258 9.25C57.7391 9.43 57.6091 9.59 57.4358 9.73C57.2624 9.86333 57.0458 9.96667 56.7858 10.04C56.5258 10.12 56.2224 10.16 55.8758 10.16C55.5624 10.16 55.2691 10.13 54.9958 10.07C54.7291 10.01 54.4924 9.91667 54.2858 9.79C54.0791 9.65667 53.9124 9.48333 53.7858 9.27C53.6591 9.05667 53.5858 8.79667 53.5658 8.49H54.4058ZM61.2439 10.16C60.8506 10.16 60.5006 10.0967 60.1939 9.97C59.8872 9.84333 59.6272 9.66333 59.4139 9.43C59.2006 9.19667 59.0372 8.91 58.9239 8.57C58.8106 8.23 58.7539 7.85 58.7539 7.43C58.7539 7.01 58.8139 6.63 58.9339 6.29C59.0539 5.95 59.2239 5.66 59.4439 5.42C59.6639 5.18 59.9272 4.99667 60.2339 4.87C60.5472 4.73667 60.8939 4.67 61.2739 4.67C61.6606 4.67 62.0072 4.73333 62.3139 4.86C62.6206 4.98667 62.8806 5.17 63.0939 5.41C63.3139 5.64333 63.4806 5.92667 63.5939 6.26C63.7072 6.59333 63.7639 6.97 63.7639 7.39C63.7639 7.81667 63.7039 8.2 63.5839 8.54C63.4706 8.88 63.3039 9.17 63.0839 9.41C62.8706 9.65 62.6072 9.83667 62.2939 9.97C61.9806 10.0967 61.6306 10.16 61.2439 10.16ZM61.2539 9.44C61.5339 9.44 61.7739 9.39 61.9739 9.29C62.1739 9.19 62.3372 9.05 62.4639 8.87C62.5972 8.69 62.6939 8.47667 62.7539 8.23C62.8139 7.97667 62.8439 7.7 62.8439 7.4C62.8439 7.10667 62.8139 6.83667 62.7539 6.59C62.6939 6.34333 62.5972 6.13333 62.4639 5.96C62.3372 5.78 62.1739 5.64 61.9739 5.54C61.7739 5.44 61.5339 5.39 61.2539 5.39C60.9739 5.39 60.7339 5.44 60.5339 5.54C60.3406 5.64 60.1772 5.78 60.0439 5.96C59.9172 6.13333 59.8239 6.34333 59.7639 6.59C59.7039 6.83667 59.6739 7.11 59.6739 7.41C59.6739 7.71 59.7039 7.98333 59.7639 8.23C59.8239 8.47667 59.9172 8.69 60.0439 8.87C60.1706 9.05 60.3339 9.19 60.5339 9.29C60.7339 9.39 60.9739 9.44 61.2539 9.44ZM64.9298 4.83H65.7898V5.62C66.0431 5.28 66.3231 5.03667 66.6298 4.89C66.9364 4.74333 67.2598 4.67 67.5998 4.67C68.1864 4.67 68.6198 4.83 68.8998 5.15C69.1864 5.47 69.3298 5.94 69.3298 6.56V10H68.4598V6.73C68.4598 6.25 68.3731 5.91333 68.1998 5.72C68.0264 5.52 67.7598 5.42 67.3998 5.42C67.2064 5.42 67.0131 5.45333 66.8198 5.52C66.6331 5.58667 66.4631 5.69333 66.3098 5.84C66.1431 5.98667 66.0164 6.14333 65.9298 6.31C65.8431 6.47 65.7998 6.68 65.7998 6.94V10H64.9298V4.83Z" fill="#484848"/>
<path d="M7.79975 0.724976H31.6639C31.9977 0.724976 32.2377 1.04571 32.1437 1.36592L25.68 23.3659C25.6174 23.5788 25.4221 23.725 25.2003 23.725H1.33607C1.00233 23.725 0.762268 23.4042 0.856347 23.084L7.32002 1.08403C7.38256 0.87117 7.57789 0.724976 7.79975 0.724976Z" stroke="#484848"/>
<path d="M126.89 2.86H127.86L130.63 10H129.63L128.88 8.01H125.82L125.07 10H124.11L126.89 2.86ZM128.6 7.21L127.34 3.9L126.1 7.21H128.6ZM131.281 4.83H132.151V8.09C132.151 8.57 132.227 8.91 132.381 9.11C132.541 9.31 132.797 9.41 133.151 9.41C133.537 9.41 133.887 9.27 134.201 8.99C134.367 8.84333 134.494 8.69 134.581 8.53C134.667 8.36333 134.711 8.15 134.711 7.89V4.83H135.581V10H134.721V9.2C134.467 9.53333 134.194 9.77667 133.901 9.93C133.607 10.0833 133.291 10.16 132.951 10.16C132.364 10.16 131.937 10.0033 131.671 9.69C131.411 9.37 131.281 8.89333 131.281 8.26V4.83ZM137.216 5.52H136.416V4.83H137.216V3.42H138.086V4.83H139.456V5.52H138.086V8.55C138.086 8.80333 138.143 9.00667 138.256 9.16C138.369 9.31333 138.543 9.39 138.776 9.39C138.923 9.39 139.049 9.38 139.156 9.36C139.269 9.34 139.373 9.31333 139.466 9.28L139.616 9.95C139.483 9.99667 139.336 10.0333 139.176 10.06C139.023 10.0933 138.839 10.11 138.626 10.11C138.333 10.11 138.096 10.0667 137.916 9.98C137.736 9.89333 137.593 9.77 137.486 9.61C137.379 9.45 137.306 9.26 137.266 9.04C137.233 8.82 137.216 8.58 137.216 8.32V5.52ZM142.556 10.16C142.163 10.16 141.813 10.0967 141.506 9.97C141.2 9.84333 140.94 9.66333 140.726 9.43C140.513 9.19667 140.35 8.91 140.236 8.57C140.123 8.23 140.066 7.85 140.066 7.43C140.066 7.01 140.126 6.63 140.246 6.29C140.366 5.95 140.536 5.66 140.756 5.42C140.976 5.18 141.24 4.99667 141.546 4.87C141.86 4.73667 142.206 4.67 142.586 4.67C142.973 4.67 143.32 4.73333 143.626 4.86C143.933 4.98667 144.193 5.17 144.406 5.41C144.626 5.64333 144.793 5.92667 144.906 6.26C145.02 6.59333 145.076 6.97 145.076 7.39C145.076 7.81667 145.016 8.2 144.896 8.54C144.783 8.88 144.616 9.17 144.396 9.41C144.183 9.65 143.92 9.83667 143.606 9.97C143.293 10.0967 142.943 10.16 142.556 10.16ZM142.566 9.44C142.846 9.44 143.086 9.39 143.286 9.29C143.486 9.19 143.65 9.05 143.776 8.87C143.91 8.69 144.006 8.47667 144.066 8.23C144.126 7.97667 144.156 7.7 144.156 7.4C144.156 7.10667 144.126 6.83667 144.066 6.59C144.006 6.34333 143.91 6.13333 143.776 5.96C143.65 5.78 143.486 5.64 143.286 5.54C143.086 5.44 142.846 5.39 142.566 5.39C142.286 5.39 142.046 5.44 141.846 5.54C141.653 5.64 141.49 5.78 141.356 5.96C141.23 6.13333 141.136 6.34333 141.076 6.59C141.016 6.83667 140.986 7.11 140.986 7.41C140.986 7.71 141.016 7.98333 141.076 8.23C141.136 8.47667 141.23 8.69 141.356 8.87C141.483 9.05 141.646 9.19 141.846 9.29C142.046 9.39 142.286 9.44 142.566 9.44Z" fill="#484848"/>
<g style="mix-blend-mode:multiply">
<path d="M93.8312 0.723819C93.9543 0.295244 94.3464 0 94.7923 0H118.615C119.28 0 119.76 0.637034 119.577 1.27618L113.112 23.7725C112.989 24.201 112.597 24.4963 112.151 24.4963H88.3278C87.6628 24.4963 87.1831 23.8592 87.3667 23.2201L93.8312 0.723819Z" fill="#FF7B7B"/>
</g>
<path d="M209.89 2.86H210.86L213.63 10H212.63L211.88 8.01H208.82L208.07 10H207.11L209.89 2.86ZM211.6 7.21L210.34 3.9L209.1 7.21H211.6ZM214.281 4.83H215.151V8.09C215.151 8.57 215.227 8.91 215.381 9.11C215.541 9.31 215.797 9.41 216.151 9.41C216.537 9.41 216.887 9.27 217.201 8.99C217.367 8.84333 217.494 8.69 217.581 8.53C217.667 8.36333 217.711 8.15 217.711 7.89V4.83H218.581V10H217.721V9.2C217.467 9.53333 217.194 9.77667 216.901 9.93C216.607 10.0833 216.291 10.16 215.951 10.16C215.364 10.16 214.937 10.0033 214.671 9.69C214.411 9.37 214.281 8.89333 214.281 8.26V4.83ZM220.216 5.52H219.416V4.83H220.216V3.42H221.086V4.83H222.456V5.52H221.086V8.55C221.086 8.80333 221.143 9.00667 221.256 9.16C221.369 9.31333 221.543 9.39 221.776 9.39C221.923 9.39 222.049 9.38 222.156 9.36C222.269 9.34 222.373 9.31333 222.466 9.28L222.616 9.95C222.483 9.99667 222.336 10.0333 222.176 10.06C222.023 10.0933 221.839 10.11 221.626 10.11C221.333 10.11 221.096 10.0667 220.916 9.98C220.736 9.89333 220.593 9.77 220.486 9.61C220.379 9.45 220.306 9.26 220.266 9.04C220.233 8.82 220.216 8.58 220.216 8.32V5.52ZM225.556 10.16C225.163 10.16 224.813 10.0967 224.506 9.97C224.2 9.84333 223.94 9.66333 223.726 9.43C223.513 9.19667 223.35 8.91 223.236 8.57C223.123 8.23 223.066 7.85 223.066 7.43C223.066 7.01 223.126 6.63 223.246 6.29C223.366 5.95 223.536 5.66 223.756 5.42C223.976 5.18 224.24 4.99667 224.546 4.87C224.86 4.73667 225.206 4.67 225.586 4.67C225.973 4.67 226.32 4.73333 226.626 4.86C226.933 4.98667 227.193 5.17 227.406 5.41C227.626 5.64333 227.793 5.92667 227.906 6.26C228.02 6.59333 228.076 6.97 228.076 7.39C228.076 7.81667 228.016 8.2 227.896 8.54C227.783 8.88 227.616 9.17 227.396 9.41C227.183 9.65 226.92 9.83667 226.606 9.97C226.293 10.0967 225.943 10.16 225.556 10.16ZM225.566 9.44C225.846 9.44 226.086 9.39 226.286 9.29C226.486 9.19 226.65 9.05 226.776 8.87C226.91 8.69 227.006 8.47667 227.066 8.23C227.126 7.97667 227.156 7.7 227.156 7.4C227.156 7.10667 227.126 6.83667 227.066 6.59C227.006 6.34333 226.91 6.13333 226.776 5.96C226.65 5.78 226.486 5.64 226.286 5.54C226.086 5.44 225.846 5.39 225.566 5.39C225.286 5.39 225.046 5.44 224.846 5.54C224.653 5.64 224.49 5.78 224.356 5.96C224.23 6.13333 224.136 6.34333 224.076 6.59C224.016 6.83667 223.986 7.11 223.986 7.41C223.986 7.71 224.016 7.98333 224.076 8.23C224.136 8.47667 224.23 8.69 224.356 8.87C224.483 9.05 224.646 9.19 224.846 9.29C225.046 9.39 225.286 9.44 225.566 9.44ZM231.469 4.83H232.329V5.62C232.562 5.3 232.819 5.06333 233.099 4.91C233.379 4.75 233.665 4.67 233.959 4.67C234.345 4.67 234.655 4.75333 234.889 4.92C235.129 5.08667 235.305 5.32667 235.419 5.64C235.652 5.32 235.919 5.08 236.219 4.92C236.519 4.75333 236.839 4.67 237.179 4.67C237.685 4.67 238.075 4.81 238.349 5.09C238.629 5.36333 238.769 5.80667 238.769 6.42V10H237.899V6.62C237.899 6.38667 237.879 6.19333 237.839 6.04C237.799 5.88 237.739 5.75667 237.659 5.67C237.585 5.57667 237.492 5.51333 237.379 5.48C237.265 5.44 237.135 5.42 236.989 5.42C236.835 5.42 236.675 5.44667 236.509 5.5C236.342 5.55333 236.179 5.64667 236.019 5.78C235.885 5.89333 235.775 6.03 235.689 6.19C235.602 6.35 235.559 6.53333 235.559 6.74V10H234.689V6.63C234.689 6.17667 234.609 5.86333 234.449 5.69C234.295 5.51 234.072 5.42 233.779 5.42C233.439 5.42 233.119 5.56 232.819 5.84C232.705 5.94667 232.595 6.08333 232.489 6.25C232.389 6.41667 232.339 6.64 232.339 6.92V10H231.469V4.83ZM240.102 4.83H240.972V10H240.102V4.83ZM240.072 2.86H241.002V3.87H240.072V2.86ZM242.628 5.52H241.828V4.83H242.628V3.42H243.498V4.83H244.868V5.52H243.498V8.55C243.498 8.80333 243.555 9.00667 243.668 9.16C243.782 9.31333 243.955 9.39 244.188 9.39C244.335 9.39 244.462 9.38 244.568 9.36C244.682 9.34 244.785 9.31333 244.878 9.28L245.028 9.95C244.895 9.99667 244.748 10.0333 244.588 10.06C244.435 10.0933 244.252 10.11 244.038 10.11C243.745 10.11 243.508 10.0667 243.328 9.98C243.148 9.89333 243.005 9.77 242.898 9.61C242.792 9.45 242.718 9.26 242.678 9.04C242.645 8.82 242.628 8.58 242.628 8.32V5.52ZM248.142 2.86H249.062V5.88H252.672V2.86H253.592V10H252.672V6.74H249.062V10H248.142V2.86ZM255.033 11.1C255.219 11.1667 255.406 11.2 255.593 11.2C255.806 11.2 255.969 11.1433 256.083 11.03C256.203 10.9233 256.319 10.72 256.433 10.42L256.643 9.87L254.453 4.83H255.463L257.093 8.89L258.583 4.83H259.543L257.283 10.49C257.189 10.7233 257.096 10.9267 257.003 11.1C256.909 11.28 256.806 11.4333 256.693 11.56C256.579 11.6867 256.443 11.78 256.283 11.84C256.129 11.9067 255.939 11.94 255.713 11.94C255.553 11.94 255.409 11.93 255.283 11.91C255.156 11.89 255.016 11.8533 254.863 11.8L255.033 11.1ZM260.287 2.86H261.157V5.55C261.371 5.27 261.617 5.05333 261.897 4.9C262.177 4.74667 262.507 4.67 262.887 4.67C263.254 4.67 263.574 4.73667 263.847 4.87C264.127 5.00333 264.357 5.19 264.537 5.43C264.724 5.67 264.861 5.95667 264.947 6.29C265.041 6.61667 265.087 6.98 265.087 7.38C265.087 7.80667 265.034 8.19333 264.927 8.54C264.821 8.88 264.667 9.17 264.467 9.41C264.267 9.65 264.024 9.83667 263.737 9.97C263.457 10.0967 263.141 10.16 262.787 10.16C262.487 10.16 262.194 10.1 261.907 9.98C261.627 9.85333 261.374 9.64 261.147 9.34V10H260.287V2.86ZM261.147 7.56C261.147 7.89333 261.184 8.18 261.257 8.42C261.337 8.65333 261.444 8.84667 261.577 9C261.711 9.15333 261.871 9.26667 262.057 9.34C262.244 9.40667 262.447 9.44 262.667 9.44C262.881 9.44 263.077 9.40333 263.257 9.33C263.444 9.25667 263.604 9.14 263.737 8.98C263.871 8.81333 263.974 8.6 264.047 8.34C264.127 8.08 264.167 7.76333 264.167 7.39C264.167 7.01 264.124 6.69333 264.037 6.44C263.957 6.18 263.851 5.97333 263.717 5.82C263.584 5.66667 263.431 5.55667 263.257 5.49C263.091 5.42333 262.917 5.39 262.737 5.39C262.511 5.39 262.301 5.43 262.107 5.51C261.914 5.58333 261.744 5.69667 261.597 5.85C261.457 5.99667 261.347 6.18667 261.267 6.42C261.187 6.64667 261.147 6.91 261.147 7.21V7.56ZM266.254 4.83H267.114V5.63C267.307 5.34333 267.534 5.12333 267.794 4.97C268.054 4.81667 268.331 4.74 268.624 4.74C268.804 4.74 268.957 4.75333 269.084 4.78L268.974 5.59C268.907 5.57667 268.841 5.56667 268.774 5.56C268.707 5.54667 268.634 5.54 268.554 5.54C268.394 5.54 268.231 5.57 268.064 5.63C267.897 5.68333 267.741 5.77667 267.594 5.91C267.447 6.03667 267.331 6.18333 267.244 6.35C267.164 6.51667 267.124 6.71 267.124 6.93V10H266.254V4.83ZM269.936 4.83H270.806V10H269.936V4.83ZM269.906 2.86H270.836V3.87H269.906V2.86ZM275.922 9.26C275.709 9.54667 275.462 9.77 275.182 9.93C274.902 10.0833 274.572 10.16 274.192 10.16C273.812 10.16 273.482 10.09 273.202 9.95C272.929 9.81 272.702 9.62 272.522 9.38C272.342 9.13333 272.209 8.84333 272.122 8.51C272.036 8.17667 271.992 7.82 271.992 7.44C271.992 7.01333 272.046 6.63 272.152 6.29C272.259 5.94333 272.409 5.65 272.602 5.41C272.802 5.17 273.042 4.98667 273.322 4.86C273.609 4.73333 273.932 4.67 274.292 4.67C274.566 4.67 274.842 4.72667 275.122 4.84C275.402 4.94667 275.662 5.15333 275.902 5.46V2.86H276.772V10H275.922V9.26ZM275.932 7.26C275.932 6.84667 275.886 6.52667 275.792 6.3C275.706 6.06667 275.559 5.87 275.352 5.71C275.206 5.59 275.056 5.50667 274.902 5.46C274.756 5.41333 274.592 5.39 274.412 5.39C274.199 5.39 273.999 5.42667 273.812 5.5C273.632 5.57333 273.472 5.69333 273.332 5.86C273.199 6.02 273.092 6.23 273.012 6.49C272.939 6.74333 272.902 7.05333 272.902 7.42C272.902 7.8 272.942 8.12 273.022 8.38C273.109 8.64 273.219 8.84667 273.352 9C273.492 9.15333 273.646 9.26333 273.812 9.33C273.986 9.39667 274.162 9.43 274.342 9.43C274.536 9.43 274.709 9.40667 274.862 9.36C275.016 9.31333 275.169 9.23333 275.322 9.12C275.522 8.96 275.672 8.76 275.772 8.52C275.879 8.28 275.932 7.97667 275.932 7.61V7.26ZM278.281 6.64H281.221V7.51H278.281V6.64ZM207.97 23H207.07L209.34 15.66H210.24L207.97 23ZM211.101 15.86H215.721V16.67H212.021V18.91H215.521V19.73H212.021V22.19H215.911L215.761 23H211.101V15.86ZM216.938 15.86H217.808V23H216.938V15.86ZM223.634 21.55C223.547 22.05 223.324 22.4433 222.964 22.73C222.611 23.0167 222.101 23.16 221.434 23.16C220.647 23.16 220.044 22.9233 219.624 22.45C219.204 21.97 218.994 21.3033 218.994 20.45C218.994 20.0033 219.054 19.6067 219.174 19.26C219.294 18.9133 219.461 18.6233 219.674 18.39C219.894 18.1567 220.154 17.98 220.454 17.86C220.754 17.7333 221.081 17.67 221.434 17.67C221.834 17.67 222.177 17.7333 222.464 17.86C222.751 17.9867 222.984 18.1633 223.164 18.39C223.351 18.61 223.487 18.8733 223.574 19.18C223.667 19.4867 223.714 19.8233 223.714 20.19V20.63H219.874C219.874 20.89 219.907 21.1333 219.974 21.36C220.047 21.58 220.147 21.7733 220.274 21.94C220.407 22.1 220.571 22.2267 220.764 22.32C220.957 22.4133 221.181 22.46 221.434 22.46C221.867 22.46 222.184 22.38 222.384 22.22C222.584 22.0533 222.721 21.83 222.794 21.55H223.634ZM222.844 19.98C222.844 19.7333 222.817 19.51 222.764 19.31C222.711 19.11 222.627 18.94 222.514 18.8C222.401 18.6533 222.254 18.54 222.074 18.46C221.894 18.38 221.677 18.34 221.424 18.34C220.964 18.34 220.604 18.48 220.344 18.76C220.091 19.04 219.941 19.4467 219.894 19.98H222.844ZM224.867 15.86H225.727V20.02L228.147 17.83H229.197L227.347 19.56L229.397 23H228.407L226.697 20.07L225.727 20.94V23H224.867V15.86ZM230.499 18.52H229.699V17.83H230.499V16.42H231.369V17.83H232.739V18.52H231.369V21.55C231.369 21.8033 231.426 22.0067 231.539 22.16C231.653 22.3133 231.826 22.39 232.059 22.39C232.206 22.39 232.333 22.38 232.439 22.36C232.553 22.34 232.656 22.3133 232.749 22.28L232.899 22.95C232.766 22.9967 232.619 23.0333 232.459 23.06C232.306 23.0933 232.123 23.11 231.909 23.11C231.616 23.11 231.379 23.0667 231.199 22.98C231.019 22.8933 230.876 22.77 230.769 22.61C230.663 22.45 230.589 22.26 230.549 22.04C230.516 21.82 230.499 21.58 230.499 21.32V18.52ZM233.666 17.83H234.526V18.63C234.719 18.3433 234.946 18.1233 235.206 17.97C235.466 17.8167 235.743 17.74 236.036 17.74C236.216 17.74 236.369 17.7533 236.496 17.78L236.386 18.59C236.319 18.5767 236.253 18.5667 236.186 18.56C236.119 18.5467 236.046 18.54 235.966 18.54C235.806 18.54 235.643 18.57 235.476 18.63C235.309 18.6833 235.153 18.7767 235.006 18.91C234.859 19.0367 234.743 19.1833 234.656 19.35C234.576 19.5167 234.536 19.71 234.536 19.93V23H233.666V17.83ZM239.345 23.16C238.952 23.16 238.602 23.0967 238.295 22.97C237.989 22.8433 237.729 22.6633 237.515 22.43C237.302 22.1967 237.139 21.91 237.025 21.57C236.912 21.23 236.855 20.85 236.855 20.43C236.855 20.01 236.915 19.63 237.035 19.29C237.155 18.95 237.325 18.66 237.545 18.42C237.765 18.18 238.029 17.9967 238.335 17.87C238.649 17.7367 238.995 17.67 239.375 17.67C239.762 17.67 240.109 17.7333 240.415 17.86C240.722 17.9867 240.982 18.17 241.195 18.41C241.415 18.6433 241.582 18.9267 241.695 19.26C241.809 19.5933 241.865 19.97 241.865 20.39C241.865 20.8167 241.805 21.2 241.685 21.54C241.572 21.88 241.405 22.17 241.185 22.41C240.972 22.65 240.709 22.8367 240.395 22.97C240.082 23.0967 239.732 23.16 239.345 23.16ZM239.355 22.44C239.635 22.44 239.875 22.39 240.075 22.29C240.275 22.19 240.439 22.05 240.565 21.87C240.699 21.69 240.795 21.4767 240.855 21.23C240.915 20.9767 240.945 20.7 240.945 20.4C240.945 20.1067 240.915 19.8367 240.855 19.59C240.795 19.3433 240.699 19.1333 240.565 18.96C240.439 18.78 240.275 18.64 240.075 18.54C239.875 18.44 239.635 18.39 239.355 18.39C239.075 18.39 238.835 18.44 238.635 18.54C238.442 18.64 238.279 18.78 238.145 18.96C238.019 19.1333 237.925 19.3433 237.865 19.59C237.805 19.8367 237.775 20.11 237.775 20.41C237.775 20.71 237.805 20.9833 237.865 21.23C237.925 21.4767 238.019 21.69 238.145 21.87C238.272 22.05 238.435 22.19 238.635 22.29C238.835 22.39 239.075 22.44 239.355 22.44ZM246.251 22.29C246.065 22.5167 245.828 22.7133 245.541 22.88C245.255 23.04 244.898 23.12 244.471 23.12C244.211 23.12 243.971 23.0867 243.751 23.02C243.538 22.96 243.351 22.8667 243.191 22.74C243.038 22.6067 242.918 22.4433 242.831 22.25C242.745 22.0567 242.701 21.83 242.701 21.57C242.701 21.2167 242.775 20.93 242.921 20.71C243.075 20.49 243.275 20.3167 243.521 20.19C243.775 20.0633 244.058 19.9733 244.371 19.92C244.685 19.8667 245.008 19.8333 245.341 19.82L246.231 19.79V19.59C246.231 19.15 246.138 18.8333 245.951 18.64C245.765 18.4467 245.461 18.35 245.041 18.35C244.628 18.35 244.325 18.42 244.131 18.56C243.938 18.6933 243.811 18.88 243.751 19.12L242.961 19.03C243.055 18.5567 243.278 18.2133 243.631 18C243.985 17.78 244.465 17.67 245.071 17.67C245.445 17.67 245.758 17.7167 246.011 17.81C246.271 17.8967 246.481 18.0233 246.641 18.19C246.801 18.3567 246.915 18.5633 246.981 18.81C247.055 19.0567 247.091 19.3333 247.091 19.64V23H246.251V22.29ZM246.231 20.41L245.401 20.44C245.048 20.4533 244.755 20.4867 244.521 20.54C244.288 20.5933 244.101 20.6667 243.961 20.76C243.828 20.8467 243.731 20.9567 243.671 21.09C243.618 21.2233 243.591 21.3767 243.591 21.55C243.591 21.81 243.668 22.02 243.821 22.18C243.981 22.3333 244.241 22.41 244.601 22.41C245.115 22.41 245.515 22.2833 245.801 22.03C246.088 21.7767 246.231 21.43 246.231 20.99V20.41ZM248.412 17.83H249.272V18.62C249.526 18.28 249.806 18.0367 250.112 17.89C250.419 17.7433 250.742 17.67 251.082 17.67C251.669 17.67 252.102 17.83 252.382 18.15C252.669 18.47 252.812 18.94 252.812 19.56V23H251.942V19.73C251.942 19.25 251.856 18.9133 251.682 18.72C251.509 18.52 251.242 18.42 250.882 18.42C250.689 18.42 250.496 18.4533 250.302 18.52C250.116 18.5867 249.946 18.6933 249.792 18.84C249.626 18.9867 249.499 19.1433 249.412 19.31C249.326 19.47 249.282 19.68 249.282 19.94V23H248.412V17.83ZM254.415 18.52H253.615V17.83H254.415V16.42H255.285V17.83H256.655V18.52H255.285V21.55C255.285 21.8033 255.342 22.0067 255.455 22.16C255.569 22.3133 255.742 22.39 255.975 22.39C256.122 22.39 256.249 22.38 256.355 22.36C256.469 22.34 256.572 22.3133 256.665 22.28L256.815 22.95C256.682 22.9967 256.535 23.0333 256.375 23.06C256.222 23.0933 256.039 23.11 255.825 23.11C255.532 23.11 255.295 23.0667 255.115 22.98C254.935 22.8933 254.792 22.77 254.685 22.61C254.579 22.45 254.505 22.26 254.465 22.04C254.432 21.82 254.415 21.58 254.415 21.32V18.52ZM257.582 17.83H258.442V18.63C258.635 18.3433 258.862 18.1233 259.122 17.97C259.382 17.8167 259.659 17.74 259.952 17.74C260.132 17.74 260.285 17.7533 260.412 17.78L260.302 18.59C260.235 18.5767 260.169 18.5667 260.102 18.56C260.035 18.5467 259.962 18.54 259.882 18.54C259.722 18.54 259.559 18.57 259.392 18.63C259.225 18.6833 259.069 18.7767 258.922 18.91C258.775 19.0367 258.659 19.1833 258.572 19.35C258.492 19.5167 258.452 19.71 258.452 19.93V23H257.582V17.83ZM261.264 17.83H262.134V23H261.264V17.83ZM261.234 15.86H262.164V16.87H261.234V15.86ZM267.96 21.55C267.874 22.05 267.65 22.4433 267.29 22.73C266.937 23.0167 266.427 23.16 265.76 23.16C264.974 23.16 264.37 22.9233 263.95 22.45C263.53 21.97 263.32 21.3033 263.32 20.45C263.32 20.0033 263.38 19.6067 263.5 19.26C263.62 18.9133 263.787 18.6233 264 18.39C264.22 18.1567 264.48 17.98 264.78 17.86C265.08 17.7333 265.407 17.67 265.76 17.67C266.16 17.67 266.504 17.7333 266.79 17.86C267.077 17.9867 267.31 18.1633 267.49 18.39C267.677 18.61 267.814 18.8733 267.9 19.18C267.994 19.4867 268.04 19.8233 268.04 20.19V20.63H264.2C264.2 20.89 264.234 21.1333 264.3 21.36C264.374 21.58 264.474 21.7733 264.6 21.94C264.734 22.1 264.897 22.2267 265.09 22.32C265.284 22.4133 265.507 22.46 265.76 22.46C266.194 22.46 266.51 22.38 266.71 22.22C266.91 22.0533 267.047 21.83 267.12 21.55H267.96ZM267.17 19.98C267.17 19.7333 267.144 19.51 267.09 19.31C267.037 19.11 266.954 18.94 266.84 18.8C266.727 18.6533 266.58 18.54 266.4 18.46C266.22 18.38 266.004 18.34 265.75 18.34C265.29 18.34 264.93 18.48 264.67 18.76C264.417 19.04 264.267 19.4467 264.22 19.98H267.17ZM269.193 15.86H270.063V18.55C270.277 18.27 270.523 18.0533 270.803 17.9C271.083 17.7467 271.413 17.67 271.793 17.67C272.16 17.67 272.48 17.7367 272.753 17.87C273.033 18.0033 273.263 18.19 273.443 18.43C273.63 18.67 273.767 18.9567 273.853 19.29C273.947 19.6167 273.993 19.98 273.993 20.38C273.993 20.8067 273.94 21.1933 273.833 21.54C273.727 21.88 273.573 22.17 273.373 22.41C273.173 22.65 272.93 22.8367 272.643 22.97C272.363 23.0967 272.047 23.16 271.693 23.16C271.393 23.16 271.1 23.1 270.813 22.98C270.533 22.8533 270.28 22.64 270.053 22.34V23H269.193V15.86ZM270.053 20.56C270.053 20.8933 270.09 21.18 270.163 21.42C270.243 21.6533 270.35 21.8467 270.483 22C270.617 22.1533 270.777 22.2667 270.963 22.34C271.15 22.4067 271.353 22.44 271.573 22.44C271.787 22.44 271.983 22.4033 272.163 22.33C272.35 22.2567 272.51 22.14 272.643 21.98C272.777 21.8133 272.88 21.6 272.953 21.34C273.033 21.08 273.073 20.7633 273.073 20.39C273.073 20.01 273.03 19.6933 272.943 19.44C272.863 19.18 272.757 18.9733 272.623 18.82C272.49 18.6667 272.337 18.5567 272.163 18.49C271.997 18.4233 271.823 18.39 271.643 18.39C271.417 18.39 271.207 18.43 271.013 18.51C270.82 18.5833 270.65 18.6967 270.503 18.85C270.363 18.9967 270.253 19.1867 270.173 19.42C270.093 19.6467 270.053 19.91 270.053 20.21V20.56Z" fill="#484848"/>
<g style="mix-blend-mode:multiply">
<path d="M174.831 0.723819C174.954 0.295244 175.346 0 175.792 0H199.615C200.28 0 200.76 0.637034 200.577 1.27618L194.112 23.7725C193.989 24.201 193.597 24.4963 193.151 24.4963H169.328C168.663 24.4963 168.183 23.8592 168.367 23.2201L174.831 0.723819Z" fill="#F6A219"/>
</g>
</svg>
