<?xml version="1.0" encoding="UTF-8"?>
<svg id="Ebene_1" data-name="Ebene 1" xmlns="http://www.w3.org/2000/svg" viewBox="0 0 111.1 134.4">
  <defs>
    <style>
      .cls-1 {
        fill: #f6a31c;
      }

      .cls-2 {
        fill: #ef7b7d;
      }

      .cls-3 {
        fill: #494949;
      }

      .cls-4 {
        fill: none;
        stroke: #494949;
      }
    </style>
  </defs>
  <path class="cls-3" d="M37.9,2.2h2.4c.5,0,1,0,1.3,.2,.3,.1,.6,.3,.8,.5,.2,.2,.3,.4,.4,.7,0,.3,.1,.5,.1,.8s0,.6-.1,.9c0,.3-.2,.5-.4,.7-.2,.2-.5,.4-.8,.5-.3,.1-.8,.2-1.3,.2h-1.5v2.8h-.9V2.2Zm2.4,3.6c.3,0,.6,0,.9,0s.4-.2,.5-.3c.1-.1,.2-.3,.3-.4,0-.2,0-.4,0-.6s0-.4,0-.6c0-.2-.1-.3-.3-.4-.1-.1-.3-.2-.5-.2-.2,0-.5,0-.8,0h-1.5v2.8h1.5Zm7.9,2.1c0,.5-.3,.9-.7,1.2-.4,.3-.9,.4-1.5,.4s-1.4-.2-1.8-.7c-.4-.5-.6-1.1-.6-2s0-.8,.2-1.2c.1-.3,.3-.6,.5-.9,.2-.2,.5-.4,.8-.5,.3-.1,.6-.2,1-.2s.7,0,1,.2c.3,.1,.5,.3,.7,.5,.2,.2,.3,.5,.4,.8,0,.3,.1,.6,.1,1v.4h-3.8c0,.3,0,.5,0,.7,0,.2,.2,.4,.3,.6,.1,.2,.3,.3,.5,.4,.2,0,.4,.1,.7,.1,.4,0,.8,0,.9-.2,.2-.2,.3-.4,.4-.7h.8Zm-.8-1.6c0-.2,0-.5,0-.7,0-.2-.1-.4-.2-.5-.1-.1-.3-.3-.4-.3s-.4-.1-.7-.1c-.5,0-.8,.1-1.1,.4-.3,.3-.4,.7-.5,1.2h3Zm2-2.2h.9v.8c.2-.3,.4-.5,.7-.7,.3-.2,.5-.2,.8-.2s.3,0,.5,0v.8c-.2,0-.2,0-.3,0,0,0-.1,0-.2,0-.2,0-.3,0-.5,0-.2,0-.3,.1-.5,.3-.1,.1-.3,.3-.3,.4,0,.2-.1,.4-.1,.6v3.1h-.9V4.1Zm4.1,3.7c0,.4,.2,.6,.5,.8,.2,.1,.6,.2,1,.2s.8,0,.9-.2c.2-.2,.3-.4,.3-.6s0-.2,0-.3c0,0,0-.2-.1-.2,0,0-.2-.1-.3-.2-.1,0-.3,0-.5-.1h-.7c-.3-.1-.6-.2-.8-.3-.2,0-.4-.2-.6-.3-.2-.1-.3-.3-.3-.4,0-.2-.1-.4-.1-.6s0-.5,.1-.6c.1-.2,.2-.3,.4-.5,.2-.1,.4-.2,.7-.3,.3,0,.5-.1,.8-.1s.7,0,.9,.1c.3,0,.5,.2,.6,.3s.3,.3,.4,.5c0,.2,.2,.4,.2,.5h-.8s-.1-.1-.2-.2c0-.1-.1-.2-.2-.3,0,0-.2-.1-.4-.2-.1,0-.3,0-.5,0s-.4,0-.6,0c-.2,0-.3,0-.4,.2,0,0-.2,.2-.2,.2,0,0,0,.2,0,.3s0,.2,0,.3c0,0,0,.2,.2,.2,0,0,.2,.1,.3,.2,.1,0,.3,0,.5,.1h.8c.6,.2,1,.4,1.3,.6,.3,.2,.4,.6,.4,1.1s0,.4-.1,.6c0,.2-.2,.3-.4,.5-.2,.1-.4,.2-.6,.3-.3,0-.6,.1-.9,.1s-.6,0-.9,0c-.3,0-.5-.2-.7-.3-.2-.1-.4-.3-.5-.5-.1-.2-.2-.5-.2-.8h.8Zm6.8,1.7c-.4,0-.7,0-1-.2-.3-.1-.6-.3-.8-.5-.2-.2-.4-.5-.5-.9s-.2-.7-.2-1.1,0-.8,.2-1.1c.1-.3,.3-.6,.5-.9,.2-.2,.5-.4,.8-.6,.3-.1,.7-.2,1-.2s.7,0,1,.2c.3,.1,.6,.3,.8,.5,.2,.2,.4,.5,.5,.9,.1,.3,.2,.7,.2,1.1s0,.8-.2,1.2c-.1,.3-.3,.6-.5,.9-.2,.2-.5,.4-.8,.6-.3,.1-.7,.2-1,.2Zm0-.7c.3,0,.5,0,.7-.1s.4-.2,.5-.4c.1-.2,.2-.4,.3-.6,0-.3,0-.5,0-.8s0-.6,0-.8c0-.2-.2-.5-.3-.6-.1-.2-.3-.3-.5-.4s-.4-.2-.7-.2-.5,0-.7,.2c-.2,0-.4,.2-.5,.4-.1,.2-.2,.4-.3,.6,0,.2,0,.5,0,.8s0,.6,0,.8c0,.2,.2,.5,.3,.6s.3,.3,.5,.4c.2,.1,.4,.1,.7,.1Zm3.7-4.6h.9v.8c.3-.3,.5-.6,.8-.7,.3-.1,.6-.2,1-.2,.6,0,1,.2,1.3,.5,.3,.3,.4,.8,.4,1.4v3.4h-.9v-3.3c0-.5,0-.8-.3-1-.2-.2-.4-.3-.8-.3s-.4,0-.6,0c-.2,0-.4,.2-.5,.3-.2,.1-.3,.3-.4,.5,0,.2-.1,.4-.1,.6v3.1h-.9V4.1Z"/>
  <path class="cls-4" d="M7.5,.5H31.3c.3,0,.6,.3,.5,.6l-6.5,22c0,.2-.3,.4-.5,.4H1c-.3,0-.6-.3-.5-.6L7,.9c0-.2,.3-.4,.5-.4Z"/>
  <path class="cls-3" d="M39.6,56.2h1l2.8,7.1h-1l-.8-2h-3.1l-.8,2h-1l2.8-7.1Zm1.7,4.4l-1.3-3.3-1.2,3.3h2.5Zm2.7-2.4h.9v3.3c0,.5,0,.8,.2,1,.2,.2,.4,.3,.8,.3s.7-.1,1.1-.4c.2-.1,.3-.3,.4-.5,0-.2,.1-.4,.1-.6v-3.1h.9v5.2h-.9v-.8c-.3,.3-.5,.6-.8,.7-.3,.2-.6,.2-.9,.2-.6,0-1-.2-1.3-.5-.3-.3-.4-.8-.4-1.4v-3.4Zm5.9,.7h-.8v-.7h.8v-1.4h.9v1.4h1.4v.7h-1.4v3c0,.3,0,.5,.2,.6,.1,.2,.3,.2,.5,.2s.3,0,.4,0c.1,0,.2,0,.3,0v.7s-.1,0-.3,.1c-.2,0-.3,0-.5,0s-.5,0-.7-.1c-.2,0-.3-.2-.4-.4-.1-.2-.2-.3-.2-.6,0-.2,0-.5,0-.7v-2.8Zm5.3,4.6c-.4,0-.7,0-1.1-.2-.3-.1-.6-.3-.8-.5-.2-.2-.4-.5-.5-.9-.1-.3-.2-.7-.2-1.1s0-.8,.2-1.1,.3-.6,.5-.9c.2-.2,.5-.4,.8-.6,.3-.1,.7-.2,1-.2s.7,0,1,.2c.3,.1,.6,.3,.8,.5,.2,.2,.4,.5,.5,.9,.1,.3,.2,.7,.2,1.1s0,.8-.2,1.2c-.1,.3-.3,.6-.5,.9-.2,.2-.5,.4-.8,.6-.3,.1-.7,.2-1.1,.2Zm0-.7c.3,0,.5,0,.7-.1s.4-.2,.5-.4c.1-.2,.2-.4,.3-.6,0-.3,0-.5,0-.8s0-.6,0-.8c0-.2-.2-.5-.3-.6-.1-.2-.3-.3-.5-.4s-.4-.2-.7-.2-.5,0-.7,.2c-.2,0-.4,.2-.5,.4-.1,.2-.2,.4-.3,.6,0,.2,0,.5,0,.8s0,.6,0,.8c0,.2,.2,.5,.3,.6,.1,.2,.3,.3,.5,.4,.2,.1,.4,.1,.7,.1Z"/>
  <path class="cls-2" d="M6.5,54.1c.1-.4,.5-.7,1-.7H31.3c.7,0,1.1,.6,1,1.3l-6.5,22.5c-.1,.4-.5,.7-1,.7H1c-.7,0-1.1-.6-1-1.3l6.5-22.5Z"/>
  <path class="cls-3" d="M39.8,112h1l2.8,7.1h-1l-.8-2h-3.1l-.8,2h-1l2.8-7.1Zm1.7,4.4l-1.3-3.3-1.2,3.3h2.5Zm2.7-2.4h.9v3.3c0,.5,0,.8,.2,1,.2,.2,.4,.3,.8,.3s.7-.1,1.1-.4c.2-.1,.3-.3,.4-.5,0-.2,.1-.4,.1-.6v-3.1h.9v5.2h-.9v-.8c-.3,.3-.5,.6-.8,.7-.3,.2-.6,.2-.9,.2-.6,0-1-.2-1.3-.5-.3-.3-.4-.8-.4-1.4v-3.4Zm5.9,.7h-.8v-.7h.8v-1.4h.9v1.4h1.4v.7h-1.4v3c0,.3,0,.5,.2,.6,.1,.2,.3,.2,.5,.2s.3,0,.4,0c.1,0,.2,0,.3,0v.7s-.1,0-.3,.1c-.2,0-.3,0-.5,0s-.5,0-.7-.1c-.2,0-.3-.2-.4-.4-.1-.2-.2-.3-.2-.6,0-.2,0-.5,0-.7v-2.8Zm5.3,4.6c-.4,0-.7,0-1.1-.2-.3-.1-.6-.3-.8-.5-.2-.2-.4-.5-.5-.9-.1-.3-.2-.7-.2-1.1s0-.8,.2-1.1,.3-.6,.5-.9c.2-.2,.5-.4,.8-.6,.3-.1,.7-.2,1-.2s.7,0,1,.2c.3,.1,.6,.3,.8,.5,.2,.2,.4,.5,.5,.9,.1,.3,.2,.7,.2,1.1s0,.8-.2,1.2c-.1,.3-.3,.6-.5,.9-.2,.2-.5,.4-.8,.6-.3,.1-.7,.2-1.1,.2Zm0-.7c.3,0,.5,0,.7-.1s.4-.2,.5-.4c.1-.2,.2-.4,.3-.6,0-.3,0-.5,0-.8s0-.6,0-.8c0-.2-.2-.5-.3-.6-.1-.2-.3-.3-.5-.4s-.4-.2-.7-.2-.5,0-.7,.2c-.2,0-.4,.2-.5,.4-.1,.2-.2,.4-.3,.6,0,.2,0,.5,0,.8s0,.6,0,.8c0,.2,.2,.5,.3,.6,.1,.2,.3,.3,.5,.4,.2,.1,.4,.1,.7,.1Zm5.9-4.6h.9v.8c.2-.3,.5-.6,.8-.7,.3-.2,.6-.2,.9-.2s.7,0,.9,.2c.2,.2,.4,.4,.5,.7,.2-.3,.5-.6,.8-.7,.3-.2,.6-.2,1-.2,.5,0,.9,.1,1.2,.4,.3,.3,.4,.7,.4,1.3v3.6h-.9v-3.4c0-.2,0-.4,0-.6,0-.2-.1-.3-.2-.4,0,0-.2-.2-.3-.2-.1,0-.2,0-.4,0s-.3,0-.5,0c-.2,0-.3,.1-.5,.3-.1,.1-.2,.2-.3,.4,0,.2-.1,.3-.1,.5v3.3h-.9v-3.4c0-.5,0-.8-.2-.9-.2-.2-.4-.3-.7-.3s-.7,.1-1,.4c-.1,.1-.2,.2-.3,.4,0,.2-.1,.4-.1,.7v3.1h-.9v-5.2Zm8.6,0h.9v5.2h-.9v-5.2Zm0-2h.9v1h-.9v-1Zm2.6,2.7h-.8v-.7h.8v-1.4h.9v1.4h1.4v.7h-1.4v3c0,.3,0,.5,.2,.6,.1,.2,.3,.2,.5,.2s.3,0,.4,0c.1,0,.2,0,.3,0v.7s-.1,0-.3,.1c-.2,0-.3,0-.6,0s-.5,0-.7-.1c-.2,0-.3-.2-.4-.4-.1-.2-.2-.3-.2-.6,0-.2,0-.5,0-.7v-2.8Zm5.5-2.7h.9v3h3.6v-3h.9v7.1h-.9v-3.3h-3.6v3.3h-.9v-7.1Zm6.9,8.2c.2,0,.4,0,.6,0s.4,0,.5-.2c.1-.1,.2-.3,.4-.6l.2-.6-2.2-5h1l1.6,4.1,1.5-4.1h1l-2.3,5.7c0,.2-.2,.4-.3,.6,0,.2-.2,.3-.3,.5-.1,.1-.2,.2-.4,.3-.2,0-.3,0-.6,0s-.3,0-.4,0c-.1,0-.3,0-.4-.1l.2-.7Zm5.3-8.2h.9v2.7c.2-.3,.5-.5,.7-.7,.3-.2,.6-.2,1-.2s.7,0,1,.2c.3,.1,.5,.3,.7,.6,.2,.2,.3,.5,.4,.9,0,.3,.1,.7,.1,1.1s0,.8-.2,1.2c-.1,.3-.3,.6-.5,.9-.2,.2-.4,.4-.7,.6-.3,.1-.6,.2-1,.2s-.6,0-.9-.2c-.3-.1-.5-.3-.8-.6v.7h-.9v-7.1Zm.9,4.7c0,.3,0,.6,.1,.9,0,.2,.2,.4,.3,.6,.1,.2,.3,.3,.5,.3,.2,0,.4,0,.6,0s.4,0,.6-.1c.2,0,.3-.2,.5-.4,.1-.2,.2-.4,.3-.6,0-.3,.1-.6,.1-1s0-.7-.1-.9c0-.3-.2-.5-.3-.6-.1-.2-.3-.3-.5-.3-.2,0-.3,0-.5,0s-.4,0-.6,.1c-.2,0-.4,.2-.5,.3-.1,.1-.2,.3-.3,.6,0,.2-.1,.5-.1,.8v.3Zm5.1-2.7h.9v.8c.2-.3,.4-.5,.7-.7,.3-.2,.5-.2,.8-.2s.3,0,.5,0v.8c-.2,0-.2,0-.3,0,0,0-.1,0-.2,0-.2,0-.3,0-.5,0-.2,0-.3,.1-.5,.3-.1,.1-.3,.3-.4,.4,0,.2-.1,.4-.1,.6v3.1h-.9v-5.2Zm3.7,0h.9v5.2h-.9v-5.2Zm0-2h.9v1h-.9v-1Zm6,6.4c-.2,.3-.5,.5-.7,.7-.3,.2-.6,.2-1,.2s-.7,0-1-.2c-.3-.1-.5-.3-.7-.6-.2-.2-.3-.5-.4-.9,0-.3-.1-.7-.1-1.1s0-.8,.2-1.2c.1-.3,.3-.6,.4-.9,.2-.2,.4-.4,.7-.5,.3-.1,.6-.2,1-.2s.6,0,.8,.2c.3,.1,.5,.3,.8,.6v-2.6h.9v7.1h-.9v-.7Zm0-2c0-.4,0-.7-.1-1,0-.2-.2-.4-.4-.6-.1-.1-.3-.2-.4-.2-.1,0-.3,0-.5,0s-.4,0-.6,.1c-.2,0-.3,.2-.5,.4-.1,.2-.2,.4-.3,.6,0,.3-.1,.6-.1,.9s0,.7,.1,1c0,.3,.2,.5,.3,.6,.1,.2,.3,.3,.5,.3,.2,0,.3,.1,.5,.1s.4,0,.5,0c.2,0,.3-.1,.5-.2,.2-.2,.4-.4,.5-.6,.1-.2,.2-.5,.2-.9v-.3Zm2.3-.6h2.9v.9h-2.9v-.9Zm-70.3,16.4h-.9l2.3-7.3h.9l-2.3,7.3Zm3.1-7.1h4.6v.8h-3.7v2.2h3.5v.8h-3.5v2.5h3.9v.8h-4.8v-7.1Zm5.8,0h.9v7.1h-.9v-7.1Zm6.7,5.7c0,.5-.3,.9-.7,1.2-.4,.3-.9,.4-1.5,.4s-1.4-.2-1.8-.7c-.4-.5-.6-1.1-.6-2s0-.8,.2-1.2c.1-.3,.3-.6,.5-.9,.2-.2,.5-.4,.8-.5,.3-.1,.6-.2,1-.2s.7,0,1,.2c.3,.1,.5,.3,.7,.5,.2,.2,.3,.5,.4,.8,0,.3,.1,.6,.1,1v.4h-3.8c0,.3,0,.5,.1,.7,0,.2,.2,.4,.3,.6,.1,.2,.3,.3,.5,.4,.2,0,.4,.1,.7,.1,.4,0,.8,0,.9-.2,.2-.2,.3-.4,.4-.7h.8Zm-.8-1.6c0-.2,0-.5,0-.7,0-.2-.1-.4-.2-.5-.1-.1-.3-.3-.4-.3-.2,0-.4-.1-.7-.1-.5,0-.8,.1-1.1,.4-.3,.3-.4,.7-.4,1.2h2.9Zm2-4.1h.9v4.2l2.4-2.2h1.1l-1.9,1.7,2.1,3.4h-1l-1.7-2.9-1,.9v2.1h-.9v-7.1Zm5.6,2.7h-.8v-.7h.8v-1.4h.9v1.4h1.4v.7h-1.4v3c0,.3,0,.5,.2,.6,.1,.2,.3,.2,.5,.2s.3,0,.4,0c.1,0,.2,0,.3,0l.2,.7c-.1,0-.3,0-.4,.1-.2,0-.3,0-.6,0s-.5,0-.7-.1c-.2,0-.3-.2-.4-.4-.1-.2-.2-.4-.2-.6,0-.2,0-.5,0-.7v-2.8Zm3.2-.7h.9v.8c.2-.3,.4-.5,.7-.7,.3-.2,.5-.2,.8-.2s.3,0,.5,0v.8c-.2,0-.2,0-.3,0,0,0-.1,0-.2,0-.2,0-.3,0-.5,0-.2,0-.3,.1-.5,.3-.1,.1-.3,.3-.3,.4,0,.2-.1,.4-.1,.6v3.1h-.9v-5.2Zm5.7,5.3c-.4,0-.7,0-1.1-.2-.3-.1-.6-.3-.8-.5-.2-.2-.4-.5-.5-.9-.1-.3-.2-.7-.2-1.1s0-.8,.2-1.1c.1-.3,.3-.6,.5-.9s.5-.4,.8-.5c.3-.1,.7-.2,1-.2s.7,0,1,.2c.3,.1,.6,.3,.8,.5,.2,.2,.4,.5,.5,.9,.1,.3,.2,.7,.2,1.1s0,.8-.2,1.2c-.1,.3-.3,.6-.5,.9-.2,.2-.5,.4-.8,.6-.3,.1-.7,.2-1.1,.2Zm0-.7c.3,0,.5,0,.7-.1,.2-.1,.4-.2,.5-.4,.1-.2,.2-.4,.3-.6,0-.3,0-.5,0-.8s0-.6,0-.8-.2-.5-.3-.6c-.1-.2-.3-.3-.5-.4-.2-.1-.4-.2-.7-.2s-.5,0-.7,.2c-.2,0-.4,.2-.5,.4-.1,.2-.2,.4-.3,.6,0,.2,0,.5,0,.8s0,.6,0,.8c0,.2,.2,.5,.3,.6,.1,.2,.3,.3,.5,.4,.2,0,.4,.1,.7,.1Zm6.9-.1c-.2,.2-.4,.4-.7,.6-.3,.2-.6,.2-1.1,.2s-.5,0-.7-.1c-.2,0-.4-.2-.6-.3-.2-.1-.3-.3-.4-.5,0-.2-.1-.4-.1-.7s0-.6,.2-.9c.2-.2,.4-.4,.6-.5,.3-.1,.5-.2,.9-.3,.3,0,.6,0,1-.1h.9v-.2c0-.4,0-.8-.3-1-.2-.2-.5-.3-.9-.3s-.7,0-.9,.2c-.2,.1-.3,.3-.4,.6h-.8c0-.6,.3-.9,.7-1.1,.4-.2,.8-.3,1.4-.3s.7,0,.9,.1c.3,0,.5,.2,.6,.4,.2,.2,.3,.4,.3,.6,0,.2,.1,.5,.1,.8v3.4h-.8v-.7Zm0-1.9h-.8c-.4,0-.6,0-.9,.1-.2,0-.4,.1-.6,.2-.1,0-.2,.2-.3,.3,0,.1,0,.3,0,.5,0,.3,0,.5,.2,.6,.2,.2,.4,.2,.8,.2,.5,0,.9-.1,1.2-.4,.3-.3,.4-.6,.4-1v-.6Zm2.2-2.6h.9v.8c.3-.3,.5-.6,.8-.7,.3-.1,.6-.2,1-.2,.6,0,1,.2,1.3,.5,.3,.3,.4,.8,.4,1.4v3.4h-.9v-3.3c0-.5,0-.8-.3-1-.2-.2-.4-.3-.8-.3s-.4,0-.6,.1c-.2,0-.4,.2-.5,.3-.2,.1-.3,.3-.4,.5,0,.2-.1,.4-.1,.6v3.1h-.9v-5.2Zm6,.7h-.8v-.7h.8v-1.4h.9v1.4h1.4v.7h-1.4v3c0,.3,0,.5,.2,.6,.1,.2,.3,.2,.5,.2s.3,0,.4,0c.1,0,.2,0,.3,0v.7s-.1,0-.3,.1c-.2,0-.3,0-.6,0s-.5,0-.7-.1c-.2,0-.3-.2-.4-.4-.1-.2-.2-.4-.2-.6,0-.2,0-.5,0-.7v-2.8Zm3.2-.7h.9v.8c.2-.3,.4-.5,.7-.7,.3-.2,.5-.2,.8-.2s.3,0,.5,0v.8c-.2,0-.2,0-.3,0,0,0-.1,0-.2,0-.2,0-.3,0-.5,0-.2,0-.3,.1-.5,.3-.1,.1-.3,.3-.4,.4,0,.2-.1,.4-.1,.6v3.1h-.9v-5.2Zm3.7,0h.9v5.2h-.9v-5.2Zm0-2h.9v1h-.9v-1Zm6.7,5.7c0,.5-.3,.9-.7,1.2-.4,.3-.9,.4-1.5,.4s-1.4-.2-1.8-.7c-.4-.5-.6-1.1-.6-2s0-.8,.2-1.2,.3-.6,.5-.9c.2-.2,.5-.4,.8-.5,.3-.1,.6-.2,1-.2s.7,0,1,.2c.3,.1,.5,.3,.7,.5,.2,.2,.3,.5,.4,.8,0,.3,.1,.6,.1,1v.4h-3.8c0,.3,0,.5,0,.7,0,.2,.2,.4,.3,.6,.1,.2,.3,.3,.5,.4,.2,0,.4,.1,.7,.1,.4,0,.8,0,.9-.2,.2-.2,.3-.4,.4-.7h.8Zm-.8-1.6c0-.2,0-.5,0-.7,0-.2-.1-.4-.2-.5-.1-.1-.3-.3-.4-.3-.2,0-.4-.1-.6-.1-.5,0-.8,.1-1.1,.4-.3,.3-.4,.7-.5,1.2h3Zm2-4.1h.9v2.7c.2-.3,.5-.5,.7-.6,.3-.2,.6-.2,1-.2s.7,0,1,.2c.3,.1,.5,.3,.7,.6,.2,.2,.3,.5,.4,.9,0,.3,.1,.7,.1,1.1s0,.8-.2,1.2c-.1,.3-.3,.6-.5,.9-.2,.2-.4,.4-.7,.6-.3,.1-.6,.2-1,.2s-.6,0-.9-.2c-.3-.1-.5-.3-.8-.6v.7h-.9v-7.1Zm.9,4.7c0,.3,0,.6,.1,.9,0,.2,.2,.4,.3,.6,.1,.2,.3,.3,.5,.3,.2,0,.4,.1,.6,.1s.4,0,.6-.1c.2,0,.3-.2,.5-.4,.1-.2,.2-.4,.3-.6,0-.3,.1-.6,.1-1s0-.7-.1-.9c0-.3-.2-.5-.3-.6-.1-.2-.3-.3-.5-.3-.2,0-.3-.1-.5-.1s-.4,0-.6,.1c-.2,0-.4,.2-.5,.3-.1,.1-.2,.3-.3,.6,0,.2-.1,.5-.1,.8v.4Z"/>
  <path class="cls-1" d="M6.5,110.7c.1-.4,.5-.7,1-.7H31.3c.7,0,1.1,.6,1,1.3l-6.5,22.5c-.1,.4-.5,.7-1,.7H1c-.7,0-1.1-.6-1-1.3l6.5-22.5Z"/>
</svg>