<svg width="231" height="56" viewBox="0 0 231 56" fill="none" xmlns="http://www.w3.org/2000/svg">
<path d="M0.79 32.86H3.18C3.70667 32.86 4.14 32.9167 4.48 33.03C4.82667 33.1433 5.09667 33.2967 5.29 33.49C5.49 33.6833 5.62667 33.91 5.7 34.17C5.78 34.4233 5.82 34.6933 5.82 34.98C5.82 35.28 5.78 35.5667 5.7 35.84C5.62 36.1133 5.48 36.3533 5.28 36.56C5.08 36.7667 4.81 36.93 4.47 37.05C4.13 37.17 3.7 37.23 3.18 37.23H1.7V40H0.79V32.86ZM3.17 36.45C3.51667 36.45 3.80333 36.4167 4.03 36.35C4.25667 36.2833 4.43333 36.1867 4.56 36.06C4.68667 35.9333 4.77333 35.7833 4.82 35.61C4.87333 35.43 4.9 35.23 4.9 35.01C4.9 34.7833 4.87333 34.5833 4.82 34.41C4.76667 34.2367 4.67333 34.0933 4.54 33.98C4.40667 33.8667 4.22667 33.7833 4 33.73C3.78 33.67 3.5 33.64 3.16 33.64H1.7V36.45H3.17ZM11.0482 38.55C10.9615 39.05 10.7382 39.4433 10.3782 39.73C10.0249 40.0167 9.51487 40.16 8.8482 40.16C8.06154 40.16 7.4582 39.9233 7.0382 39.45C6.6182 38.97 6.4082 38.3033 6.4082 37.45C6.4082 37.0033 6.4682 36.6067 6.5882 36.26C6.7082 35.9133 6.87487 35.6233 7.0882 35.39C7.3082 35.1567 7.5682 34.98 7.8682 34.86C8.1682 34.7333 8.49487 34.67 8.8482 34.67C9.2482 34.67 9.59154 34.7333 9.8782 34.86C10.1649 34.9867 10.3982 35.1633 10.5782 35.39C10.7649 35.61 10.9015 35.8733 10.9882 36.18C11.0815 36.4867 11.1282 36.8233 11.1282 37.19V37.63H7.2882C7.2882 37.89 7.32154 38.1333 7.3882 38.36C7.46154 38.58 7.56154 38.7733 7.6882 38.94C7.82154 39.1 7.98487 39.2267 8.1782 39.32C8.37154 39.4133 8.59487 39.46 8.8482 39.46C9.28154 39.46 9.5982 39.38 9.7982 39.22C9.9982 39.0533 10.1349 38.83 10.2082 38.55H11.0482ZM10.2582 36.98C10.2582 36.7333 10.2315 36.51 10.1782 36.31C10.1249 36.11 10.0415 35.94 9.9282 35.8C9.81487 35.6533 9.6682 35.54 9.4882 35.46C9.3082 35.38 9.09154 35.34 8.8382 35.34C8.3782 35.34 8.0182 35.48 7.7582 35.76C7.50487 36.04 7.35487 36.4467 7.3082 36.98H10.2582ZM12.2813 34.83H13.1413V35.63C13.3347 35.3433 13.5613 35.1233 13.8213 34.97C14.0813 34.8167 14.358 34.74 14.6513 34.74C14.8313 34.74 14.9847 34.7533 15.1113 34.78L15.0013 35.59C14.9347 35.5767 14.868 35.5667 14.8013 35.56C14.7347 35.5467 14.6613 35.54 14.5813 35.54C14.4213 35.54 14.258 35.57 14.0913 35.63C13.9247 35.6833 13.768 35.7767 13.6213 35.91C13.4747 36.0367 13.358 36.1833 13.2713 36.35C13.1913 36.5167 13.1513 36.71 13.1513 36.93V40H12.2813V34.83ZM16.4058 38.49C16.4658 38.85 16.6158 39.1033 16.8558 39.25C17.1024 39.39 17.4358 39.46 17.8558 39.46C18.2958 39.46 18.6058 39.3867 18.7858 39.24C18.9724 39.0867 19.0658 38.8867 19.0658 38.64C19.0658 38.54 19.0524 38.4467 19.0258 38.36C19.0058 38.2667 18.9624 38.1867 18.8958 38.12C18.8291 38.0467 18.7358 37.9833 18.6158 37.93C18.4958 37.8767 18.3391 37.8333 18.1458 37.8L17.4858 37.7C17.1924 37.6533 16.9358 37.5933 16.7158 37.52C16.4958 37.4467 16.3091 37.3533 16.1558 37.24C16.0024 37.12 15.8858 36.9767 15.8058 36.81C15.7324 36.6367 15.6958 36.43 15.6958 36.19C15.6958 35.95 15.7458 35.7367 15.8458 35.55C15.9524 35.3633 16.0958 35.2067 16.2758 35.08C16.4624 34.9467 16.6791 34.8467 16.9258 34.78C17.1791 34.7067 17.4524 34.67 17.7458 34.67C18.1191 34.67 18.4291 34.7067 18.6758 34.78C18.9291 34.8533 19.1358 34.9533 19.2958 35.08C19.4558 35.2067 19.5791 35.3567 19.6658 35.53C19.7524 35.7033 19.8191 35.8867 19.8658 36.08L19.0758 36.21C19.0291 36.07 18.9758 35.9467 18.9158 35.84C18.8558 35.7333 18.7758 35.6467 18.6758 35.58C18.5758 35.5067 18.4524 35.4533 18.3058 35.42C18.1658 35.38 17.9891 35.36 17.7758 35.36C17.5358 35.36 17.3358 35.3833 17.1758 35.43C17.0158 35.47 16.8858 35.5267 16.7858 35.6C16.6924 35.6733 16.6258 35.7567 16.5858 35.85C16.5458 35.9367 16.5258 36.03 16.5258 36.13C16.5258 36.2367 16.5391 36.3333 16.5658 36.42C16.5924 36.5 16.6424 36.5733 16.7158 36.64C16.7891 36.7 16.8891 36.7533 17.0158 36.8C17.1424 36.8467 17.3058 36.8867 17.5058 36.92L18.2558 37.04C18.8624 37.14 19.2958 37.3133 19.5558 37.56C19.8224 37.8067 19.9558 38.1667 19.9558 38.64C19.9558 38.86 19.9124 39.0633 19.8258 39.25C19.7391 39.43 19.6091 39.59 19.4358 39.73C19.2624 39.8633 19.0458 39.9667 18.7858 40.04C18.5258 40.12 18.2224 40.16 17.8758 40.16C17.5624 40.16 17.2691 40.13 16.9958 40.07C16.7291 40.01 16.4924 39.9167 16.2858 39.79C16.0791 39.6567 15.9124 39.4833 15.7858 39.27C15.6591 39.0567 15.5858 38.7967 15.5658 38.49H16.4058ZM23.2439 40.16C22.8506 40.16 22.5006 40.0967 22.1939 39.97C21.8872 39.8433 21.6272 39.6633 21.4139 39.43C21.2006 39.1967 21.0372 38.91 20.9239 38.57C20.8106 38.23 20.7539 37.85 20.7539 37.43C20.7539 37.01 20.8139 36.63 20.9339 36.29C21.0539 35.95 21.2239 35.66 21.4439 35.42C21.6639 35.18 21.9272 34.9967 22.2339 34.87C22.5472 34.7367 22.8939 34.67 23.2739 34.67C23.6606 34.67 24.0072 34.7333 24.3139 34.86C24.6206 34.9867 24.8806 35.17 25.0939 35.41C25.3139 35.6433 25.4806 35.9267 25.5939 36.26C25.7072 36.5933 25.7639 36.97 25.7639 37.39C25.7639 37.8167 25.7039 38.2 25.5839 38.54C25.4706 38.88 25.3039 39.17 25.0839 39.41C24.8706 39.65 24.6072 39.8367 24.2939 39.97C23.9806 40.0967 23.6306 40.16 23.2439 40.16ZM23.2539 39.44C23.5339 39.44 23.7739 39.39 23.9739 39.29C24.1739 39.19 24.3372 39.05 24.4639 38.87C24.5972 38.69 24.6939 38.4767 24.7539 38.23C24.8139 37.9767 24.8439 37.7 24.8439 37.4C24.8439 37.1067 24.8139 36.8367 24.7539 36.59C24.6939 36.3433 24.5972 36.1333 24.4639 35.96C24.3372 35.78 24.1739 35.64 23.9739 35.54C23.7739 35.44 23.5339 35.39 23.2539 35.39C22.9739 35.39 22.7339 35.44 22.5339 35.54C22.3406 35.64 22.1772 35.78 22.0439 35.96C21.9172 36.1333 21.8239 36.3433 21.7639 36.59C21.7039 36.8367 21.6739 37.11 21.6739 37.41C21.6739 37.71 21.7039 37.9833 21.7639 38.23C21.8239 38.4767 21.9172 38.69 22.0439 38.87C22.1706 39.05 22.3339 39.19 22.5339 39.29C22.7339 39.39 22.9739 39.44 23.2539 39.44ZM26.9298 34.83H27.7898V35.62C28.0431 35.28 28.3231 35.0367 28.6298 34.89C28.9364 34.7433 29.2598 34.67 29.5998 34.67C30.1864 34.67 30.6198 34.83 30.8998 35.15C31.1864 35.47 31.3298 35.94 31.3298 36.56V40H30.4598V36.73C30.4598 36.25 30.3731 35.9133 30.1998 35.72C30.0264 35.52 29.7598 35.42 29.3998 35.42C29.2064 35.42 29.0131 35.4533 28.8198 35.52C28.6331 35.5867 28.4631 35.6933 28.3098 35.84C28.1431 35.9867 28.0164 36.1433 27.9298 36.31C27.8431 36.47 27.7998 36.68 27.7998 36.94V40H26.9298V34.83Z" fill="#484848"/>
<path d="M7.79975 0.5H31.6639C31.9977 0.5 32.2377 0.820735 32.1437 1.14094L25.68 23.1409C25.6174 23.3538 25.4221 23.5 25.2003 23.5H1.33607C1.00233 23.5 0.762268 23.1793 0.856347 22.8591L7.32002 0.859055C7.38256 0.646195 7.57789 0.5 7.79975 0.5Z" stroke="#484848"/>
<path d="M67.89 31.86H68.86L71.63 39H70.63L69.88 37.01H66.82L66.07 39H65.11L67.89 31.86ZM69.6 36.21L68.34 32.9L67.1 36.21H69.6ZM72.2806 33.83H73.1506V37.09C73.1506 37.57 73.2273 37.91 73.3806 38.11C73.5406 38.31 73.7973 38.41 74.1506 38.41C74.5373 38.41 74.8873 38.27 75.2006 37.99C75.3673 37.8433 75.494 37.69 75.5806 37.53C75.6673 37.3633 75.7106 37.15 75.7106 36.89V33.83H76.5806V39H75.7206V38.2C75.4673 38.5333 75.194 38.7767 74.9006 38.93C74.6073 39.0833 74.2906 39.16 73.9506 39.16C73.364 39.16 72.9373 39.0033 72.6706 38.69C72.4106 38.37 72.2806 37.8933 72.2806 37.26V33.83ZM78.2161 34.52H77.4161V33.83H78.2161V32.42H79.0861V33.83H80.4561V34.52H79.0861V37.55C79.0861 37.8033 79.1428 38.0067 79.2561 38.16C79.3694 38.3133 79.5428 38.39 79.7761 38.39C79.9228 38.39 80.0494 38.38 80.1561 38.36C80.2694 38.34 80.3728 38.3133 80.4661 38.28L80.6161 38.95C80.4828 38.9967 80.3361 39.0333 80.1761 39.06C80.0228 39.0933 79.8394 39.11 79.6261 39.11C79.3328 39.11 79.0961 39.0667 78.9161 38.98C78.7361 38.8933 78.5928 38.77 78.4861 38.61C78.3794 38.45 78.3061 38.26 78.2661 38.04C78.2328 37.82 78.2161 37.58 78.2161 37.32V34.52ZM83.5564 39.16C83.1631 39.16 82.8131 39.0967 82.5064 38.97C82.1997 38.8433 81.9397 38.6633 81.7264 38.43C81.5131 38.1967 81.3497 37.91 81.2364 37.57C81.1231 37.23 81.0664 36.85 81.0664 36.43C81.0664 36.01 81.1264 35.63 81.2464 35.29C81.3664 34.95 81.5364 34.66 81.7564 34.42C81.9764 34.18 82.2397 33.9967 82.5464 33.87C82.8597 33.7367 83.2064 33.67 83.5864 33.67C83.9731 33.67 84.3197 33.7333 84.6264 33.86C84.9331 33.9867 85.1931 34.17 85.4064 34.41C85.6264 34.6433 85.7931 34.9267 85.9064 35.26C86.0197 35.5933 86.0764 35.97 86.0764 36.39C86.0764 36.8167 86.0164 37.2 85.8964 37.54C85.7831 37.88 85.6164 38.17 85.3964 38.41C85.1831 38.65 84.9197 38.8367 84.6064 38.97C84.2931 39.0967 83.9431 39.16 83.5564 39.16ZM83.5664 38.44C83.8464 38.44 84.0864 38.39 84.2864 38.29C84.4864 38.19 84.6497 38.05 84.7764 37.87C84.9097 37.69 85.0064 37.4767 85.0664 37.23C85.1264 36.9767 85.1564 36.7 85.1564 36.4C85.1564 36.1067 85.1264 35.8367 85.0664 35.59C85.0064 35.3433 84.9097 35.1333 84.7764 34.96C84.6497 34.78 84.4864 34.64 84.2864 34.54C84.0864 34.44 83.8464 34.39 83.5664 34.39C83.2864 34.39 83.0464 34.44 82.8464 34.54C82.6531 34.64 82.4897 34.78 82.3564 34.96C82.2297 35.1333 82.1364 35.3433 82.0764 35.59C82.0164 35.8367 81.9864 36.11 81.9864 36.41C81.9864 36.71 82.0164 36.9833 82.0764 37.23C82.1364 37.4767 82.2297 37.69 82.3564 37.87C82.4831 38.05 82.6464 38.19 82.8464 38.29C83.0464 38.39 83.2864 38.44 83.5664 38.44Z" fill="#484848"/>
<g style="mix-blend-mode:multiply">
<path d="M70.8312 0.723819C70.9543 0.295244 71.3464 0 71.7923 0H95.6154C96.2805 0 96.7602 0.637034 96.5766 1.27618L90.1121 23.7725C89.989 24.201 89.5969 24.4963 89.151 24.4963H65.3278C64.6628 24.4963 64.1831 23.8592 64.3667 23.2201L70.8312 0.723819Z" fill="#FF7B7B"/>
</g>
<path d="M139.89 31.86H140.86L143.63 39H142.63L141.88 37.01H138.82L138.07 39H137.11L139.89 31.86ZM141.6 36.21L140.34 32.9L139.1 36.21H141.6ZM144.281 33.83H145.151V37.09C145.151 37.57 145.227 37.91 145.381 38.11C145.541 38.31 145.797 38.41 146.151 38.41C146.537 38.41 146.887 38.27 147.201 37.99C147.367 37.8433 147.494 37.69 147.581 37.53C147.667 37.3633 147.711 37.15 147.711 36.89V33.83H148.581V39H147.721V38.2C147.467 38.5333 147.194 38.7767 146.901 38.93C146.607 39.0833 146.291 39.16 145.951 39.16C145.364 39.16 144.937 39.0033 144.671 38.69C144.411 38.37 144.281 37.8933 144.281 37.26V33.83ZM150.216 34.52H149.416V33.83H150.216V32.42H151.086V33.83H152.456V34.52H151.086V37.55C151.086 37.8033 151.143 38.0067 151.256 38.16C151.369 38.3133 151.543 38.39 151.776 38.39C151.923 38.39 152.049 38.38 152.156 38.36C152.269 38.34 152.373 38.3133 152.466 38.28L152.616 38.95C152.483 38.9967 152.336 39.0333 152.176 39.06C152.023 39.0933 151.839 39.11 151.626 39.11C151.333 39.11 151.096 39.0667 150.916 38.98C150.736 38.8933 150.593 38.77 150.486 38.61C150.379 38.45 150.306 38.26 150.266 38.04C150.233 37.82 150.216 37.58 150.216 37.32V34.52ZM155.556 39.16C155.163 39.16 154.813 39.0967 154.506 38.97C154.2 38.8433 153.94 38.6633 153.726 38.43C153.513 38.1967 153.35 37.91 153.236 37.57C153.123 37.23 153.066 36.85 153.066 36.43C153.066 36.01 153.126 35.63 153.246 35.29C153.366 34.95 153.536 34.66 153.756 34.42C153.976 34.18 154.24 33.9967 154.546 33.87C154.86 33.7367 155.206 33.67 155.586 33.67C155.973 33.67 156.32 33.7333 156.626 33.86C156.933 33.9867 157.193 34.17 157.406 34.41C157.626 34.6433 157.793 34.9267 157.906 35.26C158.02 35.5933 158.076 35.97 158.076 36.39C158.076 36.8167 158.016 37.2 157.896 37.54C157.783 37.88 157.616 38.17 157.396 38.41C157.183 38.65 156.92 38.8367 156.606 38.97C156.293 39.0967 155.943 39.16 155.556 39.16ZM155.566 38.44C155.846 38.44 156.086 38.39 156.286 38.29C156.486 38.19 156.65 38.05 156.776 37.87C156.91 37.69 157.006 37.4767 157.066 37.23C157.126 36.9767 157.156 36.7 157.156 36.4C157.156 36.1067 157.126 35.8367 157.066 35.59C157.006 35.3433 156.91 35.1333 156.776 34.96C156.65 34.78 156.486 34.64 156.286 34.54C156.086 34.44 155.846 34.39 155.566 34.39C155.286 34.39 155.046 34.44 154.846 34.54C154.653 34.64 154.49 34.78 154.356 34.96C154.23 35.1333 154.136 35.3433 154.076 35.59C154.016 35.8367 153.986 36.11 153.986 36.41C153.986 36.71 154.016 36.9833 154.076 37.23C154.136 37.4767 154.23 37.69 154.356 37.87C154.483 38.05 154.646 38.19 154.846 38.29C155.046 38.39 155.286 38.44 155.566 38.44ZM161.469 33.83H162.329V34.62C162.562 34.3 162.819 34.0633 163.099 33.91C163.379 33.75 163.665 33.67 163.959 33.67C164.345 33.67 164.655 33.7533 164.889 33.92C165.129 34.0867 165.305 34.3267 165.419 34.64C165.652 34.32 165.919 34.08 166.219 33.92C166.519 33.7533 166.839 33.67 167.179 33.67C167.685 33.67 168.075 33.81 168.349 34.09C168.629 34.3633 168.769 34.8067 168.769 35.42V39H167.899V35.62C167.899 35.3867 167.879 35.1933 167.839 35.04C167.799 34.88 167.739 34.7567 167.659 34.67C167.585 34.5767 167.492 34.5133 167.379 34.48C167.265 34.44 167.135 34.42 166.989 34.42C166.835 34.42 166.675 34.4467 166.509 34.5C166.342 34.5533 166.179 34.6467 166.019 34.78C165.885 34.8933 165.775 35.03 165.689 35.19C165.602 35.35 165.559 35.5333 165.559 35.74V39H164.689V35.63C164.689 35.1767 164.609 34.8633 164.449 34.69C164.295 34.51 164.072 34.42 163.779 34.42C163.439 34.42 163.119 34.56 162.819 34.84C162.705 34.9467 162.595 35.0833 162.489 35.25C162.389 35.4167 162.339 35.64 162.339 35.92V39H161.469V33.83ZM170.102 33.83H170.972V39H170.102V33.83ZM170.072 31.86H171.002V32.87H170.072V31.86ZM172.628 34.52H171.828V33.83H172.628V32.42H173.498V33.83H174.868V34.52H173.498V37.55C173.498 37.8033 173.555 38.0067 173.668 38.16C173.782 38.3133 173.955 38.39 174.188 38.39C174.335 38.39 174.462 38.38 174.568 38.36C174.682 38.34 174.785 38.3133 174.878 38.28L175.028 38.95C174.895 38.9967 174.748 39.0333 174.588 39.06C174.435 39.0933 174.252 39.11 174.038 39.11C173.745 39.11 173.508 39.0667 173.328 38.98C173.148 38.8933 173.005 38.77 172.898 38.61C172.792 38.45 172.718 38.26 172.678 38.04C172.645 37.82 172.628 37.58 172.628 37.32V34.52ZM178.142 31.86H179.062V34.88H182.672V31.86H183.592V39H182.672V35.74H179.062V39H178.142V31.86ZM185.033 40.1C185.219 40.1667 185.406 40.2 185.593 40.2C185.806 40.2 185.969 40.1433 186.083 40.03C186.203 39.9233 186.319 39.72 186.433 39.42L186.643 38.87L184.453 33.83H185.463L187.093 37.89L188.583 33.83H189.543L187.283 39.49C187.189 39.7233 187.096 39.9267 187.003 40.1C186.909 40.28 186.806 40.4333 186.693 40.56C186.579 40.6867 186.443 40.78 186.283 40.84C186.129 40.9067 185.939 40.94 185.713 40.94C185.553 40.94 185.409 40.93 185.283 40.91C185.156 40.89 185.016 40.8533 184.863 40.8L185.033 40.1ZM190.287 31.86H191.157V34.55C191.371 34.27 191.617 34.0533 191.897 33.9C192.177 33.7467 192.507 33.67 192.887 33.67C193.254 33.67 193.574 33.7367 193.847 33.87C194.127 34.0033 194.357 34.19 194.537 34.43C194.724 34.67 194.861 34.9567 194.947 35.29C195.041 35.6167 195.087 35.98 195.087 36.38C195.087 36.8067 195.034 37.1933 194.927 37.54C194.821 37.88 194.667 38.17 194.467 38.41C194.267 38.65 194.024 38.8367 193.737 38.97C193.457 39.0967 193.141 39.16 192.787 39.16C192.487 39.16 192.194 39.1 191.907 38.98C191.627 38.8533 191.374 38.64 191.147 38.34V39H190.287V31.86ZM191.147 36.56C191.147 36.8933 191.184 37.18 191.257 37.42C191.337 37.6533 191.444 37.8467 191.577 38C191.711 38.1533 191.871 38.2667 192.057 38.34C192.244 38.4067 192.447 38.44 192.667 38.44C192.881 38.44 193.077 38.4033 193.257 38.33C193.444 38.2567 193.604 38.14 193.737 37.98C193.871 37.8133 193.974 37.6 194.047 37.34C194.127 37.08 194.167 36.7633 194.167 36.39C194.167 36.01 194.124 35.6933 194.037 35.44C193.957 35.18 193.851 34.9733 193.717 34.82C193.584 34.6667 193.431 34.5567 193.257 34.49C193.091 34.4233 192.917 34.39 192.737 34.39C192.511 34.39 192.301 34.43 192.107 34.51C191.914 34.5833 191.744 34.6967 191.597 34.85C191.457 34.9967 191.347 35.1867 191.267 35.42C191.187 35.6467 191.147 35.91 191.147 36.21V36.56ZM196.254 33.83H197.114V34.63C197.307 34.3433 197.534 34.1233 197.794 33.97C198.054 33.8167 198.331 33.74 198.624 33.74C198.804 33.74 198.957 33.7533 199.084 33.78L198.974 34.59C198.907 34.5767 198.841 34.5667 198.774 34.56C198.707 34.5467 198.634 34.54 198.554 34.54C198.394 34.54 198.231 34.57 198.064 34.63C197.897 34.6833 197.741 34.7767 197.594 34.91C197.447 35.0367 197.331 35.1833 197.244 35.35C197.164 35.5167 197.124 35.71 197.124 35.93V39H196.254V33.83ZM199.936 33.83H200.806V39H199.936V33.83ZM199.906 31.86H200.836V32.87H199.906V31.86ZM205.922 38.26C205.709 38.5467 205.462 38.77 205.182 38.93C204.902 39.0833 204.572 39.16 204.192 39.16C203.812 39.16 203.482 39.09 203.202 38.95C202.929 38.81 202.702 38.62 202.522 38.38C202.342 38.1333 202.209 37.8433 202.122 37.51C202.036 37.1767 201.992 36.82 201.992 36.44C201.992 36.0133 202.046 35.63 202.152 35.29C202.259 34.9433 202.409 34.65 202.602 34.41C202.802 34.17 203.042 33.9867 203.322 33.86C203.609 33.7333 203.932 33.67 204.292 33.67C204.566 33.67 204.842 33.7267 205.122 33.84C205.402 33.9467 205.662 34.1533 205.902 34.46V31.86H206.772V39H205.922V38.26ZM205.932 36.26C205.932 35.8467 205.886 35.5267 205.792 35.3C205.706 35.0667 205.559 34.87 205.352 34.71C205.206 34.59 205.056 34.5067 204.902 34.46C204.756 34.4133 204.592 34.39 204.412 34.39C204.199 34.39 203.999 34.4267 203.812 34.5C203.632 34.5733 203.472 34.6933 203.332 34.86C203.199 35.02 203.092 35.23 203.012 35.49C202.939 35.7433 202.902 36.0533 202.902 36.42C202.902 36.8 202.942 37.12 203.022 37.38C203.109 37.64 203.219 37.8467 203.352 38C203.492 38.1533 203.646 38.2633 203.812 38.33C203.986 38.3967 204.162 38.43 204.342 38.43C204.536 38.43 204.709 38.4067 204.862 38.36C205.016 38.3133 205.169 38.2333 205.322 38.12C205.522 37.96 205.672 37.76 205.772 37.52C205.879 37.28 205.932 36.9767 205.932 36.61V36.26ZM208.281 35.64H211.221V36.51H208.281V35.64ZM137.97 52H137.07L139.34 44.66H140.24L137.97 52ZM141.101 44.86H145.721V45.67H142.021V47.91H145.521V48.73H142.021V51.19H145.911L145.761 52H141.101V44.86ZM146.938 44.86H147.808V52H146.938V44.86ZM153.634 50.55C153.547 51.05 153.324 51.4433 152.964 51.73C152.611 52.0167 152.101 52.16 151.434 52.16C150.647 52.16 150.044 51.9233 149.624 51.45C149.204 50.97 148.994 50.3033 148.994 49.45C148.994 49.0033 149.054 48.6067 149.174 48.26C149.294 47.9133 149.461 47.6233 149.674 47.39C149.894 47.1567 150.154 46.98 150.454 46.86C150.754 46.7333 151.081 46.67 151.434 46.67C151.834 46.67 152.177 46.7333 152.464 46.86C152.751 46.9867 152.984 47.1633 153.164 47.39C153.351 47.61 153.487 47.8733 153.574 48.18C153.667 48.4867 153.714 48.8233 153.714 49.19V49.63H149.874C149.874 49.89 149.907 50.1333 149.974 50.36C150.047 50.58 150.147 50.7733 150.274 50.94C150.407 51.1 150.571 51.2267 150.764 51.32C150.957 51.4133 151.181 51.46 151.434 51.46C151.867 51.46 152.184 51.38 152.384 51.22C152.584 51.0533 152.721 50.83 152.794 50.55H153.634ZM152.844 48.98C152.844 48.7333 152.817 48.51 152.764 48.31C152.711 48.11 152.627 47.94 152.514 47.8C152.401 47.6533 152.254 47.54 152.074 47.46C151.894 47.38 151.677 47.34 151.424 47.34C150.964 47.34 150.604 47.48 150.344 47.76C150.091 48.04 149.941 48.4467 149.894 48.98H152.844ZM154.867 44.86H155.727V49.02L158.147 46.83H159.197L157.347 48.56L159.397 52H158.407L156.697 49.07L155.727 49.94V52H154.867V44.86ZM160.499 47.52H159.699V46.83H160.499V45.42H161.369V46.83H162.739V47.52H161.369V50.55C161.369 50.8033 161.426 51.0067 161.539 51.16C161.653 51.3133 161.826 51.39 162.059 51.39C162.206 51.39 162.333 51.38 162.439 51.36C162.553 51.34 162.656 51.3133 162.749 51.28L162.899 51.95C162.766 51.9967 162.619 52.0333 162.459 52.06C162.306 52.0933 162.123 52.11 161.909 52.11C161.616 52.11 161.379 52.0667 161.199 51.98C161.019 51.8933 160.876 51.77 160.769 51.61C160.663 51.45 160.589 51.26 160.549 51.04C160.516 50.82 160.499 50.58 160.499 50.32V47.52ZM163.666 46.83H164.526V47.63C164.719 47.3433 164.946 47.1233 165.206 46.97C165.466 46.8167 165.743 46.74 166.036 46.74C166.216 46.74 166.369 46.7533 166.496 46.78L166.386 47.59C166.319 47.5767 166.253 47.5667 166.186 47.56C166.119 47.5467 166.046 47.54 165.966 47.54C165.806 47.54 165.643 47.57 165.476 47.63C165.309 47.6833 165.153 47.7767 165.006 47.91C164.859 48.0367 164.743 48.1833 164.656 48.35C164.576 48.5167 164.536 48.71 164.536 48.93V52H163.666V46.83ZM169.345 52.16C168.952 52.16 168.602 52.0967 168.295 51.97C167.989 51.8433 167.729 51.6633 167.515 51.43C167.302 51.1967 167.139 50.91 167.025 50.57C166.912 50.23 166.855 49.85 166.855 49.43C166.855 49.01 166.915 48.63 167.035 48.29C167.155 47.95 167.325 47.66 167.545 47.42C167.765 47.18 168.029 46.9967 168.335 46.87C168.649 46.7367 168.995 46.67 169.375 46.67C169.762 46.67 170.109 46.7333 170.415 46.86C170.722 46.9867 170.982 47.17 171.195 47.41C171.415 47.6433 171.582 47.9267 171.695 48.26C171.809 48.5933 171.865 48.97 171.865 49.39C171.865 49.8167 171.805 50.2 171.685 50.54C171.572 50.88 171.405 51.17 171.185 51.41C170.972 51.65 170.709 51.8367 170.395 51.97C170.082 52.0967 169.732 52.16 169.345 52.16ZM169.355 51.44C169.635 51.44 169.875 51.39 170.075 51.29C170.275 51.19 170.439 51.05 170.565 50.87C170.699 50.69 170.795 50.4767 170.855 50.23C170.915 49.9767 170.945 49.7 170.945 49.4C170.945 49.1067 170.915 48.8367 170.855 48.59C170.795 48.3433 170.699 48.1333 170.565 47.96C170.439 47.78 170.275 47.64 170.075 47.54C169.875 47.44 169.635 47.39 169.355 47.39C169.075 47.39 168.835 47.44 168.635 47.54C168.442 47.64 168.279 47.78 168.145 47.96C168.019 48.1333 167.925 48.3433 167.865 48.59C167.805 48.8367 167.775 49.11 167.775 49.41C167.775 49.71 167.805 49.9833 167.865 50.23C167.925 50.4767 168.019 50.69 168.145 50.87C168.272 51.05 168.435 51.19 168.635 51.29C168.835 51.39 169.075 51.44 169.355 51.44ZM176.251 51.29C176.065 51.5167 175.828 51.7133 175.541 51.88C175.255 52.04 174.898 52.12 174.471 52.12C174.211 52.12 173.971 52.0867 173.751 52.02C173.538 51.96 173.351 51.8667 173.191 51.74C173.038 51.6067 172.918 51.4433 172.831 51.25C172.745 51.0567 172.701 50.83 172.701 50.57C172.701 50.2167 172.775 49.93 172.921 49.71C173.075 49.49 173.275 49.3167 173.521 49.19C173.775 49.0633 174.058 48.9733 174.371 48.92C174.685 48.8667 175.008 48.8333 175.341 48.82L176.231 48.79V48.59C176.231 48.15 176.138 47.8333 175.951 47.64C175.765 47.4467 175.461 47.35 175.041 47.35C174.628 47.35 174.325 47.42 174.131 47.56C173.938 47.6933 173.811 47.88 173.751 48.12L172.961 48.03C173.055 47.5567 173.278 47.2133 173.631 47C173.985 46.78 174.465 46.67 175.071 46.67C175.445 46.67 175.758 46.7167 176.011 46.81C176.271 46.8967 176.481 47.0233 176.641 47.19C176.801 47.3567 176.915 47.5633 176.981 47.81C177.055 48.0567 177.091 48.3333 177.091 48.64V52H176.251V51.29ZM176.231 49.41L175.401 49.44C175.048 49.4533 174.755 49.4867 174.521 49.54C174.288 49.5933 174.101 49.6667 173.961 49.76C173.828 49.8467 173.731 49.9567 173.671 50.09C173.618 50.2233 173.591 50.3767 173.591 50.55C173.591 50.81 173.668 51.02 173.821 51.18C173.981 51.3333 174.241 51.41 174.601 51.41C175.115 51.41 175.515 51.2833 175.801 51.03C176.088 50.7767 176.231 50.43 176.231 49.99V49.41ZM178.412 46.83H179.272V47.62C179.526 47.28 179.806 47.0367 180.112 46.89C180.419 46.7433 180.742 46.67 181.082 46.67C181.669 46.67 182.102 46.83 182.382 47.15C182.669 47.47 182.812 47.94 182.812 48.56V52H181.942V48.73C181.942 48.25 181.856 47.9133 181.682 47.72C181.509 47.52 181.242 47.42 180.882 47.42C180.689 47.42 180.496 47.4533 180.302 47.52C180.116 47.5867 179.946 47.6933 179.792 47.84C179.626 47.9867 179.499 48.1433 179.412 48.31C179.326 48.47 179.282 48.68 179.282 48.94V52H178.412V46.83ZM184.415 47.52H183.615V46.83H184.415V45.42H185.285V46.83H186.655V47.52H185.285V50.55C185.285 50.8033 185.342 51.0067 185.455 51.16C185.569 51.3133 185.742 51.39 185.975 51.39C186.122 51.39 186.249 51.38 186.355 51.36C186.469 51.34 186.572 51.3133 186.665 51.28L186.815 51.95C186.682 51.9967 186.535 52.0333 186.375 52.06C186.222 52.0933 186.039 52.11 185.825 52.11C185.532 52.11 185.295 52.0667 185.115 51.98C184.935 51.8933 184.792 51.77 184.685 51.61C184.579 51.45 184.505 51.26 184.465 51.04C184.432 50.82 184.415 50.58 184.415 50.32V47.52ZM187.582 46.83H188.442V47.63C188.635 47.3433 188.862 47.1233 189.122 46.97C189.382 46.8167 189.659 46.74 189.952 46.74C190.132 46.74 190.285 46.7533 190.412 46.78L190.302 47.59C190.235 47.5767 190.169 47.5667 190.102 47.56C190.035 47.5467 189.962 47.54 189.882 47.54C189.722 47.54 189.559 47.57 189.392 47.63C189.225 47.6833 189.069 47.7767 188.922 47.91C188.775 48.0367 188.659 48.1833 188.572 48.35C188.492 48.5167 188.452 48.71 188.452 48.93V52H187.582V46.83ZM191.264 46.83H192.134V52H191.264V46.83ZM191.234 44.86H192.164V45.87H191.234V44.86ZM197.96 50.55C197.874 51.05 197.65 51.4433 197.29 51.73C196.937 52.0167 196.427 52.16 195.76 52.16C194.974 52.16 194.37 51.9233 193.95 51.45C193.53 50.97 193.32 50.3033 193.32 49.45C193.32 49.0033 193.38 48.6067 193.5 48.26C193.62 47.9133 193.787 47.6233 194 47.39C194.22 47.1567 194.48 46.98 194.78 46.86C195.08 46.7333 195.407 46.67 195.76 46.67C196.16 46.67 196.504 46.7333 196.79 46.86C197.077 46.9867 197.31 47.1633 197.49 47.39C197.677 47.61 197.814 47.8733 197.9 48.18C197.994 48.4867 198.04 48.8233 198.04 49.19V49.63H194.2C194.2 49.89 194.234 50.1333 194.3 50.36C194.374 50.58 194.474 50.7733 194.6 50.94C194.734 51.1 194.897 51.2267 195.09 51.32C195.284 51.4133 195.507 51.46 195.76 51.46C196.194 51.46 196.51 51.38 196.71 51.22C196.91 51.0533 197.047 50.83 197.12 50.55H197.96ZM197.17 48.98C197.17 48.7333 197.144 48.51 197.09 48.31C197.037 48.11 196.954 47.94 196.84 47.8C196.727 47.6533 196.58 47.54 196.4 47.46C196.22 47.38 196.004 47.34 195.75 47.34C195.29 47.34 194.93 47.48 194.67 47.76C194.417 48.04 194.267 48.4467 194.22 48.98H197.17ZM199.193 44.86H200.063V47.55C200.277 47.27 200.523 47.0533 200.803 46.9C201.083 46.7467 201.413 46.67 201.793 46.67C202.16 46.67 202.48 46.7367 202.753 46.87C203.033 47.0033 203.263 47.19 203.443 47.43C203.63 47.67 203.767 47.9567 203.853 48.29C203.947 48.6167 203.993 48.98 203.993 49.38C203.993 49.8067 203.94 50.1933 203.833 50.54C203.727 50.88 203.573 51.17 203.373 51.41C203.173 51.65 202.93 51.8367 202.643 51.97C202.363 52.0967 202.047 52.16 201.693 52.16C201.393 52.16 201.1 52.1 200.813 51.98C200.533 51.8533 200.28 51.64 200.053 51.34V52H199.193V44.86ZM200.053 49.56C200.053 49.8933 200.09 50.18 200.163 50.42C200.243 50.6533 200.35 50.8467 200.483 51C200.617 51.1533 200.777 51.2667 200.963 51.34C201.15 51.4067 201.353 51.44 201.573 51.44C201.787 51.44 201.983 51.4033 202.163 51.33C202.35 51.2567 202.51 51.14 202.643 50.98C202.777 50.8133 202.88 50.6 202.953 50.34C203.033 50.08 203.073 49.7633 203.073 49.39C203.073 49.01 203.03 48.6933 202.943 48.44C202.863 48.18 202.757 47.9733 202.623 47.82C202.49 47.6667 202.337 47.5567 202.163 47.49C201.997 47.4233 201.823 47.39 201.643 47.39C201.417 47.39 201.207 47.43 201.013 47.51C200.82 47.5833 200.65 47.6967 200.503 47.85C200.363 47.9967 200.253 48.1867 200.173 48.42C200.093 48.6467 200.053 48.91 200.053 49.21V49.56Z" fill="#484848"/>
<g style="mix-blend-mode:multiply">
<path d="M143.831 0.723819C143.954 0.295244 144.346 0 144.792 0H168.615C169.28 0 169.76 0.637034 169.577 1.27618L163.112 23.7725C162.989 24.201 162.597 24.4963 162.151 24.4963H138.328C137.663 24.4963 137.183 23.8592 137.367 23.2201L143.831 0.723819Z" fill="#F6A219"/>
</g>
</svg>
