<?xml version="1.0" encoding="UTF-8"?><svg id="b" xmlns="http://www.w3.org/2000/svg" viewBox="0 0 261.03 38.01"><g id="c"><g><path d="M248.15,35c-1.59,0-2.57-.64-3.11-1.18-.54-.54-1.19-1.52-1.19-3.13v-4.7c-.33,.06-.68,.09-1.04,.09h-1.44c-.36,0-.7-.03-1.03-.09v4.7c0,1.6-.65,2.58-1.2,3.13-.54,.54-1.52,1.18-3.11,1.18h-5.38c-1.59,0-2.57-.64-3.11-1.18-.13-.13-.27-.29-.41-.48-.14,.19-.27,.35-.41,.48-.53,.53-1.51,1.18-3.11,1.18h-15.37c-1.6,0-2.59-.65-3.13-1.2h-.01s0,0-.01,0c-.56,.55-1.54,1.2-3.13,1.2h-16.75c-1.59,0-2.57-.64-3.11-1.18-.23-.23-.47-.53-.68-.91-.21,.39-.45,.69-.68,.91-.53,.53-1.51,1.18-3.11,1.18h-5.59c-1.6,0-2.58-.65-3.13-1.2-.53-.53-1.18-1.51-1.18-3.11v-5h-.01v5c0,1.59-.64,2.57-1.18,3.11-.56,.55-1.54,1.2-3.13,1.2h-5.59c-1.59,0-2.57-.64-3.11-1.18-.23-.23-.47-.53-.68-.92-.2,.38-.44,.68-.66,.9-.56,.55-1.54,1.2-3.13,1.2h-5.42c-1.6,0-2.58-.65-3.12-1.19-.53-.53-1.18-1.51-1.18-3.11v-3.36l-.16-.19v3.55c0,1.6-.65,2.58-1.2,3.13-.53,.53-1.51,1.18-3.11,1.18h-5.41c-1.59,0-2.57-.64-3.11-1.18-.1-.1-.21-.22-.31-.36-.1,.13-.2,.24-.3,.34-.56,.55-1.54,1.2-3.13,1.2h-16.75c-1.59,0-2.57-.64-3.11-1.18-.55-.56-1.19-1.54-1.19-3.13v-.31c-.49,.81-1.1,1.51-1.84,2.13-2.03,1.68-4.85,2.49-8.61,2.49h-12.16c-1.59,0-2.57-.64-3.11-1.18-.13-.13-.27-.29-.41-.48-.14,.19-.27,.35-.41,.48-.53,.53-1.51,1.18-3.11,1.18h-15.37c-1.6,0-2.59-.65-3.13-1.19h-.01s0,0-.01,0c-.56,.55-1.54,1.2-3.13,1.2h-16.75c-1.59,0-2.57-.64-3.11-1.18-.23-.23-.47-.53-.68-.91-.21,.39-.45,.69-.68,.91-.53,.53-1.51,1.18-3.11,1.18h-5.59c-1.6,0-2.58-.65-3.13-1.19-.53-.53-1.18-1.51-1.18-3.11v-5h-.01v5c0,1.59-.64,2.57-1.18,3.11-.56,.55-1.54,1.2-3.13,1.2H7.31c-1.59,0-2.57-.64-3.11-1.18-.55-.56-1.19-1.54-1.19-3.13V7.31c0-1.58,.64-2.56,1.17-3.1,.56-.56,1.54-1.2,3.13-1.2h5.59c1.59,0,2.57,.64,3.11,1.18,.56,.56,1.19,1.54,1.19,3.13v4.82h.01V7.31c0-1.59,.65-2.58,1.19-3.12,.53-.54,1.52-1.19,3.12-1.19h5.59c1.6,0,2.59,.65,3.13,1.2,.22,.22,.46,.51,.66,.9,.2-.38,.44-.67,.65-.89,.56-.56,1.54-1.2,3.13-1.2h16.75c1.59,0,2.57,.64,3.11,1.18,0,.01,.02,.02,.03,.03l.02-.02c.53-.54,1.52-1.19,3.12-1.19h15.37c1.6,0,2.59,.65,3.13,1.19,.13,.13,.26,.28,.39,.46,.13-.18,.26-.33,.38-.46,.56-.56,1.54-1.2,3.13-1.2h12.16c3.76,0,6.58,.82,8.61,2.49,.74,.61,1.35,1.32,1.84,2.13v-.31c0-1.58,.64-2.56,1.17-3.1,.56-.56,1.54-1.2,3.13-1.2h16.75c1.59,0,2.57,.64,3.11,1.18,.1,.1,.21,.22,.31,.36,.1-.13,.2-.24,.29-.34,.56-.56,1.54-1.2,3.13-1.2h3.75c.88,0,1.69,.16,2.4,.48,.73,.32,1.41,.84,2.01,1.54l1.73,1.97c.08-1.41,.67-2.3,1.18-2.81,.53-.54,1.52-1.19,3.12-1.19h5.42c1.59,0,2.57,.64,3.11,1.18,.23,.23,.47,.53,.68,.92,.2-.38,.44-.67,.66-.89,.56-.56,1.54-1.2,3.13-1.2h5.59c1.59,0,2.57,.64,3.11,1.18,.56,.56,1.19,1.54,1.19,3.13v4.82h.01V7.31c0-1.59,.65-2.58,1.19-3.12,.53-.54,1.52-1.19,3.12-1.19h5.59c1.6,0,2.59,.65,3.13,1.19,.22,.22,.46,.52,.66,.9,.2-.38,.44-.67,.65-.89,.56-.56,1.54-1.2,3.13-1.2h16.75c1.59,0,2.57,.64,3.11,1.18,0,0,.02,.02,.03,.03l.02-.02c.53-.54,1.52-1.19,3.12-1.19h15.37c1.6,0,2.59,.65,3.13,1.2,.13,.13,.26,.28,.39,.46,.13-.18,.26-.33,.38-.45,.56-.56,1.54-1.2,3.13-1.2h5.81c.98,0,1.86,.25,2.61,.75,.66,.44,1.21,1.06,1.66,1.86l1.43,2.59,1.39-2.55c.47-.84,1.03-1.46,1.67-1.89,.76-.5,1.64-.76,2.63-.76h5.84c1.59,0,2.57,.64,3.11,1.18,.55,.56,1.2,1.54,1.2,3.13V30.7c0,1.6-.65,2.58-1.19,3.12-.55,.54-1.53,1.18-3.11,1.18h-5.56ZM52.6,22.3c.92,.21,1.55,.66,1.95,1.05,.02-.02,.04-.04,.06-.07,.53-.53,1.51-1.18,3.11-1.18h.56v-6.11h-.56c-1.6,0-2.59-.65-3.13-1.19-.03-.03-.06-.06-.09-.09-.39,.37-.98,.78-1.83,.99,.09,.36,.14,.76,.14,1.22v3.86c0,.59-.09,1.09-.23,1.52Zm150.52,0c.92,.21,1.55,.66,1.95,1.05,.02-.02,.04-.04,.06-.06,.53-.53,1.51-1.18,3.11-1.18h.56v-6.11h-.56c-1.6,0-2.59-.65-3.13-1.19-.03-.03-.06-.06-.08-.09-.39,.37-.98,.78-1.82,.99,.09,.36,.14,.76,.14,1.22v3.86c0,.59-.09,1.09-.23,1.52Zm20.49-.2c1.27,0,2.15,.41,2.73,.85v-7.81c-.57,.44-1.45,.85-2.73,.85h-.49v6.11h.49Zm-150.52,0c1.27,0,2.15,.41,2.73,.85v-7.81c-.57,.44-1.45,.85-2.73,.85h-.49v6.11h.49Zm51.86,.2c.57,.13,1.03,.35,1.39,.59v-7.77c-.34,.23-.77,.44-1.31,.57,.09,.36,.14,.76,.14,1.22v3.86c0,.59-.09,1.09-.23,1.52Z" style="fill:#fff;"/><path d="M253.71,6.01c.46,0,.79,.1,.99,.31,.21,.21,.31,.54,.31,.99V30.7c0,.46-.1,.79-.31,.99-.21,.2-.53,.31-.99,.31h-5.56c-.46,0-.79-.1-.99-.31-.21-.2-.31-.53-.31-.99v-12.7l-2.13,3.93c-.22,.41-.48,.7-.78,.88-.3,.18-.68,.27-1.14,.27h-1.44c-.46,0-.84-.09-1.14-.27-.3-.18-.56-.47-.78-.88l-2.13-3.93v12.7c0,.46-.1,.79-.31,.99-.21,.2-.53,.31-.99,.31h-5.38c-.46,0-.79-.1-.99-.31-.2-.2-.31-.53-.31-.99V7.31c0-.46,.1-.79,.31-.99,.21-.2,.54-.31,.99-.31h5.81c.38,0,.7,.09,.95,.25,.25,.17,.49,.45,.7,.83l3.25,5.88c.12,.22,.22,.37,.31,.47,.09,.1,.2,.14,.34,.14h.33c.14,0,.26-.05,.34-.14,.09-.1,.19-.25,.31-.47l3.21-5.88c.22-.38,.45-.66,.7-.83,.25-.17,.57-.25,.96-.25h5.84m-30.1,0c.46,0,.79,.1,.99,.31,.21,.21,.31,.54,.31,.99v4.37c0,.46-.1,.79-.31,.99-.2,.2-.53,.31-.99,.31h-3.5v12.13h3.5c.46,0,.79,.1,.99,.31,.21,.2,.31,.54,.31,.99v4.29c0,.46-.1,.79-.31,.99-.2,.2-.53,.31-.99,.31h-15.37c-.46,0-.79-.1-.99-.31-.21-.2-.31-.53-.31-.99v-4.29c0-.46,.1-.79,.31-.99,.2-.2,.53-.31,.99-.31h3.57V12.98h-3.57c-.46,0-.79-.1-.99-.31-.21-.2-.31-.54-.31-.99V7.31c0-.46,.1-.79,.31-.99,.2-.2,.53-.31,.99-.31h15.37m-21.65,0c.46,0,.79,.1,.99,.31,.2,.21,.31,.54,.31,.99v4.22c0,.46-.1,.79-.31,.99-.21,.21-.54,.31-.99,.31h-9.96v2.78h7.04c.46,0,.79,.1,.99,.31,.21,.21,.31,.54,.31,.99v3.86c0,.46-.1,.79-.31,.99-.2,.2-.53,.31-.99,.31h-7.04v3.1h9.96c.46,0,.79,.1,.99,.31,.2,.2,.31,.54,.31,.99v4.22c0,.46-.1,.79-.31,.99-.21,.2-.54,.31-.99,.31h-16.75c-.46,0-.79-.1-.99-.31-.2-.2-.31-.53-.31-.99V7.31c0-.46,.1-.79,.31-.99,.21-.2,.54-.31,.99-.31h16.75m-24.32,0c.46,0,.79,.1,.99,.31,.21,.21,.31,.54,.31,.99V30.7c0,.46-.1,.79-.31,.99-.2,.2-.53,.31-.99,.31h-5.59c-.46,0-.79-.1-.99-.31-.21-.2-.31-.53-.31-.99v-8.01h-6.03v8.01c0,.46-.1,.79-.31,.99-.21,.2-.54,.31-.99,.31h-5.59c-.46,0-.79-.1-.99-.31-.2-.2-.31-.53-.31-.99V7.31c0-.46,.1-.79,.31-.99,.21-.2,.54-.31,.99-.31h5.59c.46,0,.79,.1,.99,.31,.2,.21,.31,.54,.31,.99v7.83h6.03V7.31c0-.46,.1-.79,.31-.99,.2-.2,.53-.31,.99-.31h5.59m-27.39,0c.46,0,.79,.1,.99,.31,.2,.21,.31,.54,.31,.99V30.7c0,.46-.1,.79-.31,.99-.21,.2-.54,.31-.99,.31h-5.42c-.46,0-.79-.1-.99-.31-.21-.2-.31-.53-.31-.99v-4.44l-6.17-7.47v11.91c0,.46-.1,.79-.31,.99-.2,.2-.53,.31-.99,.31h-5.41c-.46,0-.79-.1-.99-.31-.2-.2-.31-.53-.31-.99V7.31c0-.46,.1-.79,.31-.99,.21-.2,.54-.31,.99-.31h3.75c.46,0,.85,.07,1.17,.22,.32,.14,.64,.4,.95,.76l7,8.01V7.31c0-.46,.1-.79,.31-.99,.2-.2,.53-.31,.99-.31h5.42m-26.45,0c.46,0,.79,.1,.99,.31,.2,.21,.31,.54,.31,.99v4.22c0,.46-.1,.79-.31,.99-.21,.21-.54,.31-.99,.31h-9.96v2.78h7.04c.46,0,.79,.1,.99,.31,.21,.21,.31,.54,.31,.99v3.86c0,.46-.1,.79-.31,.99-.2,.2-.53,.31-.99,.31h-7.04v3.1h9.96c.46,0,.79,.1,.99,.31,.2,.2,.31,.54,.31,.99v4.22c0,.46-.1,.79-.31,.99-.21,.2-.54,.31-.99,.31h-16.75c-.46,0-.79-.1-.99-.31-.2-.2-.31-.53-.31-.99V7.31c0-.46,.1-.79,.31-.99,.21-.2,.54-.31,.99-.31h16.75m-31.51,0c3.01,0,5.24,.6,6.7,1.8,1.45,1.2,2.18,3.06,2.18,5.56v11.26c0,2.5-.73,4.36-2.18,5.56-1.46,1.2-3.69,1.8-6.7,1.8h-12.16c-.46,0-.79-.1-.99-.31-.2-.2-.31-.53-.31-.99V7.31c0-.46,.1-.79,.31-.99,.21-.2,.54-.31,.99-.31h12.16m-5.27,19.16h4.3c.58,0,1-.14,1.28-.43,.28-.29,.41-.73,.41-1.33V14.64c0-.6-.14-1.04-.41-1.32-.28-.28-.7-.42-1.28-.42h-4.3v12.27m-13.93-19.16c.46,0,.79,.1,.99,.31,.21,.21,.31,.54,.31,.99v4.37c0,.46-.1,.79-.31,.99-.2,.2-.53,.31-.99,.31h-3.5v12.13h3.5c.46,0,.79,.1,.99,.31,.21,.2,.31,.54,.31,.99v4.29c0,.46-.1,.79-.31,.99-.2,.2-.53,.31-.99,.31h-15.37c-.46,0-.79-.1-.99-.31-.21-.2-.31-.53-.31-.99v-4.29c0-.46,.1-.79,.31-.99,.2-.2,.53-.31,.99-.31h3.57V12.98h-3.57c-.46,0-.79-.1-.99-.31-.21-.2-.31-.54-.31-.99V7.31c0-.46,.1-.79,.31-.99,.2-.2,.53-.31,.99-.31h15.37m-21.65,0c.46,0,.79,.1,.99,.31,.2,.21,.31,.54,.31,.99v4.22c0,.46-.1,.79-.31,.99-.21,.21-.54,.31-.99,.31h-9.96v2.78h7.04c.46,0,.79,.1,.99,.31,.21,.21,.31,.54,.31,.99v3.86c0,.46-.1,.79-.31,.99-.2,.2-.53,.31-.99,.31h-7.04v3.1h9.96c.46,0,.79,.1,.99,.31,.2,.2,.31,.54,.31,.99v4.22c0,.46-.1,.79-.31,.99-.21,.2-.54,.31-.99,.31h-16.75c-.46,0-.79-.1-.99-.31-.2-.2-.31-.53-.31-.99V7.31c0-.46,.1-.79,.31-.99,.21-.2,.54-.31,.99-.31h16.75m-24.32,0c.46,0,.79,.1,.99,.31,.21,.21,.31,.54,.31,.99V30.7c0,.46-.1,.79-.31,.99-.2,.2-.53,.31-.99,.31h-5.59c-.46,0-.79-.1-.99-.31-.21-.2-.31-.53-.31-.99v-8.01h-6.03v8.01c0,.46-.1,.79-.31,.99-.21,.2-.54,.31-.99,.31H7.31c-.46,0-.79-.1-.99-.31-.2-.2-.31-.53-.31-.99V7.31c0-.46,.1-.79,.31-.99,.21-.2,.54-.31,.99-.31h5.59c.46,0,.79,.1,.99,.31,.2,.21,.31,.54,.31,.99v7.83h6.03V7.31c0-.46,.1-.79,.31-.99,.2-.2,.53-.31,.99-.31h5.59M253.71,0h-5.84c-1.56,0-3.04,.43-4.28,1.25-.52,.35-.99,.76-1.42,1.22-.43-.47-.89-.87-1.4-1.21-1.26-.83-2.74-1.27-4.3-1.27h-5.81c-1.45,0-2.61,.34-3.52,.81-.91-.47-2.07-.81-3.52-.81h-15.37c-1.26,0-2.3,.26-3.14,.63-.84-.37-1.88-.63-3.14-.63h-16.75c-1.6,0-2.84,.42-3.79,.96-.94-.54-2.19-.96-3.79-.96h-5.59c-1.91,0-3.32,.6-4.31,1.29-.99-.69-2.4-1.29-4.31-1.29h-5.59c-1.6,0-2.85,.42-3.79,.96-.94-.54-2.19-.96-3.79-.96h-5.42c-2.41,0-4.02,.95-5,1.84-.56-.45-1.16-.82-1.8-1.1-1.1-.49-2.32-.74-3.62-.74h-3.75c-1.4,0-2.53,.32-3.43,.76-.89-.44-2.02-.76-3.43-.76h-16.75c-2.61,0-4.29,1.12-5.23,2.05l-.02,.02-.02,.02c-.06,.06-.12,.13-.19,.2-2.42-1.53-5.54-2.3-9.3-2.3h-12.16c-1.45,0-2.61,.34-3.52,.81-.91-.47-2.07-.81-3.52-.81h-15.37c-1.26,0-2.3,.26-3.14,.63-.84-.37-1.88-.63-3.14-.63h-16.75c-1.6,0-2.84,.42-3.79,.96-.94-.54-2.19-.96-3.79-.96h-5.59c-1.91,0-3.32,.6-4.31,1.29-.99-.69-2.4-1.29-4.31-1.29H7.31C4.7,0,3.03,1.12,2.08,2.05l-.02,.02-.02,.02C1.11,3.04,0,4.71,0,7.31V30.7c0,2.61,1.12,4.29,2.05,5.23,.97,.97,2.65,2.08,5.26,2.08h5.59c1.91,0,3.32-.6,4.31-1.29,.98,.68,2.39,1.29,4.32,1.29h5.59c1.6,0,2.85-.42,3.79-.96,.95,.54,2.19,.96,3.78,.96h16.75c1.25,0,2.29-.26,3.14-.63,.84,.37,1.88,.63,3.14,.63h15.37c1.45,0,2.61-.34,3.52-.81,.91,.47,2.07,.81,3.51,.81h12.16c3.76,0,6.88-.77,9.3-2.29,.07,.07,.13,.14,.2,.21,.97,.97,2.65,2.08,5.26,2.08h16.75c1.4,0,2.54-.32,3.43-.77,.9,.45,2.03,.77,3.42,.77h5.41c1.96,0,3.39-.63,4.38-1.34,.98,.7,2.42,1.34,4.39,1.34h5.42c1.6,0,2.85-.42,3.79-.96,.95,.54,2.19,.96,3.79,.96h5.59c1.91,0,3.32-.6,4.31-1.29,.98,.68,2.39,1.29,4.32,1.29h5.59c1.6,0,2.85-.42,3.79-.96,.95,.54,2.19,.96,3.78,.96h16.75c1.25,0,2.29-.26,3.14-.63,.84,.37,1.88,.63,3.14,.63h15.37c1.45,0,2.61-.34,3.52-.81,.91,.47,2.07,.81,3.51,.81h5.38c2.61,0,4.29-1.12,5.23-2.05,.27-.27,.56-.6,.83-1,.27,.4,.56,.73,.83,1,.94,.94,2.62,2.05,5.23,2.05h5.56c2.61,0,4.29-1.12,5.23-2.05,.95-.94,2.09-2.62,2.09-5.26V7.31c0-2.62-1.13-4.3-2.07-5.25-.96-.95-2.63-2.07-5.25-2.07h0Z" style="fill:#ff8b00;"/></g></g></svg>