<svg width="126" height="173" viewBox="0 0 126 173" fill="none" xmlns="http://www.w3.org/2000/svg">
<path d="M2.96 41.06L1.37 42.02L0.99 41.37L3.05 40.09H3.86V47H2.96V41.06ZM8.93453 39.86H11.3245C11.8512 39.86 12.2845 39.9167 12.6245 40.03C12.9712 40.1433 13.2412 40.2967 13.4345 40.49C13.6345 40.6833 13.7712 40.91 13.8445 41.17C13.9245 41.4233 13.9645 41.6933 13.9645 41.98C13.9645 42.28 13.9245 42.5667 13.8445 42.84C13.7645 43.1133 13.6245 43.3533 13.4245 43.56C13.2245 43.7667 12.9545 43.93 12.6145 44.05C12.2745 44.17 11.8445 44.23 11.3245 44.23H9.84453V47H8.93453V39.86ZM11.3145 43.45C11.6612 43.45 11.9479 43.4167 12.1745 43.35C12.4012 43.2833 12.5779 43.1867 12.7045 43.06C12.8312 42.9333 12.9179 42.7833 12.9645 42.61C13.0179 42.43 13.0445 42.23 13.0445 42.01C13.0445 41.7833 13.0179 41.5833 12.9645 41.41C12.9112 41.2367 12.8179 41.0933 12.6845 40.98C12.5512 40.8667 12.3712 40.7833 12.1445 40.73C11.9245 40.67 11.6445 40.64 11.3045 40.64H9.84453V43.45H11.3145ZM19.1927 45.55C19.1061 46.05 18.8827 46.4433 18.5227 46.73C18.1694 47.0167 17.6594 47.16 16.9927 47.16C16.2061 47.16 15.6027 46.9233 15.1827 46.45C14.7627 45.97 14.5527 45.3033 14.5527 44.45C14.5527 44.0033 14.6127 43.6067 14.7327 43.26C14.8527 42.9133 15.0194 42.6233 15.2327 42.39C15.4527 42.1567 15.7127 41.98 16.0127 41.86C16.3127 41.7333 16.6394 41.67 16.9927 41.67C17.3927 41.67 17.7361 41.7333 18.0227 41.86C18.3094 41.9867 18.5427 42.1633 18.7227 42.39C18.9094 42.61 19.0461 42.8733 19.1327 43.18C19.2261 43.4867 19.2727 43.8233 19.2727 44.19V44.63H15.4327C15.4327 44.89 15.4661 45.1333 15.5327 45.36C15.6061 45.58 15.7061 45.7733 15.8327 45.94C15.9661 46.1 16.1294 46.2267 16.3227 46.32C16.5161 46.4133 16.7394 46.46 16.9927 46.46C17.4261 46.46 17.7427 46.38 17.9427 46.22C18.1427 46.0533 18.2794 45.83 18.3527 45.55H19.1927ZM18.4027 43.98C18.4027 43.7333 18.3761 43.51 18.3227 43.31C18.2694 43.11 18.1861 42.94 18.0727 42.8C17.9594 42.6533 17.8127 42.54 17.6327 42.46C17.4527 42.38 17.2361 42.34 16.9827 42.34C16.5227 42.34 16.1627 42.48 15.9027 42.76C15.6494 43.04 15.4994 43.4467 15.4527 43.98H18.4027ZM20.4259 41.83H21.2859V42.63C21.4792 42.3433 21.7059 42.1233 21.9659 41.97C22.2259 41.8167 22.5025 41.74 22.7959 41.74C22.9759 41.74 23.1292 41.7533 23.2559 41.78L23.1459 42.59C23.0792 42.5767 23.0125 42.5667 22.9459 42.56C22.8792 42.5467 22.8059 42.54 22.7259 42.54C22.5659 42.54 22.4025 42.57 22.2359 42.63C22.0692 42.6833 21.9125 42.7767 21.7659 42.91C21.6192 43.0367 21.5025 43.1833 21.4159 43.35C21.3359 43.5167 21.2959 43.71 21.2959 43.93V47H20.4259V41.83ZM24.5503 45.49C24.6103 45.85 24.7603 46.1033 25.0003 46.25C25.247 46.39 25.5803 46.46 26.0003 46.46C26.4403 46.46 26.7503 46.3867 26.9303 46.24C27.117 46.0867 27.2103 45.8867 27.2103 45.64C27.2103 45.54 27.197 45.4467 27.1703 45.36C27.1503 45.2667 27.107 45.1867 27.0403 45.12C26.9736 45.0467 26.8803 44.9833 26.7603 44.93C26.6403 44.8767 26.4836 44.8333 26.2903 44.8L25.6303 44.7C25.337 44.6533 25.0803 44.5933 24.8603 44.52C24.6403 44.4467 24.4536 44.3533 24.3003 44.24C24.147 44.12 24.0303 43.9767 23.9503 43.81C23.877 43.6367 23.8403 43.43 23.8403 43.19C23.8403 42.95 23.8903 42.7367 23.9903 42.55C24.097 42.3633 24.2403 42.2067 24.4203 42.08C24.607 41.9467 24.8236 41.8467 25.0703 41.78C25.3236 41.7067 25.597 41.67 25.8903 41.67C26.2636 41.67 26.5736 41.7067 26.8203 41.78C27.0736 41.8533 27.2803 41.9533 27.4403 42.08C27.6003 42.2067 27.7236 42.3567 27.8103 42.53C27.897 42.7033 27.9636 42.8867 28.0103 43.08L27.2203 43.21C27.1736 43.07 27.1203 42.9467 27.0603 42.84C27.0003 42.7333 26.9203 42.6467 26.8203 42.58C26.7203 42.5067 26.597 42.4533 26.4503 42.42C26.3103 42.38 26.1336 42.36 25.9203 42.36C25.6803 42.36 25.4803 42.3833 25.3203 42.43C25.1603 42.47 25.0303 42.5267 24.9303 42.6C24.837 42.6733 24.7703 42.7567 24.7303 42.85C24.6903 42.9367 24.6703 43.03 24.6703 43.13C24.6703 43.2367 24.6836 43.3333 24.7103 43.42C24.737 43.5 24.787 43.5733 24.8603 43.64C24.9336 43.7 25.0336 43.7533 25.1603 43.8C25.287 43.8467 25.4503 43.8867 25.6503 43.92L26.4003 44.04C27.007 44.14 27.4403 44.3133 27.7003 44.56C27.967 44.8067 28.1003 45.1667 28.1003 45.64C28.1003 45.86 28.057 46.0633 27.9703 46.25C27.8836 46.43 27.7536 46.59 27.5803 46.73C27.407 46.8633 27.1903 46.9667 26.9303 47.04C26.6703 47.12 26.367 47.16 26.0203 47.16C25.707 47.16 25.4136 47.13 25.1403 47.07C24.8736 47.01 24.637 46.9167 24.4303 46.79C24.2236 46.6567 24.057 46.4833 23.9303 46.27C23.8036 46.0567 23.7303 45.7967 23.7103 45.49H24.5503ZM31.3884 47.16C30.9951 47.16 30.6451 47.0967 30.3384 46.97C30.0318 46.8433 29.7718 46.6633 29.5584 46.43C29.3451 46.1967 29.1818 45.91 29.0684 45.57C28.9551 45.23 28.8984 44.85 28.8984 44.43C28.8984 44.01 28.9584 43.63 29.0784 43.29C29.1984 42.95 29.3684 42.66 29.5884 42.42C29.8084 42.18 30.0718 41.9967 30.3784 41.87C30.6918 41.7367 31.0384 41.67 31.4184 41.67C31.8051 41.67 32.1518 41.7333 32.4584 41.86C32.7651 41.9867 33.0251 42.17 33.2384 42.41C33.4584 42.6433 33.6251 42.9267 33.7384 43.26C33.8518 43.5933 33.9084 43.97 33.9084 44.39C33.9084 44.8167 33.8484 45.2 33.7284 45.54C33.6151 45.88 33.4484 46.17 33.2284 46.41C33.0151 46.65 32.7518 46.8367 32.4384 46.97C32.1251 47.0967 31.7751 47.16 31.3884 47.16ZM31.3984 46.44C31.6784 46.44 31.9184 46.39 32.1184 46.29C32.3184 46.19 32.4818 46.05 32.6084 45.87C32.7418 45.69 32.8384 45.4767 32.8984 45.23C32.9584 44.9767 32.9884 44.7 32.9884 44.4C32.9884 44.1067 32.9584 43.8367 32.8984 43.59C32.8384 43.3433 32.7418 43.1333 32.6084 42.96C32.4818 42.78 32.3184 42.64 32.1184 42.54C31.9184 42.44 31.6784 42.39 31.3984 42.39C31.1184 42.39 30.8784 42.44 30.6784 42.54C30.4851 42.64 30.3218 42.78 30.1884 42.96C30.0618 43.1333 29.9684 43.3433 29.9084 43.59C29.8484 43.8367 29.8184 44.11 29.8184 44.41C29.8184 44.71 29.8484 44.9833 29.9084 45.23C29.9684 45.4767 30.0618 45.69 30.1884 45.87C30.3151 46.05 30.4784 46.19 30.6784 46.29C30.8784 46.39 31.1184 46.44 31.3984 46.44ZM35.0743 41.83H35.9343V42.62C36.1876 42.28 36.4676 42.0367 36.7743 41.89C37.081 41.7433 37.4043 41.67 37.7443 41.67C38.331 41.67 38.7643 41.83 39.0443 42.15C39.331 42.47 39.4743 42.94 39.4743 43.56V47H38.6043V43.73C38.6043 43.25 38.5176 42.9133 38.3443 42.72C38.171 42.52 37.9043 42.42 37.5443 42.42C37.351 42.42 37.1576 42.4533 36.9643 42.52C36.7776 42.5867 36.6076 42.6933 36.4543 42.84C36.2876 42.9867 36.161 43.1433 36.0743 43.31C35.9876 43.47 35.9443 43.68 35.9443 43.94V47H35.0743V41.83ZM45.324 47.16C44.9307 47.16 44.5807 47.0967 44.274 46.97C43.9673 46.8433 43.7073 46.6633 43.494 46.43C43.2807 46.1967 43.1173 45.91 43.004 45.57C42.8907 45.23 42.834 44.85 42.834 44.43C42.834 44.01 42.894 43.63 43.014 43.29C43.134 42.95 43.304 42.66 43.524 42.42C43.744 42.18 44.0073 41.9967 44.314 41.87C44.6273 41.7367 44.974 41.67 45.354 41.67C45.7407 41.67 46.0873 41.7333 46.394 41.86C46.7007 41.9867 46.9607 42.17 47.174 42.41C47.394 42.6433 47.5607 42.9267 47.674 43.26C47.7873 43.5933 47.844 43.97 47.844 44.39C47.844 44.8167 47.784 45.2 47.664 45.54C47.5507 45.88 47.384 46.17 47.164 46.41C46.9507 46.65 46.6873 46.8367 46.374 46.97C46.0607 47.0967 45.7107 47.16 45.324 47.16ZM45.334 46.44C45.614 46.44 45.854 46.39 46.054 46.29C46.254 46.19 46.4173 46.05 46.544 45.87C46.6773 45.69 46.774 45.4767 46.834 45.23C46.894 44.9767 46.924 44.7 46.924 44.4C46.924 44.1067 46.894 43.8367 46.834 43.59C46.774 43.3433 46.6773 43.1333 46.544 42.96C46.4173 42.78 46.254 42.64 46.054 42.54C45.854 42.44 45.614 42.39 45.334 42.39C45.054 42.39 44.814 42.44 44.614 42.54C44.4207 42.64 44.2573 42.78 44.124 42.96C43.9973 43.1333 43.904 43.3433 43.844 43.59C43.784 43.8367 43.754 44.11 43.754 44.41C43.754 44.71 43.784 44.9833 43.844 45.23C43.904 45.4767 43.9973 45.69 44.124 45.87C44.2507 46.05 44.414 46.19 44.614 46.29C44.814 46.39 45.054 46.44 45.334 46.44ZM49.0098 39.86H49.8798V42.6C50.1332 42.2733 50.4098 42.0367 50.7098 41.89C51.0165 41.7433 51.3398 41.67 51.6798 41.67C52.2665 41.67 52.6998 41.83 52.9798 42.15C53.2665 42.47 53.4098 42.94 53.4098 43.56V47H52.5298V43.73C52.5298 43.25 52.4432 42.9133 52.2698 42.72C52.1032 42.52 51.8398 42.42 51.4798 42.42C51.2865 42.42 51.0932 42.4533 50.8998 42.52C50.7132 42.5867 50.5432 42.6933 50.3898 42.84C50.2232 42.9867 50.0965 43.1433 50.0098 43.31C49.9232 43.47 49.8798 43.68 49.8798 43.94V47H49.0098V39.86ZM54.713 41.83H55.573V42.62C55.8263 42.28 56.1063 42.0367 56.413 41.89C56.7196 41.7433 57.043 41.67 57.383 41.67C57.9696 41.67 58.403 41.83 58.683 42.15C58.9696 42.47 59.113 42.94 59.113 43.56V47H58.243V43.73C58.243 43.25 58.1563 42.9133 57.983 42.72C57.8096 42.52 57.543 42.42 57.183 42.42C56.9896 42.42 56.7963 42.4533 56.603 42.52C56.4163 42.5867 56.2463 42.6933 56.093 42.84C55.9263 42.9867 55.7996 43.1433 55.713 43.31C55.6263 43.47 55.583 43.68 55.583 43.94V47H54.713V41.83ZM64.8861 45.55C64.7994 46.05 64.5761 46.4433 64.2161 46.73C63.8628 47.0167 63.3528 47.16 62.6861 47.16C61.8994 47.16 61.2961 46.9233 60.8761 46.45C60.4561 45.97 60.2461 45.3033 60.2461 44.45C60.2461 44.0033 60.3061 43.6067 60.4261 43.26C60.5461 42.9133 60.7128 42.6233 60.9261 42.39C61.1461 42.1567 61.4061 41.98 61.7061 41.86C62.0061 41.7333 62.3328 41.67 62.6861 41.67C63.0861 41.67 63.4294 41.7333 63.7161 41.86C64.0028 41.9867 64.2361 42.1633 64.4161 42.39C64.6028 42.61 64.7394 42.8733 64.8261 43.18C64.9194 43.4867 64.9661 43.8233 64.9661 44.19V44.63H61.1261C61.1261 44.89 61.1594 45.1333 61.2261 45.36C61.2994 45.58 61.3994 45.7733 61.5261 45.94C61.6594 46.1 61.8228 46.2267 62.0161 46.32C62.2094 46.4133 62.4328 46.46 62.6861 46.46C63.1194 46.46 63.4361 46.38 63.6361 46.22C63.8361 46.0533 63.9728 45.83 64.0461 45.55H64.8861ZM64.0961 43.98C64.0961 43.7333 64.0694 43.51 64.0161 43.31C63.9628 43.11 63.8794 42.94 63.7661 42.8C63.6528 42.6533 63.5061 42.54 63.3261 42.46C63.1461 42.38 62.9294 42.34 62.6761 42.34C62.2161 42.34 61.8561 42.48 61.5961 42.76C61.3428 43.04 61.1928 43.4467 61.1461 43.98H64.0961ZM70.5658 39.86H71.5358L74.3058 47H73.3058L72.5558 45.01H69.4958L68.7458 47H67.7858L70.5658 39.86ZM72.2758 44.21L71.0158 40.9L69.7758 44.21H72.2758ZM74.9564 41.83H75.8264V45.09C75.8264 45.57 75.9031 45.91 76.0564 46.11C76.2164 46.31 76.4731 46.41 76.8264 46.41C77.2131 46.41 77.5631 46.27 77.8764 45.99C78.0431 45.8433 78.1697 45.69 78.2564 45.53C78.3431 45.3633 78.3864 45.15 78.3864 44.89V41.83H79.2564V47H78.3964V46.2C78.1431 46.5333 77.8697 46.7767 77.5764 46.93C77.2831 47.0833 76.9664 47.16 76.6264 47.16C76.0397 47.16 75.6131 47.0033 75.3464 46.69C75.0864 46.37 74.9564 45.8933 74.9564 45.26V41.83ZM80.8919 42.52H80.0919V41.83H80.8919V40.42H81.7619V41.83H83.1319V42.52H81.7619V45.55C81.7619 45.8033 81.8185 46.0067 81.9319 46.16C82.0452 46.3133 82.2185 46.39 82.4519 46.39C82.5985 46.39 82.7252 46.38 82.8319 46.36C82.9452 46.34 83.0485 46.3133 83.1419 46.28L83.2919 46.95C83.1585 46.9967 83.0119 47.0333 82.8519 47.06C82.6985 47.0933 82.5152 47.11 82.3019 47.11C82.0085 47.11 81.7719 47.0667 81.5919 46.98C81.4119 46.8933 81.2685 46.77 81.1619 46.61C81.0552 46.45 80.9819 46.26 80.9419 46.04C80.9085 45.82 80.8919 45.58 80.8919 45.32V42.52ZM86.2322 47.16C85.8389 47.16 85.4889 47.0967 85.1822 46.97C84.8755 46.8433 84.6155 46.6633 84.4022 46.43C84.1889 46.1967 84.0255 45.91 83.9122 45.57C83.7989 45.23 83.7422 44.85 83.7422 44.43C83.7422 44.01 83.8022 43.63 83.9222 43.29C84.0422 42.95 84.2122 42.66 84.4322 42.42C84.6522 42.18 84.9155 41.9967 85.2222 41.87C85.5355 41.7367 85.8822 41.67 86.2622 41.67C86.6489 41.67 86.9955 41.7333 87.3022 41.86C87.6089 41.9867 87.8689 42.17 88.0822 42.41C88.3022 42.6433 88.4689 42.9267 88.5822 43.26C88.6955 43.5933 88.7522 43.97 88.7522 44.39C88.7522 44.8167 88.6922 45.2 88.5722 45.54C88.4589 45.88 88.2922 46.17 88.0722 46.41C87.8589 46.65 87.5955 46.8367 87.2822 46.97C86.9689 47.0967 86.6189 47.16 86.2322 47.16ZM86.2422 46.44C86.5222 46.44 86.7622 46.39 86.9622 46.29C87.1622 46.19 87.3255 46.05 87.4522 45.87C87.5855 45.69 87.6822 45.4767 87.7422 45.23C87.8022 44.9767 87.8322 44.7 87.8322 44.4C87.8322 44.1067 87.8022 43.8367 87.7422 43.59C87.6822 43.3433 87.5855 43.1333 87.4522 42.96C87.3255 42.78 87.1622 42.64 86.9622 42.54C86.7622 42.44 86.5222 42.39 86.2422 42.39C85.9622 42.39 85.7222 42.44 85.5222 42.54C85.3289 42.64 85.1655 42.78 85.0322 42.96C84.9055 43.1333 84.8122 43.3433 84.7522 43.59C84.6922 43.8367 84.6622 44.11 84.6622 44.41C84.6622 44.71 84.6922 44.9833 84.7522 45.23C84.8122 45.4767 84.9055 45.69 85.0322 45.87C85.1589 46.05 85.3222 46.19 85.5222 46.29C85.7222 46.39 85.9622 46.44 86.2422 46.44Z" fill="#484848"/>
<path d="M2.96 103.06L1.37 104.02L0.99 103.37L3.05 102.09H3.86V109H2.96V103.06ZM8.93453 101.86H11.3245C11.8512 101.86 12.2845 101.917 12.6245 102.03C12.9712 102.143 13.2412 102.297 13.4345 102.49C13.6345 102.683 13.7712 102.91 13.8445 103.17C13.9245 103.423 13.9645 103.693 13.9645 103.98C13.9645 104.28 13.9245 104.567 13.8445 104.84C13.7645 105.113 13.6245 105.353 13.4245 105.56C13.2245 105.767 12.9545 105.93 12.6145 106.05C12.2745 106.17 11.8445 106.23 11.3245 106.23H9.84453V109H8.93453V101.86ZM11.3145 105.45C11.6612 105.45 11.9479 105.417 12.1745 105.35C12.4012 105.283 12.5779 105.187 12.7045 105.06C12.8312 104.933 12.9179 104.783 12.9645 104.61C13.0179 104.43 13.0445 104.23 13.0445 104.01C13.0445 103.783 13.0179 103.583 12.9645 103.41C12.9112 103.237 12.8179 103.093 12.6845 102.98C12.5512 102.867 12.3712 102.783 12.1445 102.73C11.9245 102.67 11.6445 102.64 11.3045 102.64H9.84453V105.45H11.3145ZM19.1927 107.55C19.1061 108.05 18.8827 108.443 18.5227 108.73C18.1694 109.017 17.6594 109.16 16.9927 109.16C16.2061 109.16 15.6027 108.923 15.1827 108.45C14.7627 107.97 14.5527 107.303 14.5527 106.45C14.5527 106.003 14.6127 105.607 14.7327 105.26C14.8527 104.913 15.0194 104.623 15.2327 104.39C15.4527 104.157 15.7127 103.98 16.0127 103.86C16.3127 103.733 16.6394 103.67 16.9927 103.67C17.3927 103.67 17.7361 103.733 18.0227 103.86C18.3094 103.987 18.5427 104.163 18.7227 104.39C18.9094 104.61 19.0461 104.873 19.1327 105.18C19.2261 105.487 19.2727 105.823 19.2727 106.19V106.63H15.4327C15.4327 106.89 15.4661 107.133 15.5327 107.36C15.6061 107.58 15.7061 107.773 15.8327 107.94C15.9661 108.1 16.1294 108.227 16.3227 108.32C16.5161 108.413 16.7394 108.46 16.9927 108.46C17.4261 108.46 17.7427 108.38 17.9427 108.22C18.1427 108.053 18.2794 107.83 18.3527 107.55H19.1927ZM18.4027 105.98C18.4027 105.733 18.3761 105.51 18.3227 105.31C18.2694 105.11 18.1861 104.94 18.0727 104.8C17.9594 104.653 17.8127 104.54 17.6327 104.46C17.4527 104.38 17.2361 104.34 16.9827 104.34C16.5227 104.34 16.1627 104.48 15.9027 104.76C15.6494 105.04 15.4994 105.447 15.4527 105.98H18.4027ZM20.4259 103.83H21.2859V104.63C21.4792 104.343 21.7059 104.123 21.9659 103.97C22.2259 103.817 22.5025 103.74 22.7959 103.74C22.9759 103.74 23.1292 103.753 23.2559 103.78L23.1459 104.59C23.0792 104.577 23.0125 104.567 22.9459 104.56C22.8792 104.547 22.8059 104.54 22.7259 104.54C22.5659 104.54 22.4025 104.57 22.2359 104.63C22.0692 104.683 21.9125 104.777 21.7659 104.91C21.6192 105.037 21.5025 105.183 21.4159 105.35C21.3359 105.517 21.2959 105.71 21.2959 105.93V109H20.4259V103.83ZM24.5503 107.49C24.6103 107.85 24.7603 108.103 25.0003 108.25C25.247 108.39 25.5803 108.46 26.0003 108.46C26.4403 108.46 26.7503 108.387 26.9303 108.24C27.117 108.087 27.2103 107.887 27.2103 107.64C27.2103 107.54 27.197 107.447 27.1703 107.36C27.1503 107.267 27.107 107.187 27.0403 107.12C26.9736 107.047 26.8803 106.983 26.7603 106.93C26.6403 106.877 26.4836 106.833 26.2903 106.8L25.6303 106.7C25.337 106.653 25.0803 106.593 24.8603 106.52C24.6403 106.447 24.4536 106.353 24.3003 106.24C24.147 106.12 24.0303 105.977 23.9503 105.81C23.877 105.637 23.8403 105.43 23.8403 105.19C23.8403 104.95 23.8903 104.737 23.9903 104.55C24.097 104.363 24.2403 104.207 24.4203 104.08C24.607 103.947 24.8236 103.847 25.0703 103.78C25.3236 103.707 25.597 103.67 25.8903 103.67C26.2636 103.67 26.5736 103.707 26.8203 103.78C27.0736 103.853 27.2803 103.953 27.4403 104.08C27.6003 104.207 27.7236 104.357 27.8103 104.53C27.897 104.703 27.9636 104.887 28.0103 105.08L27.2203 105.21C27.1736 105.07 27.1203 104.947 27.0603 104.84C27.0003 104.733 26.9203 104.647 26.8203 104.58C26.7203 104.507 26.597 104.453 26.4503 104.42C26.3103 104.38 26.1336 104.36 25.9203 104.36C25.6803 104.36 25.4803 104.383 25.3203 104.43C25.1603 104.47 25.0303 104.527 24.9303 104.6C24.837 104.673 24.7703 104.757 24.7303 104.85C24.6903 104.937 24.6703 105.03 24.6703 105.13C24.6703 105.237 24.6836 105.333 24.7103 105.42C24.737 105.5 24.787 105.573 24.8603 105.64C24.9336 105.7 25.0336 105.753 25.1603 105.8C25.287 105.847 25.4503 105.887 25.6503 105.92L26.4003 106.04C27.007 106.14 27.4403 106.313 27.7003 106.56C27.967 106.807 28.1003 107.167 28.1003 107.64C28.1003 107.86 28.057 108.063 27.9703 108.25C27.8836 108.43 27.7536 108.59 27.5803 108.73C27.407 108.863 27.1903 108.967 26.9303 109.04C26.6703 109.12 26.367 109.16 26.0203 109.16C25.707 109.16 25.4136 109.13 25.1403 109.07C24.8736 109.01 24.637 108.917 24.4303 108.79C24.2236 108.657 24.057 108.483 23.9303 108.27C23.8036 108.057 23.7303 107.797 23.7103 107.49H24.5503ZM31.3884 109.16C30.9951 109.16 30.6451 109.097 30.3384 108.97C30.0318 108.843 29.7718 108.663 29.5584 108.43C29.3451 108.197 29.1818 107.91 29.0684 107.57C28.9551 107.23 28.8984 106.85 28.8984 106.43C28.8984 106.01 28.9584 105.63 29.0784 105.29C29.1984 104.95 29.3684 104.66 29.5884 104.42C29.8084 104.18 30.0718 103.997 30.3784 103.87C30.6918 103.737 31.0384 103.67 31.4184 103.67C31.8051 103.67 32.1518 103.733 32.4584 103.86C32.7651 103.987 33.0251 104.17 33.2384 104.41C33.4584 104.643 33.6251 104.927 33.7384 105.26C33.8518 105.593 33.9084 105.97 33.9084 106.39C33.9084 106.817 33.8484 107.2 33.7284 107.54C33.6151 107.88 33.4484 108.17 33.2284 108.41C33.0151 108.65 32.7518 108.837 32.4384 108.97C32.1251 109.097 31.7751 109.16 31.3884 109.16ZM31.3984 108.44C31.6784 108.44 31.9184 108.39 32.1184 108.29C32.3184 108.19 32.4818 108.05 32.6084 107.87C32.7418 107.69 32.8384 107.477 32.8984 107.23C32.9584 106.977 32.9884 106.7 32.9884 106.4C32.9884 106.107 32.9584 105.837 32.8984 105.59C32.8384 105.343 32.7418 105.133 32.6084 104.96C32.4818 104.78 32.3184 104.64 32.1184 104.54C31.9184 104.44 31.6784 104.39 31.3984 104.39C31.1184 104.39 30.8784 104.44 30.6784 104.54C30.4851 104.64 30.3218 104.78 30.1884 104.96C30.0618 105.133 29.9684 105.343 29.9084 105.59C29.8484 105.837 29.8184 106.11 29.8184 106.41C29.8184 106.71 29.8484 106.983 29.9084 107.23C29.9684 107.477 30.0618 107.69 30.1884 107.87C30.3151 108.05 30.4784 108.19 30.6784 108.29C30.8784 108.39 31.1184 108.44 31.3984 108.44ZM35.0743 103.83H35.9343V104.62C36.1876 104.28 36.4676 104.037 36.7743 103.89C37.081 103.743 37.4043 103.67 37.7443 103.67C38.331 103.67 38.7643 103.83 39.0443 104.15C39.331 104.47 39.4743 104.94 39.4743 105.56V109H38.6043V105.73C38.6043 105.25 38.5176 104.913 38.3443 104.72C38.171 104.52 37.9043 104.42 37.5443 104.42C37.351 104.42 37.1576 104.453 36.9643 104.52C36.7776 104.587 36.6076 104.693 36.4543 104.84C36.2876 104.987 36.161 105.143 36.0743 105.31C35.9876 105.47 35.9443 105.68 35.9443 105.94V109H35.0743V103.83ZM43.004 103.83H43.864V104.62C44.0973 104.3 44.354 104.063 44.634 103.91C44.914 103.75 45.2007 103.67 45.494 103.67C45.8807 103.67 46.1907 103.753 46.424 103.92C46.664 104.087 46.8407 104.327 46.954 104.64C47.1873 104.32 47.454 104.08 47.754 103.92C48.054 103.753 48.374 103.67 48.714 103.67C49.2207 103.67 49.6107 103.81 49.884 104.09C50.164 104.363 50.304 104.807 50.304 105.42V109H49.434V105.62C49.434 105.387 49.414 105.193 49.374 105.04C49.334 104.88 49.274 104.757 49.194 104.67C49.1207 104.577 49.0273 104.513 48.914 104.48C48.8007 104.44 48.6707 104.42 48.524 104.42C48.3707 104.42 48.2107 104.447 48.044 104.5C47.8773 104.553 47.714 104.647 47.554 104.78C47.4207 104.893 47.3107 105.03 47.224 105.19C47.1373 105.35 47.094 105.533 47.094 105.74V109H46.224V105.63C46.224 105.177 46.144 104.863 45.984 104.69C45.8307 104.51 45.6073 104.42 45.314 104.42C44.974 104.42 44.654 104.56 44.354 104.84C44.2407 104.947 44.1307 105.083 44.024 105.25C43.924 105.417 43.874 105.64 43.874 105.92V109H43.004V103.83ZM51.6373 103.83H52.5073V109H51.6373V103.83ZM51.6073 101.86H52.5373V102.87H51.6073V101.86ZM54.1634 104.52H53.3634V103.83H54.1634V102.42H55.0334V103.83H56.4034V104.52H55.0334V107.55C55.0334 107.803 55.09 108.007 55.2034 108.16C55.3167 108.313 55.49 108.39 55.7234 108.39C55.87 108.39 55.9967 108.38 56.1034 108.36C56.2167 108.34 56.32 108.313 56.4134 108.28L56.5634 108.95C56.43 108.997 56.2834 109.033 56.1234 109.06C55.97 109.093 55.7867 109.11 55.5734 109.11C55.28 109.11 55.0434 109.067 54.8634 108.98C54.6834 108.893 54.54 108.77 54.4334 108.61C54.3267 108.45 54.2534 108.26 54.2134 108.04C54.18 107.82 54.1634 107.58 54.1634 107.32V104.52ZM61.7767 101.86H62.7467L65.5167 109H64.5167L63.7667 107.01H60.7067L59.9567 109H58.9967L61.7767 101.86ZM63.4867 106.21L62.2267 102.9L60.9867 106.21H63.4867ZM66.1673 103.83H67.0373V107.09C67.0373 107.57 67.114 107.91 67.2673 108.11C67.4273 108.31 67.684 108.41 68.0373 108.41C68.424 108.41 68.774 108.27 69.0873 107.99C69.254 107.843 69.3807 107.69 69.4673 107.53C69.554 107.363 69.5973 107.15 69.5973 106.89V103.83H70.4673V109H69.6073V108.2C69.354 108.533 69.0807 108.777 68.7873 108.93C68.494 109.083 68.1773 109.16 67.8373 109.16C67.2507 109.16 66.824 109.003 66.5573 108.69C66.2973 108.37 66.1673 107.893 66.1673 107.26V103.83ZM72.1028 104.52H71.3028V103.83H72.1028V102.42H72.9728V103.83H74.3428V104.52H72.9728V107.55C72.9728 107.803 73.0295 108.007 73.1428 108.16C73.2561 108.313 73.4295 108.39 73.6628 108.39C73.8095 108.39 73.9361 108.38 74.0428 108.36C74.1561 108.34 74.2595 108.313 74.3528 108.28L74.5028 108.95C74.3695 108.997 74.2228 109.033 74.0628 109.06C73.9095 109.093 73.7261 109.11 73.5128 109.11C73.2195 109.11 72.9828 109.067 72.8028 108.98C72.6228 108.893 72.4795 108.77 72.3728 108.61C72.2661 108.45 72.1928 108.26 72.1528 108.04C72.1195 107.82 72.1028 107.58 72.1028 107.32V104.52ZM77.4431 109.16C77.0498 109.16 76.6998 109.097 76.3931 108.97C76.0865 108.843 75.8265 108.663 75.6131 108.43C75.3998 108.197 75.2365 107.91 75.1231 107.57C75.0098 107.23 74.9531 106.85 74.9531 106.43C74.9531 106.01 75.0131 105.63 75.1331 105.29C75.2531 104.95 75.4231 104.66 75.6431 104.42C75.8631 104.18 76.1265 103.997 76.4331 103.87C76.7465 103.737 77.0931 103.67 77.4731 103.67C77.8598 103.67 78.2065 103.733 78.5131 103.86C78.8198 103.987 79.0798 104.17 79.2931 104.41C79.5131 104.643 79.6798 104.927 79.7931 105.26C79.9065 105.593 79.9631 105.97 79.9631 106.39C79.9631 106.817 79.9031 107.2 79.7831 107.54C79.6698 107.88 79.5031 108.17 79.2831 108.41C79.0698 108.65 78.8065 108.837 78.4931 108.97C78.1798 109.097 77.8298 109.16 77.4431 109.16ZM77.4531 108.44C77.7331 108.44 77.9731 108.39 78.1731 108.29C78.3731 108.19 78.5365 108.05 78.6631 107.87C78.7965 107.69 78.8931 107.477 78.9531 107.23C79.0131 106.977 79.0431 106.7 79.0431 106.4C79.0431 106.107 79.0131 105.837 78.9531 105.59C78.8931 105.343 78.7965 105.133 78.6631 104.96C78.5365 104.78 78.3731 104.64 78.1731 104.54C77.9731 104.44 77.7331 104.39 77.4531 104.39C77.1731 104.39 76.9331 104.44 76.7331 104.54C76.5398 104.64 76.3765 104.78 76.2431 104.96C76.1165 105.133 76.0231 105.343 75.9631 105.59C75.9031 105.837 75.8731 106.11 75.8731 106.41C75.8731 106.71 75.9031 106.983 75.9631 107.23C76.0231 107.477 76.1165 107.69 76.2431 107.87C76.3698 108.05 76.5331 108.19 76.7331 108.29C76.9331 108.39 77.1731 108.44 77.4531 108.44Z" fill="#484848"/>
<path d="M4.43 170.26C4.21667 170.547 3.97 170.77 3.69 170.93C3.41 171.083 3.08 171.16 2.7 171.16C2.32 171.16 1.99 171.09 1.71 170.95C1.43667 170.81 1.21 170.62 1.03 170.38C0.85 170.133 0.716667 169.843 0.63 169.51C0.543333 169.177 0.5 168.82 0.5 168.44C0.5 168.013 0.553333 167.63 0.66 167.29C0.766667 166.943 0.916667 166.65 1.11 166.41C1.31 166.17 1.55 165.987 1.83 165.86C2.11667 165.733 2.44 165.67 2.8 165.67C3.07333 165.67 3.35 165.727 3.63 165.84C3.91 165.947 4.17 166.153 4.41 166.46V163.86H5.28V171H4.43V170.26ZM4.44 168.26C4.44 167.847 4.39333 167.527 4.3 167.3C4.21333 167.067 4.06667 166.87 3.86 166.71C3.71333 166.59 3.56333 166.507 3.41 166.46C3.26333 166.413 3.1 166.39 2.92 166.39C2.70667 166.39 2.50667 166.427 2.32 166.5C2.14 166.573 1.98 166.693 1.84 166.86C1.70667 167.02 1.6 167.23 1.52 167.49C1.44667 167.743 1.41 168.053 1.41 168.42C1.41 168.8 1.45 169.12 1.53 169.38C1.61667 169.64 1.72667 169.847 1.86 170C2 170.153 2.15333 170.263 2.32 170.33C2.49333 170.397 2.67 170.43 2.85 170.43C3.04333 170.43 3.21667 170.407 3.37 170.36C3.52333 170.313 3.67667 170.233 3.83 170.12C4.03 169.96 4.18 169.76 4.28 169.52C4.38667 169.28 4.44 168.977 4.44 168.61V168.26ZM9.84703 170.29C9.66036 170.517 9.4237 170.713 9.13703 170.88C8.85036 171.04 8.4937 171.12 8.06703 171.12C7.80703 171.12 7.56703 171.087 7.34703 171.02C7.1337 170.96 6.94703 170.867 6.78703 170.74C6.6337 170.607 6.5137 170.443 6.42703 170.25C6.34036 170.057 6.29703 169.83 6.29703 169.57C6.29703 169.217 6.37036 168.93 6.51703 168.71C6.67036 168.49 6.87036 168.317 7.11703 168.19C7.37036 168.063 7.6537 167.973 7.96703 167.92C8.28036 167.867 8.6037 167.833 8.93703 167.82L9.82703 167.79V167.59C9.82703 167.15 9.7337 166.833 9.54703 166.64C9.36036 166.447 9.05703 166.35 8.63703 166.35C8.2237 166.35 7.92036 166.42 7.72703 166.56C7.5337 166.693 7.40703 166.88 7.34703 167.12L6.55703 167.03C6.65036 166.557 6.8737 166.213 7.22703 166C7.58036 165.78 8.06036 165.67 8.66703 165.67C9.04036 165.67 9.3537 165.717 9.60703 165.81C9.86703 165.897 10.077 166.023 10.237 166.19C10.397 166.357 10.5104 166.563 10.577 166.81C10.6504 167.057 10.687 167.333 10.687 167.64V171H9.84703V170.29ZM9.82703 168.41L8.99703 168.44C8.6437 168.453 8.35036 168.487 8.11703 168.54C7.8837 168.593 7.69703 168.667 7.55703 168.76C7.4237 168.847 7.32703 168.957 7.26703 169.09C7.2137 169.223 7.18703 169.377 7.18703 169.55C7.18703 169.81 7.2637 170.02 7.41703 170.18C7.57703 170.333 7.83703 170.41 8.19703 170.41C8.71036 170.41 9.11036 170.283 9.39703 170.03C9.6837 169.777 9.82703 169.43 9.82703 168.99V168.41ZM11.3102 165.83H12.3202L13.8602 170.03L15.4302 165.83H16.3902L14.3102 171H13.3802L11.3102 165.83ZM19.2498 171.16C18.8564 171.16 18.5064 171.097 18.1998 170.97C17.8931 170.843 17.6331 170.663 17.4198 170.43C17.2064 170.197 17.0431 169.91 16.9298 169.57C16.8164 169.23 16.7598 168.85 16.7598 168.43C16.7598 168.01 16.8198 167.63 16.9398 167.29C17.0598 166.95 17.2298 166.66 17.4498 166.42C17.6698 166.18 17.9331 165.997 18.2398 165.87C18.5531 165.737 18.8998 165.67 19.2798 165.67C19.6664 165.67 20.0131 165.733 20.3198 165.86C20.6264 165.987 20.8864 166.17 21.0998 166.41C21.3198 166.643 21.4864 166.927 21.5998 167.26C21.7131 167.593 21.7698 167.97 21.7698 168.39C21.7698 168.817 21.7098 169.2 21.5898 169.54C21.4764 169.88 21.3098 170.17 21.0898 170.41C20.8764 170.65 20.6131 170.837 20.2998 170.97C19.9864 171.097 19.6364 171.16 19.2498 171.16ZM19.2598 170.44C19.5398 170.44 19.7798 170.39 19.9798 170.29C20.1798 170.19 20.3431 170.05 20.4698 169.87C20.6031 169.69 20.6998 169.477 20.7598 169.23C20.8198 168.977 20.8498 168.7 20.8498 168.4C20.8498 168.107 20.8198 167.837 20.7598 167.59C20.6998 167.343 20.6031 167.133 20.4698 166.96C20.3431 166.78 20.1798 166.64 19.9798 166.54C19.7798 166.44 19.5398 166.39 19.2598 166.39C18.9798 166.39 18.7398 166.44 18.5398 166.54C18.3464 166.64 18.1831 166.78 18.0498 166.96C17.9231 167.133 17.8298 167.343 17.7698 167.59C17.7098 167.837 17.6798 168.11 17.6798 168.41C17.6798 168.71 17.7098 168.983 17.7698 169.23C17.8298 169.477 17.9231 169.69 18.0498 169.87C18.1764 170.05 18.3398 170.19 18.5398 170.29C18.7398 170.39 18.9798 170.44 19.2598 170.44ZM22.9356 165.83H23.7956V166.62C24.049 166.28 24.329 166.037 24.6356 165.89C24.9423 165.743 25.2656 165.67 25.6056 165.67C26.1923 165.67 26.6256 165.83 26.9056 166.15C27.1923 166.47 27.3356 166.94 27.3356 167.56V171H26.4656V167.73C26.4656 167.25 26.379 166.913 26.2056 166.72C26.0323 166.52 25.7656 166.42 25.4056 166.42C25.2123 166.42 25.019 166.453 24.8256 166.52C24.639 166.587 24.469 166.693 24.3156 166.84C24.149 166.987 24.0223 167.143 23.9356 167.31C23.849 167.47 23.8056 167.68 23.8056 167.94V171H22.9356V165.83ZM30.9853 163.86H31.9053V166.88H35.5153V163.86H36.4353V171H35.5153V167.74H31.9053V171H30.9853V163.86ZM37.8766 172.1C38.0632 172.167 38.2499 172.2 38.4366 172.2C38.6499 172.2 38.8132 172.143 38.9266 172.03C39.0466 171.923 39.1632 171.72 39.2766 171.42L39.4866 170.87L37.2966 165.83H38.3066L39.9366 169.89L41.4266 165.83H42.3866L40.1266 171.49C40.0332 171.723 39.9399 171.927 39.8466 172.1C39.7532 172.28 39.6499 172.433 39.5366 172.56C39.4232 172.687 39.2866 172.78 39.1266 172.84C38.9732 172.907 38.7832 172.94 38.5566 172.94C38.3966 172.94 38.2532 172.93 38.1266 172.91C37.9999 172.89 37.8599 172.853 37.7066 172.8L37.8766 172.1ZM43.1309 163.86H44.0009V166.55C44.2143 166.27 44.4609 166.053 44.7409 165.9C45.0209 165.747 45.3509 165.67 45.7309 165.67C46.0976 165.67 46.4176 165.737 46.6909 165.87C46.9709 166.003 47.2009 166.19 47.3809 166.43C47.5676 166.67 47.7043 166.957 47.7909 167.29C47.8843 167.617 47.9309 167.98 47.9309 168.38C47.9309 168.807 47.8776 169.193 47.7709 169.54C47.6643 169.88 47.5109 170.17 47.3109 170.41C47.1109 170.65 46.8676 170.837 46.5809 170.97C46.3009 171.097 45.9843 171.16 45.6309 171.16C45.3309 171.16 45.0376 171.1 44.7509 170.98C44.4709 170.853 44.2176 170.64 43.9909 170.34V171H43.1309V163.86ZM43.9909 168.56C43.9909 168.893 44.0276 169.18 44.1009 169.42C44.1809 169.653 44.2876 169.847 44.4209 170C44.5543 170.153 44.7143 170.267 44.9009 170.34C45.0876 170.407 45.2909 170.44 45.5109 170.44C45.7243 170.44 45.9209 170.403 46.1009 170.33C46.2876 170.257 46.4476 170.14 46.5809 169.98C46.7143 169.813 46.8176 169.6 46.8909 169.34C46.9709 169.08 47.0109 168.763 47.0109 168.39C47.0109 168.01 46.9676 167.693 46.8809 167.44C46.8009 167.18 46.6943 166.973 46.5609 166.82C46.4276 166.667 46.2743 166.557 46.1009 166.49C45.9343 166.423 45.7609 166.39 45.5809 166.39C45.3543 166.39 45.1443 166.43 44.9509 166.51C44.7576 166.583 44.5876 166.697 44.4409 166.85C44.3009 166.997 44.1909 167.187 44.1109 167.42C44.0309 167.647 43.9909 167.91 43.9909 168.21V168.56ZM49.0977 165.83H49.9577V166.63C50.1511 166.343 50.3777 166.123 50.6377 165.97C50.8977 165.817 51.1744 165.74 51.4677 165.74C51.6477 165.74 51.8011 165.753 51.9277 165.78L51.8177 166.59C51.7511 166.577 51.6844 166.567 51.6177 166.56C51.5511 166.547 51.4777 166.54 51.3977 166.54C51.2377 166.54 51.0744 166.57 50.9077 166.63C50.7411 166.683 50.5844 166.777 50.4377 166.91C50.2911 167.037 50.1744 167.183 50.0877 167.35C50.0077 167.517 49.9677 167.71 49.9677 167.93V171H49.0977V165.83ZM52.7798 165.83H53.6498V171H52.7798V165.83ZM52.7498 163.86H53.6798V164.87H52.7498V163.86ZM58.7659 170.26C58.5526 170.547 58.3059 170.77 58.0259 170.93C57.7459 171.083 57.4159 171.16 57.0359 171.16C56.6559 171.16 56.3259 171.09 56.0459 170.95C55.7726 170.81 55.5459 170.62 55.3659 170.38C55.1859 170.133 55.0526 169.843 54.9659 169.51C54.8793 169.177 54.8359 168.82 54.8359 168.44C54.8359 168.013 54.8893 167.63 54.9959 167.29C55.1026 166.943 55.2526 166.65 55.4459 166.41C55.6459 166.17 55.8859 165.987 56.1659 165.86C56.4526 165.733 56.7759 165.67 57.1359 165.67C57.4093 165.67 57.6859 165.727 57.9659 165.84C58.2459 165.947 58.5059 166.153 58.7459 166.46V163.86H59.6159V171H58.7659V170.26ZM58.7759 168.26C58.7759 167.847 58.7293 167.527 58.6359 167.3C58.5493 167.067 58.4026 166.87 58.1959 166.71C58.0493 166.59 57.8993 166.507 57.7459 166.46C57.5993 166.413 57.4359 166.39 57.2559 166.39C57.0426 166.39 56.8426 166.427 56.6559 166.5C56.4759 166.573 56.3159 166.693 56.1759 166.86C56.0426 167.02 55.9359 167.23 55.8559 167.49C55.7826 167.743 55.7459 168.053 55.7459 168.42C55.7459 168.8 55.7859 169.12 55.8659 169.38C55.9526 169.64 56.0626 169.847 56.1959 170C56.3359 170.153 56.4893 170.263 56.6559 170.33C56.8293 170.397 57.0059 170.43 57.1859 170.43C57.3793 170.43 57.5526 170.407 57.7059 170.36C57.8593 170.313 58.0126 170.233 58.1659 170.12C58.3659 169.96 58.5159 169.76 58.6159 169.52C58.7226 169.28 58.7759 168.977 58.7759 168.61V168.26ZM67.3195 170.38C67.0929 170.613 66.8129 170.803 66.4795 170.95C66.1462 171.09 65.7662 171.16 65.3395 171.16C64.8729 171.16 64.4795 171.107 64.1595 171C63.8462 170.887 63.5929 170.737 63.3995 170.55C63.2129 170.363 63.0762 170.147 62.9895 169.9C62.9095 169.653 62.8695 169.397 62.8695 169.13C62.8695 168.863 62.9129 168.627 62.9995 168.42C63.0862 168.207 63.1995 168.017 63.3395 167.85C63.4862 167.677 63.6529 167.523 63.8395 167.39C64.0329 167.25 64.2362 167.123 64.4495 167.01C64.2695 166.797 64.0995 166.557 63.9395 166.29C63.7795 166.017 63.6995 165.71 63.6995 165.37C63.6995 165.15 63.7395 164.947 63.8195 164.76C63.8995 164.567 64.0129 164.403 64.1595 164.27C64.3062 164.13 64.4829 164.02 64.6895 163.94C64.8962 163.86 65.1229 163.82 65.3695 163.82C65.6429 163.82 65.8829 163.86 66.0895 163.94C66.2962 164.013 66.4662 164.117 66.5995 164.25C66.7395 164.383 66.8429 164.54 66.9095 164.72C66.9829 164.9 67.0195 165.09 67.0195 165.29C67.0195 165.53 66.9795 165.74 66.8995 165.92C66.8262 166.1 66.7229 166.263 66.5895 166.41C66.4629 166.557 66.3129 166.69 66.1395 166.81C65.9662 166.923 65.7862 167.037 65.5995 167.15L67.3095 169.16C67.4162 168.913 67.4862 168.67 67.5195 168.43C67.5595 168.19 67.5862 167.927 67.5995 167.64H68.4095C68.3962 168.04 68.3395 168.423 68.2395 168.79C68.1395 169.15 68.0029 169.48 67.8295 169.78L68.8795 171H67.8495L67.3195 170.38ZM64.8795 167.53C64.7329 167.617 64.5929 167.71 64.4595 167.81C64.3262 167.903 64.2062 168.01 64.0995 168.13C63.9995 168.25 63.9195 168.383 63.8595 168.53C63.7995 168.677 63.7695 168.84 63.7695 169.02C63.7695 169.22 63.7962 169.41 63.8495 169.59C63.9029 169.763 63.9929 169.913 64.1195 170.04C64.2462 170.167 64.4129 170.267 64.6195 170.34C64.8329 170.413 65.0995 170.45 65.4195 170.45C65.7529 170.45 66.0362 170.393 66.2695 170.28C66.5029 170.16 66.6929 170.013 66.8395 169.84L64.8795 167.53ZM65.1795 166.67C65.2995 166.603 65.4229 166.527 65.5495 166.44C65.6762 166.353 65.7895 166.26 65.8895 166.16C65.9962 166.053 66.0795 165.933 66.1395 165.8C66.2062 165.667 66.2395 165.517 66.2395 165.35C66.2395 165.057 66.1595 164.837 65.9995 164.69C65.8462 164.543 65.6429 164.47 65.3895 164.47C65.1095 164.47 64.8929 164.55 64.7395 164.71C64.5929 164.863 64.5195 165.087 64.5195 165.38C64.5195 165.633 64.5895 165.867 64.7295 166.08C64.8695 166.293 65.0195 166.49 65.1795 166.67ZM71.9033 163.86H76.5233V164.67H72.8233V166.91H76.3233V167.73H72.8233V170.19H76.7133L76.5633 171H71.9033V163.86ZM77.7408 163.86H78.6108V171H77.7408V163.86ZM84.4369 169.55C84.3502 170.05 84.1269 170.443 83.7669 170.73C83.4135 171.017 82.9035 171.16 82.2369 171.16C81.4502 171.16 80.8469 170.923 80.4269 170.45C80.0069 169.97 79.7969 169.303 79.7969 168.45C79.7969 168.003 79.8569 167.607 79.9769 167.26C80.0969 166.913 80.2635 166.623 80.4769 166.39C80.6969 166.157 80.9569 165.98 81.2569 165.86C81.5569 165.733 81.8835 165.67 82.2369 165.67C82.6369 165.67 82.9802 165.733 83.2669 165.86C83.5535 165.987 83.7869 166.163 83.9669 166.39C84.1535 166.61 84.2902 166.873 84.3769 167.18C84.4702 167.487 84.5169 167.823 84.5169 168.19V168.63H80.6769C80.6769 168.89 80.7102 169.133 80.7769 169.36C80.8502 169.58 80.9502 169.773 81.0769 169.94C81.2102 170.1 81.3735 170.227 81.5669 170.32C81.7602 170.413 81.9835 170.46 82.2369 170.46C82.6702 170.46 82.9869 170.38 83.1869 170.22C83.3869 170.053 83.5235 169.83 83.5969 169.55H84.4369ZM83.6469 167.98C83.6469 167.733 83.6202 167.51 83.5669 167.31C83.5135 167.11 83.4302 166.94 83.3169 166.8C83.2035 166.653 83.0569 166.54 82.8769 166.46C82.6969 166.38 82.4802 166.34 82.2269 166.34C81.7669 166.34 81.4069 166.48 81.1469 166.76C80.8935 167.04 80.7435 167.447 80.6969 167.98H83.6469ZM85.67 163.86H86.53V168.02L88.95 165.83H90L88.15 167.56L90.2 171H89.21L87.5 168.07L86.53 168.94V171H85.67V163.86ZM91.302 166.52H90.502V165.83H91.302V164.42H92.172V165.83H93.542V166.52H92.172V169.55C92.172 169.803 92.2287 170.007 92.342 170.16C92.4554 170.313 92.6287 170.39 92.862 170.39C93.0087 170.39 93.1354 170.38 93.242 170.36C93.3554 170.34 93.4587 170.313 93.552 170.28L93.702 170.95C93.5687 170.997 93.422 171.033 93.262 171.06C93.1087 171.093 92.9254 171.11 92.712 171.11C92.4187 171.11 92.182 171.067 92.002 170.98C91.822 170.893 91.6787 170.77 91.572 170.61C91.4654 170.45 91.392 170.26 91.352 170.04C91.3187 169.82 91.302 169.58 91.302 169.32V166.52ZM94.4688 165.83H95.3288V166.63C95.5222 166.343 95.7488 166.123 96.0088 165.97C96.2688 165.817 96.5455 165.74 96.8388 165.74C97.0188 165.74 97.1722 165.753 97.2988 165.78L97.1888 166.59C97.1222 166.577 97.0555 166.567 96.9888 166.56C96.9222 166.547 96.8488 166.54 96.7688 166.54C96.6088 166.54 96.4455 166.57 96.2788 166.63C96.1122 166.683 95.9555 166.777 95.8088 166.91C95.6622 167.037 95.5455 167.183 95.4588 167.35C95.3788 167.517 95.3388 167.71 95.3388 167.93V171H94.4688V165.83ZM100.148 171.16C99.7549 171.16 99.4049 171.097 99.0982 170.97C98.7915 170.843 98.5315 170.663 98.3182 170.43C98.1049 170.197 97.9415 169.91 97.8282 169.57C97.7149 169.23 97.6582 168.85 97.6582 168.43C97.6582 168.01 97.7182 167.63 97.8382 167.29C97.9582 166.95 98.1282 166.66 98.3482 166.42C98.5682 166.18 98.8315 165.997 99.1382 165.87C99.4515 165.737 99.7982 165.67 100.178 165.67C100.565 165.67 100.912 165.733 101.218 165.86C101.525 165.987 101.785 166.17 101.998 166.41C102.218 166.643 102.385 166.927 102.498 167.26C102.612 167.593 102.668 167.97 102.668 168.39C102.668 168.817 102.608 169.2 102.488 169.54C102.375 169.88 102.208 170.17 101.988 170.41C101.775 170.65 101.512 170.837 101.198 170.97C100.885 171.097 100.535 171.16 100.148 171.16ZM100.158 170.44C100.438 170.44 100.678 170.39 100.878 170.29C101.078 170.19 101.242 170.05 101.368 169.87C101.502 169.69 101.598 169.477 101.658 169.23C101.718 168.977 101.748 168.7 101.748 168.4C101.748 168.107 101.718 167.837 101.658 167.59C101.598 167.343 101.502 167.133 101.368 166.96C101.242 166.78 101.078 166.64 100.878 166.54C100.678 166.44 100.438 166.39 100.158 166.39C99.8782 166.39 99.6382 166.44 99.4382 166.54C99.2449 166.64 99.0815 166.78 98.9482 166.96C98.8215 167.133 98.7282 167.343 98.6682 167.59C98.6082 167.837 98.5782 168.11 98.5782 168.41C98.5782 168.71 98.6082 168.983 98.6682 169.23C98.7282 169.477 98.8215 169.69 98.9482 169.87C99.0749 170.05 99.2382 170.19 99.4382 170.29C99.6382 170.39 99.8782 170.44 100.158 170.44Z" fill="#484848"/>
<path d="M9.08645 0.5H37.6722C38.0047 0.5 38.2446 0.818516 38.1527 1.13809L30.3941 28.1381C30.3325 28.3524 30.1365 28.5 29.9136 28.5H1.32782C0.995318 28.5 0.75544 28.1815 0.847271 27.8619L8.60589 0.861909C8.66747 0.647622 8.86349 0.5 9.08645 0.5Z" stroke="#405EA9"/>
<path d="M11.0864 62.5H39.6722C40.0047 62.5 40.2446 62.8185 40.1527 63.1381L32.3941 90.1381C32.3325 90.3524 32.1365 90.5 31.9136 90.5H3.32782C2.99532 90.5 2.75544 90.1815 2.84727 89.8619L10.6059 62.8619C10.6675 62.6476 10.8635 62.5 11.0864 62.5Z" stroke="#405EA9"/>
<g style="mix-blend-mode:multiply">
<path d="M8.12534 57.7238C8.24849 57.2952 8.64053 57 9.08645 57H37.6722C38.3372 57 38.8169 57.637 38.6333 58.2762L30.8747 85.2762C30.7515 85.7048 30.3595 86 29.9136 86H1.32782C0.662812 86 0.183056 85.363 0.366718 84.7238L8.12534 57.7238Z" fill="#FF7B7B"/>
</g>
<path d="M11.0864 124.5H39.6722C40.0047 124.5 40.2446 124.819 40.1527 125.138L32.3941 152.138C32.3325 152.352 32.1365 152.5 31.9136 152.5H3.32782C2.99532 152.5 2.75544 152.181 2.84727 151.862L10.6059 124.862C10.6675 124.648 10.8635 124.5 11.0864 124.5Z" stroke="#405EA9"/>
<g style="mix-blend-mode:multiply">
<path d="M8.12534 119.724C8.24849 119.295 8.64053 119 9.08645 119H37.6722C38.3372 119 38.8169 119.637 38.6333 120.276L30.8747 147.276C30.7515 147.705 30.3595 148 29.9136 148H1.32782C0.662812 148 0.183056 147.363 0.366718 146.724L8.12534 119.724Z" fill="#F6A219"/>
</g>
</svg>
