<svg width="301" height="27" viewBox="0 0 301 27" fill="none" xmlns="http://www.w3.org/2000/svg">
<path d="M40.99 10.16C40.5967 10.16 40.2467 10.0967 39.94 9.97C39.6333 9.84333 39.3733 9.66333 39.16 9.43C38.9467 9.19667 38.7833 8.91 38.67 8.57C38.5567 8.23 38.5 7.85 38.5 7.43C38.5 7.01 38.56 6.63 38.68 6.29C38.8 5.95 38.97 5.66 39.19 5.42C39.41 5.18 39.6733 4.99667 39.98 4.87C40.2933 4.73667 40.64 4.67 41.02 4.67C41.4067 4.67 41.7533 4.73333 42.06 4.86C42.3667 4.98667 42.6267 5.17 42.84 5.41C43.06 5.64333 43.2267 5.92667 43.34 6.26C43.4533 6.59333 43.51 6.97 43.51 7.39C43.51 7.81667 43.45 8.2 43.33 8.54C43.2167 8.88 43.05 9.17 42.83 9.41C42.6167 9.65 42.3533 9.83667 42.04 9.97C41.7267 10.0967 41.3767 10.16 40.99 10.16ZM41 9.44C41.28 9.44 41.52 9.39 41.72 9.29C41.92 9.19 42.0833 9.05 42.21 8.87C42.3433 8.69 42.44 8.47667 42.5 8.23C42.56 7.97667 42.59 7.7 42.59 7.4C42.59 7.10667 42.56 6.83667 42.5 6.59C42.44 6.34333 42.3433 6.13333 42.21 5.96C42.0833 5.78 41.92 5.64 41.72 5.54C41.52 5.44 41.28 5.39 41 5.39C40.72 5.39 40.48 5.44 40.28 5.54C40.0867 5.64 39.9233 5.78 39.79 5.96C39.6633 6.13333 39.57 6.34333 39.51 6.59C39.45 6.83667 39.42 7.11 39.42 7.41C39.42 7.71 39.45 7.98333 39.51 8.23C39.57 8.47667 39.6633 8.69 39.79 8.87C39.9167 9.05 40.08 9.19 40.28 9.29C40.48 9.39 40.72 9.44 41 9.44ZM44.6759 2.86H45.5459V5.6C45.7992 5.27333 46.0759 5.03667 46.3759 4.89C46.6825 4.74333 47.0059 4.67 47.3459 4.67C47.9325 4.67 48.3659 4.83 48.6459 5.15C48.9325 5.47 49.0759 5.94 49.0759 6.56V10H48.1959V6.73C48.1959 6.25 48.1092 5.91333 47.9359 5.72C47.7692 5.52 47.5059 5.42 47.1459 5.42C46.9525 5.42 46.7592 5.45333 46.5659 5.52C46.3792 5.58667 46.2092 5.69333 46.0559 5.84C45.8892 5.98667 45.7625 6.14333 45.6759 6.31C45.5892 6.47 45.5459 6.68 45.5459 6.94V10H44.6759V2.86ZM50.379 4.83H51.239V5.62C51.4923 5.28 51.7723 5.03667 52.079 4.89C52.3857 4.74333 52.709 4.67 53.049 4.67C53.6357 4.67 54.069 4.83 54.349 5.15C54.6357 5.47 54.779 5.94 54.779 6.56V10H53.909V6.73C53.909 6.25 53.8223 5.91333 53.649 5.72C53.4757 5.52 53.209 5.42 52.849 5.42C52.6557 5.42 52.4623 5.45333 52.269 5.52C52.0823 5.58667 51.9123 5.69333 51.759 5.84C51.5923 5.98667 51.4657 6.14333 51.379 6.31C51.2923 6.47 51.249 6.68 51.249 6.94V10H50.379V4.83ZM60.5521 8.55C60.4654 9.05 60.2421 9.44333 59.8821 9.73C59.5288 10.0167 59.0188 10.16 58.3521 10.16C57.5654 10.16 56.9621 9.92333 56.5421 9.45C56.1221 8.97 55.9121 8.30333 55.9121 7.45C55.9121 7.00333 55.9721 6.60667 56.0921 6.26C56.2121 5.91333 56.3788 5.62333 56.5921 5.39C56.8121 5.15667 57.0721 4.98 57.3721 4.86C57.6721 4.73333 57.9988 4.67 58.3521 4.67C58.7521 4.67 59.0954 4.73333 59.3821 4.86C59.6688 4.98667 59.9021 5.16333 60.0821 5.39C60.2688 5.61 60.4054 5.87333 60.4921 6.18C60.5854 6.48667 60.6321 6.82333 60.6321 7.19V7.63H56.7921C56.7921 7.89 56.8254 8.13333 56.8921 8.36C56.9654 8.58 57.0654 8.77333 57.1921 8.94C57.3254 9.1 57.4888 9.22667 57.6821 9.32C57.8754 9.41333 58.0988 9.46 58.3521 9.46C58.7854 9.46 59.1021 9.38 59.3021 9.22C59.5021 9.05333 59.6388 8.83 59.7121 8.55H60.5521ZM59.7621 6.98C59.7621 6.73333 59.7354 6.51 59.6821 6.31C59.6288 6.11 59.5454 5.94 59.4321 5.8C59.3188 5.65333 59.1721 5.54 58.9921 5.46C58.8121 5.38 58.5954 5.34 58.3421 5.34C57.8821 5.34 57.5221 5.48 57.2621 5.76C57.0088 6.04 56.8588 6.44667 56.8121 6.98H59.7621ZM66.2318 2.86H67.2018L69.9718 10H68.9718L68.2218 8.01H65.1618L64.4118 10H63.4518L66.2318 2.86ZM67.9418 7.21L66.6818 3.9L65.4418 7.21H67.9418ZM70.6224 4.83H71.4924V8.09C71.4924 8.57 71.5691 8.91 71.7224 9.11C71.8824 9.31 72.1391 9.41 72.4924 9.41C72.8791 9.41 73.2291 9.27 73.5424 8.99C73.7091 8.84333 73.8358 8.69 73.9224 8.53C74.0091 8.36333 74.0524 8.15 74.0524 7.89V4.83H74.9224V10H74.0624V9.2C73.8091 9.53333 73.5358 9.77667 73.2424 9.93C72.9491 10.0833 72.6324 10.16 72.2924 10.16C71.7058 10.16 71.2791 10.0033 71.0124 9.69C70.7524 9.37 70.6224 8.89333 70.6224 8.26V4.83ZM76.5579 5.52H75.7579V4.83H76.5579V3.42H77.4279V4.83H78.7979V5.52H77.4279V8.55C77.4279 8.80333 77.4846 9.00667 77.5979 9.16C77.7112 9.31333 77.8846 9.39 78.1179 9.39C78.2646 9.39 78.3912 9.38 78.4979 9.36C78.6112 9.34 78.7146 9.31333 78.8079 9.28L78.9579 9.95C78.8246 9.99667 78.6779 10.0333 78.5179 10.06C78.3646 10.0933 78.1812 10.11 77.9679 10.11C77.6746 10.11 77.4379 10.0667 77.2579 9.98C77.0779 9.89333 76.9346 9.77 76.8279 9.61C76.7212 9.45 76.6479 9.26 76.6079 9.04C76.5746 8.82 76.5579 8.58 76.5579 8.32V5.52ZM81.8982 10.16C81.5049 10.16 81.1549 10.0967 80.8482 9.97C80.5415 9.84333 80.2815 9.66333 80.0682 9.43C79.8549 9.19667 79.6915 8.91 79.5782 8.57C79.4649 8.23 79.4082 7.85 79.4082 7.43C79.4082 7.01 79.4682 6.63 79.5882 6.29C79.7082 5.95 79.8782 5.66 80.0982 5.42C80.3182 5.18 80.5815 4.99667 80.8882 4.87C81.2015 4.73667 81.5482 4.67 81.9282 4.67C82.3149 4.67 82.6615 4.73333 82.9682 4.86C83.2749 4.98667 83.5349 5.17 83.7482 5.41C83.9682 5.64333 84.1349 5.92667 84.2482 6.26C84.3615 6.59333 84.4182 6.97 84.4182 7.39C84.4182 7.81667 84.3582 8.2 84.2382 8.54C84.1249 8.88 83.9582 9.17 83.7382 9.41C83.5249 9.65 83.2615 9.83667 82.9482 9.97C82.6349 10.0967 82.2849 10.16 81.8982 10.16ZM81.9082 9.44C82.1882 9.44 82.4282 9.39 82.6282 9.29C82.8282 9.19 82.9915 9.05 83.1182 8.87C83.2515 8.69 83.3482 8.47667 83.4082 8.23C83.4682 7.97667 83.4982 7.7 83.4982 7.4C83.4982 7.10667 83.4682 6.83667 83.4082 6.59C83.3482 6.34333 83.2515 6.13333 83.1182 5.96C82.9915 5.78 82.8282 5.64 82.6282 5.54C82.4282 5.44 82.1882 5.39 81.9082 5.39C81.6282 5.39 81.3882 5.44 81.1882 5.54C80.9949 5.64 80.8315 5.78 80.6982 5.96C80.5715 6.13333 80.4782 6.34333 80.4182 6.59C80.3582 6.83667 80.3282 7.11 80.3282 7.41C80.3282 7.71 80.3582 7.98333 80.4182 8.23C80.4782 8.47667 80.5715 8.69 80.6982 8.87C80.8249 9.05 80.9882 9.19 81.1882 9.29C81.3882 9.39 81.6282 9.44 81.9082 9.44Z" fill="#484848"/>
<path d="M7.32002 1.08403C7.38256 0.87117 7.57789 0.724976 7.79975 0.724976H31.6639C31.9977 0.724976 32.2377 1.04571 32.1437 1.36592L25.68 23.3659C25.6174 23.5788 25.4221 23.725 25.2003 23.725H1.33607C1.00233 23.725 0.762268 23.4042 0.856347 23.084L7.32002 1.08403Z" stroke="#484848"/>
<path d="M124.67 4.83H125.53V5.62C125.763 5.3 126.02 5.06333 126.3 4.91C126.58 4.75 126.867 4.67 127.16 4.67C127.547 4.67 127.857 4.75333 128.09 4.92C128.33 5.08667 128.507 5.32667 128.62 5.64C128.853 5.32 129.12 5.08 129.42 4.92C129.72 4.75333 130.04 4.67 130.38 4.67C130.887 4.67 131.277 4.81 131.55 5.09C131.83 5.36333 131.97 5.80667 131.97 6.42V10H131.1V6.62C131.1 6.38667 131.08 6.19333 131.04 6.04C131 5.88 130.94 5.75667 130.86 5.67C130.787 5.57667 130.693 5.51333 130.58 5.48C130.467 5.44 130.337 5.42 130.19 5.42C130.037 5.42 129.877 5.44667 129.71 5.5C129.543 5.55333 129.38 5.64667 129.22 5.78C129.087 5.89333 128.977 6.03 128.89 6.19C128.803 6.35 128.76 6.53333 128.76 6.74V10H127.89V6.63C127.89 6.17667 127.81 5.86333 127.65 5.69C127.497 5.51 127.273 5.42 126.98 5.42C126.64 5.42 126.32 5.56 126.02 5.84C125.907 5.94667 125.797 6.08333 125.69 6.25C125.59 6.41667 125.54 6.64 125.54 6.92V10H124.67V4.83ZM133.303 4.83H134.173V10H133.303V4.83ZM133.273 2.86H134.203V3.87H133.273V2.86ZM135.829 5.52H135.029V4.83H135.829V3.42H136.699V4.83H138.069V5.52H136.699V8.55C136.699 8.80333 136.756 9.00667 136.869 9.16C136.983 9.31333 137.156 9.39 137.389 9.39C137.536 9.39 137.663 9.38 137.769 9.36C137.883 9.34 137.986 9.31333 138.079 9.28L138.229 9.95C138.096 9.99667 137.949 10.0333 137.789 10.06C137.636 10.0933 137.453 10.11 137.239 10.11C136.946 10.11 136.709 10.0667 136.529 9.98C136.349 9.89333 136.206 9.77 136.099 9.61C135.993 9.45 135.919 9.26 135.879 9.04C135.846 8.82 135.829 8.58 135.829 8.32V5.52ZM143.443 2.86H144.413L147.183 10H146.183L145.433 8.01H142.373L141.623 10H140.663L143.443 2.86ZM145.153 7.21L143.893 3.9L142.653 7.21H145.153ZM147.833 4.83H148.703V8.09C148.703 8.57 148.78 8.91 148.933 9.11C149.093 9.31 149.35 9.41 149.703 9.41C150.09 9.41 150.44 9.27 150.753 8.99C150.92 8.84333 151.047 8.69 151.133 8.53C151.22 8.36333 151.263 8.15 151.263 7.89V4.83H152.133V10H151.273V9.2C151.02 9.53333 150.747 9.77667 150.453 9.93C150.16 10.0833 149.843 10.16 149.503 10.16C148.917 10.16 148.49 10.0033 148.223 9.69C147.963 9.37 147.833 8.89333 147.833 8.26V4.83ZM153.769 5.52H152.969V4.83H153.769V3.42H154.639V4.83H156.009V5.52H154.639V8.55C154.639 8.80333 154.695 9.00667 154.809 9.16C154.922 9.31333 155.095 9.39 155.329 9.39C155.475 9.39 155.602 9.38 155.709 9.36C155.822 9.34 155.925 9.31333 156.019 9.28L156.169 9.95C156.035 9.99667 155.889 10.0333 155.729 10.06C155.575 10.0933 155.392 10.11 155.179 10.11C154.885 10.11 154.649 10.0667 154.469 9.98C154.289 9.89333 154.145 9.77 154.039 9.61C153.932 9.45 153.859 9.26 153.819 9.04C153.785 8.82 153.769 8.58 153.769 8.32V5.52ZM159.109 10.16C158.716 10.16 158.366 10.0967 158.059 9.97C157.752 9.84333 157.492 9.66333 157.279 9.43C157.066 9.19667 156.902 8.91 156.789 8.57C156.676 8.23 156.619 7.85 156.619 7.43C156.619 7.01 156.679 6.63 156.799 6.29C156.919 5.95 157.089 5.66 157.309 5.42C157.529 5.18 157.792 4.99667 158.099 4.87C158.412 4.73667 158.759 4.67 159.139 4.67C159.526 4.67 159.872 4.73333 160.179 4.86C160.486 4.98667 160.746 5.17 160.959 5.41C161.179 5.64333 161.346 5.92667 161.459 6.26C161.572 6.59333 161.629 6.97 161.629 7.39C161.629 7.81667 161.569 8.2 161.449 8.54C161.336 8.88 161.169 9.17 160.949 9.41C160.736 9.65 160.472 9.83667 160.159 9.97C159.846 10.0967 159.496 10.16 159.109 10.16ZM159.119 9.44C159.399 9.44 159.639 9.39 159.839 9.29C160.039 9.19 160.202 9.05 160.329 8.87C160.462 8.69 160.559 8.47667 160.619 8.23C160.679 7.97667 160.709 7.7 160.709 7.4C160.709 7.10667 160.679 6.83667 160.619 6.59C160.559 6.34333 160.462 6.13333 160.329 5.96C160.202 5.78 160.039 5.64 159.839 5.54C159.639 5.44 159.399 5.39 159.119 5.39C158.839 5.39 158.599 5.44 158.399 5.54C158.206 5.64 158.042 5.78 157.909 5.96C157.782 6.13333 157.689 6.34333 157.629 6.59C157.569 6.83667 157.539 7.11 157.539 7.41C157.539 7.71 157.569 7.98333 157.629 8.23C157.689 8.47667 157.782 8.69 157.909 8.87C158.036 9.05 158.199 9.19 158.399 9.29C158.599 9.39 158.839 9.44 159.119 9.44Z" fill="#484848"/>
<g style="mix-blend-mode:multiply">
<path d="M93.8312 2.72382C93.9543 2.29524 94.3464 2 94.7923 2H118.615C119.28 2 119.76 2.63703 119.577 3.27618L113.112 25.7725C112.989 26.201 112.597 26.4963 112.151 26.4963H88.3278C87.6628 26.4963 87.1831 25.8592 87.3667 25.2201L93.8312 2.72382Z" fill="#FF7B7B"/>
</g>
<path d="M211.43 9.26C211.217 9.54667 210.97 9.77 210.69 9.93C210.41 10.0833 210.08 10.16 209.7 10.16C209.32 10.16 208.99 10.09 208.71 9.95C208.437 9.81 208.21 9.62 208.03 9.38C207.85 9.13333 207.717 8.84333 207.63 8.51C207.543 8.17667 207.5 7.82 207.5 7.44C207.5 7.01333 207.553 6.63 207.66 6.29C207.767 5.94333 207.917 5.65 208.11 5.41C208.31 5.17 208.55 4.98667 208.83 4.86C209.117 4.73333 209.44 4.67 209.8 4.67C210.073 4.67 210.35 4.72667 210.63 4.84C210.91 4.94667 211.17 5.15333 211.41 5.46V2.86H212.28V10H211.43V9.26ZM211.44 7.26C211.44 6.84667 211.393 6.52667 211.3 6.3C211.213 6.06667 211.067 5.87 210.86 5.71C210.713 5.59 210.563 5.50667 210.41 5.46C210.263 5.41333 210.1 5.39 209.92 5.39C209.707 5.39 209.507 5.42667 209.32 5.5C209.14 5.57333 208.98 5.69333 208.84 5.86C208.707 6.02 208.6 6.23 208.52 6.49C208.447 6.74333 208.41 7.05333 208.41 7.42C208.41 7.8 208.45 8.12 208.53 8.38C208.617 8.64 208.727 8.84667 208.86 9C209 9.15333 209.153 9.26333 209.32 9.33C209.493 9.39667 209.67 9.43 209.85 9.43C210.043 9.43 210.217 9.40667 210.37 9.36C210.523 9.31333 210.677 9.23333 210.83 9.12C211.03 8.96 211.18 8.76 211.28 8.52C211.387 8.28 211.44 7.97667 211.44 7.61V7.26ZM216.847 9.29C216.66 9.51667 216.424 9.71333 216.137 9.88C215.85 10.04 215.494 10.12 215.067 10.12C214.807 10.12 214.567 10.0867 214.347 10.02C214.134 9.96 213.947 9.86667 213.787 9.74C213.634 9.60667 213.514 9.44333 213.427 9.25C213.34 9.05667 213.297 8.83 213.297 8.57C213.297 8.21667 213.37 7.93 213.517 7.71C213.67 7.49 213.87 7.31667 214.117 7.19C214.37 7.06333 214.654 6.97333 214.967 6.92C215.28 6.86667 215.604 6.83333 215.937 6.82L216.827 6.79V6.59C216.827 6.15 216.734 5.83333 216.547 5.64C216.36 5.44667 216.057 5.35 215.637 5.35C215.224 5.35 214.92 5.42 214.727 5.56C214.534 5.69333 214.407 5.88 214.347 6.12L213.557 6.03C213.65 5.55667 213.874 5.21333 214.227 5C214.58 4.78 215.06 4.67 215.667 4.67C216.04 4.67 216.354 4.71667 216.607 4.81C216.867 4.89667 217.077 5.02333 217.237 5.19C217.397 5.35667 217.51 5.56333 217.577 5.81C217.65 6.05667 217.687 6.33333 217.687 6.64V10H216.847V9.29ZM216.827 7.41L215.997 7.44C215.644 7.45333 215.35 7.48667 215.117 7.54C214.884 7.59333 214.697 7.66667 214.557 7.76C214.424 7.84667 214.327 7.95667 214.267 8.09C214.214 8.22333 214.187 8.37667 214.187 8.55C214.187 8.81 214.264 9.02 214.417 9.18C214.577 9.33333 214.837 9.41 215.197 9.41C215.71 9.41 216.11 9.28333 216.397 9.03C216.684 8.77667 216.827 8.43 216.827 7.99V7.41ZM218.31 4.83H219.32L220.86 9.03L222.43 4.83H223.39L221.31 10H220.38L218.31 4.83ZM226.25 10.16C225.856 10.16 225.506 10.0967 225.2 9.97C224.893 9.84333 224.633 9.66333 224.42 9.43C224.206 9.19667 224.043 8.91 223.93 8.57C223.816 8.23 223.76 7.85 223.76 7.43C223.76 7.01 223.82 6.63 223.94 6.29C224.06 5.95 224.23 5.66 224.45 5.42C224.67 5.18 224.933 4.99667 225.24 4.87C225.553 4.73667 225.9 4.67 226.28 4.67C226.666 4.67 227.013 4.73333 227.32 4.86C227.626 4.98667 227.886 5.17 228.1 5.41C228.32 5.64333 228.486 5.92667 228.6 6.26C228.713 6.59333 228.77 6.97 228.77 7.39C228.77 7.81667 228.71 8.2 228.59 8.54C228.476 8.88 228.31 9.17 228.09 9.41C227.876 9.65 227.613 9.83667 227.3 9.97C226.986 10.0967 226.636 10.16 226.25 10.16ZM226.26 9.44C226.54 9.44 226.78 9.39 226.98 9.29C227.18 9.19 227.343 9.05 227.47 8.87C227.603 8.69 227.7 8.47667 227.76 8.23C227.82 7.97667 227.85 7.7 227.85 7.4C227.85 7.10667 227.82 6.83667 227.76 6.59C227.7 6.34333 227.603 6.13333 227.47 5.96C227.343 5.78 227.18 5.64 226.98 5.54C226.78 5.44 226.54 5.39 226.26 5.39C225.98 5.39 225.74 5.44 225.54 5.54C225.346 5.64 225.183 5.78 225.05 5.96C224.923 6.13333 224.83 6.34333 224.77 6.59C224.71 6.83667 224.68 7.11 224.68 7.41C224.68 7.71 224.71 7.98333 224.77 8.23C224.83 8.47667 224.923 8.69 225.05 8.87C225.176 9.05 225.34 9.19 225.54 9.29C225.74 9.39 225.98 9.44 226.26 9.44ZM229.936 4.83H230.796V5.62C231.049 5.28 231.329 5.03667 231.636 4.89C231.942 4.74333 232.266 4.67 232.606 4.67C233.192 4.67 233.626 4.83 233.906 5.15C234.192 5.47 234.336 5.94 234.336 6.56V10H233.466V6.73C233.466 6.25 233.379 5.91333 233.206 5.72C233.032 5.52 232.766 5.42 232.406 5.42C232.212 5.42 232.019 5.45333 231.826 5.52C231.639 5.58667 231.469 5.69333 231.316 5.84C231.149 5.98667 231.022 6.14333 230.936 6.31C230.849 6.47 230.806 6.68 230.806 6.94V10H229.936V4.83ZM237.985 2.86H238.905V5.88H242.515V2.86H243.435V10H242.515V6.74H238.905V10H237.985V2.86ZM244.877 11.1C245.063 11.1667 245.25 11.2 245.437 11.2C245.65 11.2 245.813 11.1433 245.927 11.03C246.047 10.9233 246.163 10.72 246.277 10.42L246.487 9.87L244.297 4.83H245.307L246.937 8.89L248.427 4.83H249.387L247.127 10.49C247.033 10.7233 246.94 10.9267 246.847 11.1C246.753 11.28 246.65 11.4333 246.537 11.56C246.423 11.6867 246.287 11.78 246.127 11.84C245.973 11.9067 245.783 11.94 245.557 11.94C245.397 11.94 245.253 11.93 245.127 11.91C245 11.89 244.86 11.8533 244.707 11.8L244.877 11.1ZM250.131 2.86H251.001V5.55C251.214 5.27 251.461 5.05333 251.741 4.9C252.021 4.74667 252.351 4.67 252.731 4.67C253.098 4.67 253.418 4.73667 253.691 4.87C253.971 5.00333 254.201 5.19 254.381 5.43C254.568 5.67 254.704 5.95667 254.791 6.29C254.884 6.61667 254.931 6.98 254.931 7.38C254.931 7.80667 254.878 8.19333 254.771 8.54C254.664 8.88 254.511 9.17 254.311 9.41C254.111 9.65 253.868 9.83667 253.581 9.97C253.301 10.0967 252.984 10.16 252.631 10.16C252.331 10.16 252.038 10.1 251.751 9.98C251.471 9.85333 251.218 9.64 250.991 9.34V10H250.131V2.86ZM250.991 7.56C250.991 7.89333 251.028 8.18 251.101 8.42C251.181 8.65333 251.288 8.84667 251.421 9C251.554 9.15333 251.714 9.26667 251.901 9.34C252.088 9.40667 252.291 9.44 252.511 9.44C252.724 9.44 252.921 9.40333 253.101 9.33C253.288 9.25667 253.448 9.14 253.581 8.98C253.714 8.81333 253.818 8.6 253.891 8.34C253.971 8.08 254.011 7.76333 254.011 7.39C254.011 7.01 253.968 6.69333 253.881 6.44C253.801 6.18 253.694 5.97333 253.561 5.82C253.428 5.66667 253.274 5.55667 253.101 5.49C252.934 5.42333 252.761 5.39 252.581 5.39C252.354 5.39 252.144 5.43 251.951 5.51C251.758 5.58333 251.588 5.69667 251.441 5.85C251.301 5.99667 251.191 6.18667 251.111 6.42C251.031 6.64667 250.991 6.91 250.991 7.21V7.56ZM256.098 4.83H256.958V5.63C257.151 5.34333 257.378 5.12333 257.638 4.97C257.898 4.81667 258.174 4.74 258.468 4.74C258.648 4.74 258.801 4.75333 258.928 4.78L258.818 5.59C258.751 5.57667 258.684 5.56667 258.618 5.56C258.551 5.54667 258.478 5.54 258.398 5.54C258.238 5.54 258.074 5.57 257.908 5.63C257.741 5.68333 257.584 5.77667 257.438 5.91C257.291 6.03667 257.174 6.18333 257.088 6.35C257.008 6.51667 256.968 6.71 256.968 6.93V10H256.098V4.83ZM259.78 4.83H260.65V10H259.78V4.83ZM259.75 2.86H260.68V3.87H259.75V2.86ZM265.766 9.26C265.553 9.54667 265.306 9.77 265.026 9.93C264.746 10.0833 264.416 10.16 264.036 10.16C263.656 10.16 263.326 10.09 263.046 9.95C262.773 9.81 262.546 9.62 262.366 9.38C262.186 9.13333 262.053 8.84333 261.966 8.51C261.879 8.17667 261.836 7.82 261.836 7.44C261.836 7.01333 261.889 6.63 261.996 6.29C262.103 5.94333 262.253 5.65 262.446 5.41C262.646 5.17 262.886 4.98667 263.166 4.86C263.453 4.73333 263.776 4.67 264.136 4.67C264.409 4.67 264.686 4.72667 264.966 4.84C265.246 4.94667 265.506 5.15333 265.746 5.46V2.86H266.616V10H265.766V9.26ZM265.776 7.26C265.776 6.84667 265.729 6.52667 265.636 6.3C265.549 6.06667 265.403 5.87 265.196 5.71C265.049 5.59 264.899 5.50667 264.746 5.46C264.599 5.41333 264.436 5.39 264.256 5.39C264.043 5.39 263.843 5.42667 263.656 5.5C263.476 5.57333 263.316 5.69333 263.176 5.86C263.043 6.02 262.936 6.23 262.856 6.49C262.783 6.74333 262.746 7.05333 262.746 7.42C262.746 7.8 262.786 8.12 262.866 8.38C262.953 8.64 263.063 8.84667 263.196 9C263.336 9.15333 263.489 9.26333 263.656 9.33C263.829 9.39667 264.006 9.43 264.186 9.43C264.379 9.43 264.553 9.40667 264.706 9.36C264.859 9.31333 265.013 9.23333 265.166 9.12C265.366 8.96 265.516 8.76 265.616 8.52C265.723 8.28 265.776 7.97667 265.776 7.61V7.26ZM274.32 9.38C274.093 9.61333 273.813 9.80333 273.48 9.95C273.146 10.09 272.766 10.16 272.34 10.16C271.873 10.16 271.48 10.1067 271.16 10C270.846 9.88667 270.593 9.73667 270.4 9.55C270.213 9.36333 270.076 9.14667 269.99 8.9C269.91 8.65333 269.87 8.39667 269.87 8.13C269.87 7.86333 269.913 7.62667 270 7.42C270.086 7.20667 270.2 7.01667 270.34 6.85C270.486 6.67667 270.653 6.52333 270.84 6.39C271.033 6.25 271.236 6.12333 271.45 6.01C271.27 5.79667 271.1 5.55667 270.94 5.29C270.78 5.01667 270.7 4.71 270.7 4.37C270.7 4.15 270.74 3.94667 270.82 3.76C270.9 3.56667 271.013 3.40333 271.16 3.27C271.306 3.13 271.483 3.02 271.69 2.94C271.896 2.86 272.123 2.82 272.37 2.82C272.643 2.82 272.883 2.86 273.09 2.94C273.296 3.01333 273.466 3.11667 273.6 3.25C273.74 3.38333 273.843 3.54 273.91 3.72C273.983 3.9 274.02 4.09 274.02 4.29C274.02 4.53 273.98 4.74 273.9 4.92C273.826 5.1 273.723 5.26333 273.59 5.41C273.463 5.55667 273.313 5.69 273.14 5.81C272.966 5.92333 272.786 6.03667 272.6 6.15L274.31 8.16C274.416 7.91333 274.486 7.67 274.52 7.43C274.56 7.19 274.586 6.92667 274.6 6.64H275.41C275.396 7.04 275.34 7.42333 275.24 7.79C275.14 8.15 275.003 8.48 274.83 8.78L275.88 10H274.85L274.32 9.38ZM271.88 6.53C271.733 6.61667 271.593 6.71 271.46 6.81C271.326 6.90333 271.206 7.01 271.1 7.13C271 7.25 270.92 7.38333 270.86 7.53C270.8 7.67667 270.77 7.84 270.77 8.02C270.77 8.22 270.796 8.41 270.85 8.59C270.903 8.76333 270.993 8.91333 271.12 9.04C271.246 9.16667 271.413 9.26667 271.62 9.34C271.833 9.41333 272.1 9.45 272.42 9.45C272.753 9.45 273.036 9.39333 273.27 9.28C273.503 9.16 273.693 9.01333 273.84 8.84L271.88 6.53ZM272.18 5.67C272.3 5.60333 272.423 5.52667 272.55 5.44C272.676 5.35333 272.79 5.26 272.89 5.16C272.996 5.05333 273.08 4.93333 273.14 4.8C273.206 4.66667 273.24 4.51667 273.24 4.35C273.24 4.05667 273.16 3.83667 273 3.69C272.846 3.54333 272.643 3.47 272.39 3.47C272.11 3.47 271.893 3.55 271.74 3.71C271.593 3.86333 271.52 4.08667 271.52 4.38C271.52 4.63333 271.59 4.86667 271.73 5.08C271.87 5.29333 272.02 5.49 272.18 5.67ZM207.79 15.86H212.41V16.67H208.71V18.91H212.21V19.73H208.71V22.19H212.6L212.45 23H207.79V15.86ZM213.628 15.86H214.498V23H213.628V15.86ZM220.324 21.55C220.237 22.05 220.014 22.4433 219.654 22.73C219.3 23.0167 218.79 23.16 218.124 23.16C217.337 23.16 216.734 22.9233 216.314 22.45C215.894 21.97 215.684 21.3033 215.684 20.45C215.684 20.0033 215.744 19.6067 215.864 19.26C215.984 18.9133 216.15 18.6233 216.364 18.39C216.584 18.1567 216.844 17.98 217.144 17.86C217.444 17.7333 217.77 17.67 218.124 17.67C218.524 17.67 218.867 17.7333 219.154 17.86C219.44 17.9867 219.674 18.1633 219.854 18.39C220.04 18.61 220.177 18.8733 220.264 19.18C220.357 19.4867 220.404 19.8233 220.404 20.19V20.63H216.564C216.564 20.89 216.597 21.1333 216.664 21.36C216.737 21.58 216.837 21.7733 216.964 21.94C217.097 22.1 217.26 22.2267 217.454 22.32C217.647 22.4133 217.87 22.46 218.124 22.46C218.557 22.46 218.874 22.38 219.074 22.22C219.274 22.0533 219.41 21.83 219.484 21.55H220.324ZM219.534 19.98C219.534 19.7333 219.507 19.51 219.454 19.31C219.4 19.11 219.317 18.94 219.204 18.8C219.09 18.6533 218.944 18.54 218.764 18.46C218.584 18.38 218.367 18.34 218.114 18.34C217.654 18.34 217.294 18.48 217.034 18.76C216.78 19.04 216.63 19.4467 216.584 19.98H219.534ZM221.557 15.86H222.417V20.02L224.837 17.83H225.887L224.037 19.56L226.087 23H225.097L223.387 20.07L222.417 20.94V23H221.557V15.86ZM227.189 18.52H226.389V17.83H227.189V16.42H228.059V17.83H229.429V18.52H228.059V21.55C228.059 21.8033 228.115 22.0067 228.229 22.16C228.342 22.3133 228.515 22.39 228.749 22.39C228.895 22.39 229.022 22.38 229.129 22.36C229.242 22.34 229.345 22.3133 229.439 22.28L229.589 22.95C229.455 22.9967 229.309 23.0333 229.149 23.06C228.995 23.0933 228.812 23.11 228.599 23.11C228.305 23.11 228.069 23.0667 227.889 22.98C227.709 22.8933 227.565 22.77 227.459 22.61C227.352 22.45 227.279 22.26 227.239 22.04C227.205 21.82 227.189 21.58 227.189 21.32V18.52ZM230.356 17.83H231.216V18.63C231.409 18.3433 231.636 18.1233 231.896 17.97C232.156 17.8167 232.432 17.74 232.726 17.74C232.906 17.74 233.059 17.7533 233.186 17.78L233.076 18.59C233.009 18.5767 232.942 18.5667 232.876 18.56C232.809 18.5467 232.736 18.54 232.656 18.54C232.496 18.54 232.332 18.57 232.166 18.63C231.999 18.6833 231.842 18.7767 231.696 18.91C231.549 19.0367 231.432 19.1833 231.346 19.35C231.266 19.5167 231.226 19.71 231.226 19.93V23H230.356V17.83ZM236.035 23.16C235.642 23.16 235.292 23.0967 234.985 22.97C234.678 22.8433 234.418 22.6633 234.205 22.43C233.992 22.1967 233.828 21.91 233.715 21.57C233.602 21.23 233.545 20.85 233.545 20.43C233.545 20.01 233.605 19.63 233.725 19.29C233.845 18.95 234.015 18.66 234.235 18.42C234.455 18.18 234.718 17.9967 235.025 17.87C235.338 17.7367 235.685 17.67 236.065 17.67C236.452 17.67 236.798 17.7333 237.105 17.86C237.412 17.9867 237.672 18.17 237.885 18.41C238.105 18.6433 238.272 18.9267 238.385 19.26C238.498 19.5933 238.555 19.97 238.555 20.39C238.555 20.8167 238.495 21.2 238.375 21.54C238.262 21.88 238.095 22.17 237.875 22.41C237.662 22.65 237.398 22.8367 237.085 22.97C236.772 23.0967 236.422 23.16 236.035 23.16ZM236.045 22.44C236.325 22.44 236.565 22.39 236.765 22.29C236.965 22.19 237.128 22.05 237.255 21.87C237.388 21.69 237.485 21.4767 237.545 21.23C237.605 20.9767 237.635 20.7 237.635 20.4C237.635 20.1067 237.605 19.8367 237.545 19.59C237.485 19.3433 237.388 19.1333 237.255 18.96C237.128 18.78 236.965 18.64 236.765 18.54C236.565 18.44 236.325 18.39 236.045 18.39C235.765 18.39 235.525 18.44 235.325 18.54C235.132 18.64 234.968 18.78 234.835 18.96C234.708 19.1333 234.615 19.3433 234.555 19.59C234.495 19.8367 234.465 20.11 234.465 20.41C234.465 20.71 234.495 20.9833 234.555 21.23C234.615 21.4767 234.708 21.69 234.835 21.87C234.962 22.05 235.125 22.19 235.325 22.29C235.525 22.39 235.765 22.44 236.045 22.44Z" fill="#484848"/>
<g style="mix-blend-mode:multiply">
<path d="M174.831 2.72382C174.954 2.29524 175.346 2 175.792 2H199.615C200.28 2 200.76 2.63703 200.577 3.27618L194.112 25.7725C193.989 26.201 193.597 26.4963 193.151 26.4963H169.328C168.663 26.4963 168.183 25.8592 168.367 25.2201L174.831 2.72382Z" fill="#F6A219"/>
</g>
</svg>
