<svg width="126" height="236" viewBox="0 0 126 236" fill="none" xmlns="http://www.w3.org/2000/svg">
<path d="M3.552 53.872L1.644 55.024L1.188 54.244L3.66 52.708H4.632V61H3.552V53.872ZM10.7214 52.432H13.5894C14.2214 52.432 14.7414 52.5 15.1494 52.636C15.5654 52.772 15.8894 52.956 16.1214 53.188C16.3614 53.42 16.5254 53.692 16.6134 54.004C16.7094 54.308 16.7574 54.632 16.7574 54.976C16.7574 55.336 16.7094 55.68 16.6134 56.008C16.5174 56.336 16.3494 56.624 16.1094 56.872C15.8694 57.12 15.5454 57.316 15.1374 57.46C14.7294 57.604 14.2134 57.676 13.5894 57.676H11.8134V61H10.7214V52.432ZM13.5774 56.74C13.9934 56.74 14.3374 56.7 14.6094 56.62C14.8814 56.54 15.0934 56.424 15.2454 56.272C15.3974 56.12 15.5014 55.94 15.5574 55.732C15.6214 55.516 15.6534 55.276 15.6534 55.012C15.6534 54.74 15.6214 54.5 15.5574 54.292C15.4934 54.084 15.3814 53.912 15.2214 53.776C15.0614 53.64 14.8454 53.54 14.5734 53.476C14.3094 53.404 13.9734 53.368 13.5654 53.368H11.8134V56.74H13.5774ZM23.0313 59.26C22.9273 59.86 22.6593 60.332 22.2273 60.676C21.8033 61.02 21.1913 61.192 20.3913 61.192C19.4473 61.192 18.7233 60.908 18.2193 60.34C17.7153 59.764 17.4633 58.964 17.4633 57.94C17.4633 57.404 17.5353 56.928 17.6793 56.512C17.8233 56.096 18.0233 55.748 18.2793 55.468C18.5433 55.188 18.8553 54.976 19.2153 54.832C19.5753 54.68 19.9673 54.604 20.3913 54.604C20.8713 54.604 21.2833 54.68 21.6273 54.832C21.9713 54.984 22.2513 55.196 22.4673 55.468C22.6913 55.732 22.8553 56.048 22.9593 56.416C23.0713 56.784 23.1273 57.188 23.1273 57.628V58.156H18.5193C18.5193 58.468 18.5593 58.76 18.6393 59.032C18.7273 59.296 18.8473 59.528 18.9993 59.728C19.1593 59.92 19.3553 60.072 19.5873 60.184C19.8193 60.296 20.0873 60.352 20.3913 60.352C20.9113 60.352 21.2913 60.256 21.5313 60.064C21.7713 59.864 21.9353 59.596 22.0233 59.26H23.0313ZM22.0833 57.376C22.0833 57.08 22.0513 56.812 21.9873 56.572C21.9233 56.332 21.8233 56.128 21.6873 55.96C21.5513 55.784 21.3753 55.648 21.1593 55.552C20.9433 55.456 20.6833 55.408 20.3793 55.408C19.8273 55.408 19.3953 55.576 19.0833 55.912C18.7793 56.248 18.5993 56.736 18.5433 57.376H22.0833ZM24.511 54.796H25.543V55.756C25.775 55.412 26.047 55.148 26.359 54.964C26.671 54.78 27.003 54.688 27.355 54.688C27.571 54.688 27.755 54.704 27.907 54.736L27.775 55.708C27.695 55.692 27.615 55.68 27.535 55.672C27.455 55.656 27.367 55.648 27.271 55.648C27.079 55.648 26.883 55.684 26.683 55.756C26.483 55.82 26.295 55.932 26.119 56.092C25.943 56.244 25.803 56.42 25.699 56.62C25.603 56.82 25.555 57.052 25.555 57.316V61H24.511V54.796ZM29.4604 59.188C29.5324 59.62 29.7124 59.924 30.0004 60.1C30.2964 60.268 30.6964 60.352 31.2004 60.352C31.7284 60.352 32.1004 60.264 32.3164 60.088C32.5404 59.904 32.6524 59.664 32.6524 59.368C32.6524 59.248 32.6364 59.136 32.6044 59.032C32.5804 58.92 32.5284 58.824 32.4484 58.744C32.3684 58.656 32.2564 58.58 32.1124 58.516C31.9684 58.452 31.7804 58.4 31.5484 58.36L30.7564 58.24C30.4044 58.184 30.0964 58.112 29.8324 58.024C29.5684 57.936 29.3444 57.824 29.1604 57.688C28.9764 57.544 28.8364 57.372 28.7404 57.172C28.6524 56.964 28.6084 56.716 28.6084 56.428C28.6084 56.14 28.6684 55.884 28.7884 55.66C28.9164 55.436 29.0884 55.248 29.3044 55.096C29.5284 54.936 29.7884 54.816 30.0844 54.736C30.3884 54.648 30.7164 54.604 31.0684 54.604C31.5164 54.604 31.8884 54.648 32.1844 54.736C32.4884 54.824 32.7364 54.944 32.9284 55.096C33.1204 55.248 33.2684 55.428 33.3724 55.636C33.4764 55.844 33.5564 56.064 33.6124 56.296L32.6644 56.452C32.6084 56.284 32.5444 56.136 32.4724 56.008C32.4004 55.88 32.3044 55.776 32.1844 55.696C32.0644 55.608 31.9164 55.544 31.7404 55.504C31.5724 55.456 31.3604 55.432 31.1044 55.432C30.8164 55.432 30.5764 55.46 30.3844 55.516C30.1924 55.564 30.0364 55.632 29.9164 55.72C29.8044 55.808 29.7244 55.908 29.6764 56.02C29.6284 56.124 29.6044 56.236 29.6044 56.356C29.6044 56.484 29.6204 56.6 29.6524 56.704C29.6844 56.8 29.7444 56.888 29.8324 56.968C29.9204 57.04 30.0404 57.104 30.1924 57.16C30.3444 57.216 30.5404 57.264 30.7804 57.304L31.6804 57.448C32.4084 57.568 32.9284 57.776 33.2404 58.072C33.5604 58.368 33.7204 58.8 33.7204 59.368C33.7204 59.632 33.6684 59.876 33.5644 60.1C33.4604 60.316 33.3044 60.508 33.0964 60.676C32.8884 60.836 32.6284 60.96 32.3164 61.048C32.0044 61.144 31.6404 61.192 31.2244 61.192C30.8484 61.192 30.4964 61.156 30.1684 61.084C29.8484 61.012 29.5644 60.9 29.3164 60.748C29.0684 60.588 28.8684 60.38 28.7164 60.124C28.5644 59.868 28.4764 59.556 28.4524 59.188H29.4604ZM37.6661 61.192C37.1941 61.192 36.7741 61.116 36.4061 60.964C36.0381 60.812 35.7261 60.596 35.4701 60.316C35.2141 60.036 35.0181 59.692 34.8821 59.284C34.7461 58.876 34.6781 58.42 34.6781 57.916C34.6781 57.412 34.7501 56.956 34.8941 56.548C35.0381 56.14 35.2421 55.792 35.5061 55.504C35.7701 55.216 36.0861 54.996 36.4541 54.844C36.8301 54.684 37.2461 54.604 37.7021 54.604C38.1661 54.604 38.5821 54.68 38.9501 54.832C39.3181 54.984 39.6301 55.204 39.8861 55.492C40.1501 55.772 40.3501 56.112 40.4861 56.512C40.6221 56.912 40.6901 57.364 40.6901 57.868C40.6901 58.38 40.6181 58.84 40.4741 59.248C40.3381 59.656 40.1381 60.004 39.8741 60.292C39.6181 60.58 39.3021 60.804 38.9261 60.964C38.5501 61.116 38.1301 61.192 37.6661 61.192ZM37.6781 60.328C38.0141 60.328 38.3021 60.268 38.5421 60.148C38.7821 60.028 38.9781 59.86 39.1301 59.644C39.2901 59.428 39.4061 59.172 39.4781 58.876C39.5501 58.572 39.5861 58.24 39.5861 57.88C39.5861 57.528 39.5501 57.204 39.4781 56.908C39.4061 56.612 39.2901 56.36 39.1301 56.152C38.9781 55.936 38.7821 55.768 38.5421 55.648C38.3021 55.528 38.0141 55.468 37.6781 55.468C37.3421 55.468 37.0541 55.528 36.8141 55.648C36.5821 55.768 36.3861 55.936 36.2261 56.152C36.0741 56.36 35.9621 56.612 35.8901 56.908C35.8181 57.204 35.7821 57.532 35.7821 57.892C35.7821 58.252 35.8181 58.58 35.8901 58.876C35.9621 59.172 36.0741 59.428 36.2261 59.644C36.3781 59.86 36.5741 60.028 36.8141 60.148C37.0541 60.268 37.3421 60.328 37.6781 60.328ZM42.0892 54.796H43.1212V55.744C43.4252 55.336 43.7612 55.044 44.1292 54.868C44.4972 54.692 44.8852 54.604 45.2932 54.604C45.9972 54.604 46.5172 54.796 46.8532 55.18C47.1972 55.564 47.3692 56.128 47.3692 56.872V61H46.3252V57.076C46.3252 56.5 46.2212 56.096 46.0132 55.864C45.8052 55.624 45.4852 55.504 45.0532 55.504C44.8212 55.504 44.5892 55.544 44.3572 55.624C44.1332 55.704 43.9292 55.832 43.7452 56.008C43.5452 56.184 43.3932 56.372 43.2892 56.572C43.1852 56.764 43.1332 57.016 43.1332 57.328V61H42.0892V54.796ZM54.3888 61.192C53.9168 61.192 53.4968 61.116 53.1288 60.964C52.7608 60.812 52.4488 60.596 52.1928 60.316C51.9368 60.036 51.7408 59.692 51.6048 59.284C51.4688 58.876 51.4008 58.42 51.4008 57.916C51.4008 57.412 51.4728 56.956 51.6168 56.548C51.7608 56.14 51.9648 55.792 52.2288 55.504C52.4928 55.216 52.8088 54.996 53.1768 54.844C53.5528 54.684 53.9688 54.604 54.4248 54.604C54.8888 54.604 55.3048 54.68 55.6728 54.832C56.0408 54.984 56.3528 55.204 56.6088 55.492C56.8728 55.772 57.0728 56.112 57.2088 56.512C57.3448 56.912 57.4128 57.364 57.4128 57.868C57.4128 58.38 57.3408 58.84 57.1968 59.248C57.0608 59.656 56.8608 60.004 56.5968 60.292C56.3408 60.58 56.0248 60.804 55.6488 60.964C55.2728 61.116 54.8528 61.192 54.3888 61.192ZM54.4008 60.328C54.7368 60.328 55.0248 60.268 55.2648 60.148C55.5048 60.028 55.7008 59.86 55.8528 59.644C56.0128 59.428 56.1288 59.172 56.2008 58.876C56.2728 58.572 56.3088 58.24 56.3088 57.88C56.3088 57.528 56.2728 57.204 56.2008 56.908C56.1288 56.612 56.0128 56.36 55.8528 56.152C55.7008 55.936 55.5048 55.768 55.2648 55.648C55.0248 55.528 54.7368 55.468 54.4008 55.468C54.0648 55.468 53.7768 55.528 53.5368 55.648C53.3048 55.768 53.1088 55.936 52.9488 56.152C52.7968 56.36 52.6848 56.612 52.6128 56.908C52.5408 57.204 52.5048 57.532 52.5048 57.892C52.5048 58.252 52.5408 58.58 52.6128 58.876C52.6848 59.172 52.7968 59.428 52.9488 59.644C53.1008 59.86 53.2968 60.028 53.5368 60.148C53.7768 60.268 54.0648 60.328 54.4008 60.328ZM58.8118 52.432H59.8558V55.72C60.1598 55.328 60.4918 55.044 60.8518 54.868C61.2198 54.692 61.6078 54.604 62.0158 54.604C62.7198 54.604 63.2398 54.796 63.5758 55.18C63.9198 55.564 64.0918 56.128 64.0918 56.872V61H63.0358V57.076C63.0358 56.5 62.9318 56.096 62.7238 55.864C62.5238 55.624 62.2078 55.504 61.7758 55.504C61.5438 55.504 61.3118 55.544 61.0798 55.624C60.8558 55.704 60.6518 55.832 60.4678 56.008C60.2678 56.184 60.1158 56.372 60.0118 56.572C59.9078 56.764 59.8558 57.016 59.8558 57.328V61H58.8118V52.432ZM65.6556 54.796H66.6876V55.744C66.9916 55.336 67.3276 55.044 67.6956 54.868C68.0636 54.692 68.4516 54.604 68.8596 54.604C69.5636 54.604 70.0836 54.796 70.4196 55.18C70.7636 55.564 70.9356 56.128 70.9356 56.872V61H69.8916V57.076C69.8916 56.5 69.7876 56.096 69.5796 55.864C69.3716 55.624 69.0516 55.504 68.6196 55.504C68.3876 55.504 68.1556 55.544 67.9236 55.624C67.6996 55.704 67.4956 55.832 67.3116 56.008C67.1116 56.184 66.9596 56.372 66.8556 56.572C66.7516 56.764 66.6996 57.016 66.6996 57.328V61H65.6556V54.796ZM77.8633 59.26C77.7593 59.86 77.4913 60.332 77.0593 60.676C76.6353 61.02 76.0233 61.192 75.2233 61.192C74.2793 61.192 73.5553 60.908 73.0513 60.34C72.5473 59.764 72.2953 58.964 72.2953 57.94C72.2953 57.404 72.3673 56.928 72.5113 56.512C72.6553 56.096 72.8553 55.748 73.1113 55.468C73.3753 55.188 73.6873 54.976 74.0473 54.832C74.4073 54.68 74.7993 54.604 75.2233 54.604C75.7033 54.604 76.1153 54.68 76.4593 54.832C76.8033 54.984 77.0833 55.196 77.2993 55.468C77.5233 55.732 77.6873 56.048 77.7913 56.416C77.9033 56.784 77.9593 57.188 77.9593 57.628V58.156H73.3513C73.3513 58.468 73.3913 58.76 73.4713 59.032C73.5593 59.296 73.6793 59.528 73.8313 59.728C73.9913 59.92 74.1873 60.072 74.4193 60.184C74.6513 60.296 74.9193 60.352 75.2233 60.352C75.7433 60.352 76.1233 60.256 76.3633 60.064C76.6033 59.864 76.7673 59.596 76.8553 59.26H77.8633ZM76.9153 57.376C76.9153 57.08 76.8833 56.812 76.8193 56.572C76.7553 56.332 76.6553 56.128 76.5193 55.96C76.3833 55.784 76.2073 55.648 75.9913 55.552C75.7753 55.456 75.5153 55.408 75.2113 55.408C74.6593 55.408 74.2273 55.576 73.9153 55.912C73.6113 56.248 73.4313 56.736 73.3753 57.376H76.9153ZM84.6789 52.432H85.8429L89.1669 61H87.9669L87.0669 58.612H83.3949L82.4949 61H81.3429L84.6789 52.432ZM86.7309 57.652L85.2189 53.68L83.7309 57.652H86.7309ZM89.9477 54.796H90.9917V58.708C90.9917 59.284 91.0837 59.692 91.2677 59.932C91.4597 60.172 91.7677 60.292 92.1917 60.292C92.6557 60.292 93.0757 60.124 93.4517 59.788C93.6517 59.612 93.8037 59.428 93.9077 59.236C94.0117 59.036 94.0637 58.78 94.0637 58.468V54.796H95.1077V61H94.0757V60.04C93.7717 60.44 93.4437 60.732 93.0917 60.916C92.7397 61.1 92.3597 61.192 91.9517 61.192C91.2477 61.192 90.7357 61.004 90.4157 60.628C90.1037 60.244 89.9477 59.672 89.9477 58.912V54.796ZM97.0703 55.624H96.1103V54.796H97.0703V53.104H98.1143V54.796H99.7583V55.624H98.1143V59.26C98.1143 59.564 98.1823 59.808 98.3183 59.992C98.4543 60.176 98.6623 60.268 98.9423 60.268C99.1183 60.268 99.2703 60.256 99.3983 60.232C99.5343 60.208 99.6583 60.176 99.7703 60.136L99.9503 60.94C99.7903 60.996 99.6143 61.04 99.4223 61.072C99.2383 61.112 99.0183 61.132 98.7623 61.132C98.4103 61.132 98.1263 61.08 97.9103 60.976C97.6943 60.872 97.5223 60.724 97.3943 60.532C97.2663 60.34 97.1783 60.112 97.1303 59.848C97.0903 59.584 97.0703 59.296 97.0703 58.984V55.624ZM103.479 61.192C103.007 61.192 102.587 61.116 102.219 60.964C101.851 60.812 101.539 60.596 101.283 60.316C101.027 60.036 100.831 59.692 100.695 59.284C100.559 58.876 100.491 58.42 100.491 57.916C100.491 57.412 100.563 56.956 100.707 56.548C100.851 56.14 101.055 55.792 101.319 55.504C101.583 55.216 101.899 54.996 102.267 54.844C102.643 54.684 103.059 54.604 103.515 54.604C103.979 54.604 104.395 54.68 104.763 54.832C105.131 54.984 105.443 55.204 105.699 55.492C105.963 55.772 106.163 56.112 106.299 56.512C106.435 56.912 106.503 57.364 106.503 57.868C106.503 58.38 106.431 58.84 106.287 59.248C106.151 59.656 105.951 60.004 105.687 60.292C105.431 60.58 105.115 60.804 104.739 60.964C104.363 61.116 103.943 61.192 103.479 61.192ZM103.491 60.328C103.827 60.328 104.115 60.268 104.355 60.148C104.595 60.028 104.791 59.86 104.943 59.644C105.103 59.428 105.219 59.172 105.291 58.876C105.363 58.572 105.399 58.24 105.399 57.88C105.399 57.528 105.363 57.204 105.291 56.908C105.219 56.612 105.103 56.36 104.943 56.152C104.791 55.936 104.595 55.768 104.355 55.648C104.115 55.528 103.827 55.468 103.491 55.468C103.155 55.468 102.867 55.528 102.627 55.648C102.395 55.768 102.199 55.936 102.039 56.152C101.887 56.36 101.775 56.612 101.703 56.908C101.631 57.204 101.595 57.532 101.595 57.892C101.595 58.252 101.631 58.58 101.703 58.876C101.775 59.172 101.887 59.428 102.039 59.644C102.191 59.86 102.387 60.028 102.627 60.148C102.867 60.268 103.155 60.328 103.491 60.328Z" fill="#484848"/>
<path d="M3.552 139.872L1.644 141.024L1.188 140.244L3.66 138.708H4.632V147H3.552V139.872ZM10.7214 138.432H13.5894C14.2214 138.432 14.7414 138.5 15.1494 138.636C15.5654 138.772 15.8894 138.956 16.1214 139.188C16.3614 139.42 16.5254 139.692 16.6134 140.004C16.7094 140.308 16.7574 140.632 16.7574 140.976C16.7574 141.336 16.7094 141.68 16.6134 142.008C16.5174 142.336 16.3494 142.624 16.1094 142.872C15.8694 143.12 15.5454 143.316 15.1374 143.46C14.7294 143.604 14.2134 143.676 13.5894 143.676H11.8134V147H10.7214V138.432ZM13.5774 142.74C13.9934 142.74 14.3374 142.7 14.6094 142.62C14.8814 142.54 15.0934 142.424 15.2454 142.272C15.3974 142.12 15.5014 141.94 15.5574 141.732C15.6214 141.516 15.6534 141.276 15.6534 141.012C15.6534 140.74 15.6214 140.5 15.5574 140.292C15.4934 140.084 15.3814 139.912 15.2214 139.776C15.0614 139.64 14.8454 139.54 14.5734 139.476C14.3094 139.404 13.9734 139.368 13.5654 139.368H11.8134V142.74H13.5774ZM23.0313 145.26C22.9273 145.86 22.6593 146.332 22.2273 146.676C21.8033 147.02 21.1913 147.192 20.3913 147.192C19.4473 147.192 18.7233 146.908 18.2193 146.34C17.7153 145.764 17.4633 144.964 17.4633 143.94C17.4633 143.404 17.5353 142.928 17.6793 142.512C17.8233 142.096 18.0233 141.748 18.2793 141.468C18.5433 141.188 18.8553 140.976 19.2153 140.832C19.5753 140.68 19.9673 140.604 20.3913 140.604C20.8713 140.604 21.2833 140.68 21.6273 140.832C21.9713 140.984 22.2513 141.196 22.4673 141.468C22.6913 141.732 22.8553 142.048 22.9593 142.416C23.0713 142.784 23.1273 143.188 23.1273 143.628V144.156H18.5193C18.5193 144.468 18.5593 144.76 18.6393 145.032C18.7273 145.296 18.8473 145.528 18.9993 145.728C19.1593 145.92 19.3553 146.072 19.5873 146.184C19.8193 146.296 20.0873 146.352 20.3913 146.352C20.9113 146.352 21.2913 146.256 21.5313 146.064C21.7713 145.864 21.9353 145.596 22.0233 145.26H23.0313ZM22.0833 143.376C22.0833 143.08 22.0513 142.812 21.9873 142.572C21.9233 142.332 21.8233 142.128 21.6873 141.96C21.5513 141.784 21.3753 141.648 21.1593 141.552C20.9433 141.456 20.6833 141.408 20.3793 141.408C19.8273 141.408 19.3953 141.576 19.0833 141.912C18.7793 142.248 18.5993 142.736 18.5433 143.376H22.0833ZM24.511 140.796H25.543V141.756C25.775 141.412 26.047 141.148 26.359 140.964C26.671 140.78 27.003 140.688 27.355 140.688C27.571 140.688 27.755 140.704 27.907 140.736L27.775 141.708C27.695 141.692 27.615 141.68 27.535 141.672C27.455 141.656 27.367 141.648 27.271 141.648C27.079 141.648 26.883 141.684 26.683 141.756C26.483 141.82 26.295 141.932 26.119 142.092C25.943 142.244 25.803 142.42 25.699 142.62C25.603 142.82 25.555 143.052 25.555 143.316V147H24.511V140.796ZM29.4604 145.188C29.5324 145.62 29.7124 145.924 30.0004 146.1C30.2964 146.268 30.6964 146.352 31.2004 146.352C31.7284 146.352 32.1004 146.264 32.3164 146.088C32.5404 145.904 32.6524 145.664 32.6524 145.368C32.6524 145.248 32.6364 145.136 32.6044 145.032C32.5804 144.92 32.5284 144.824 32.4484 144.744C32.3684 144.656 32.2564 144.58 32.1124 144.516C31.9684 144.452 31.7804 144.4 31.5484 144.36L30.7564 144.24C30.4044 144.184 30.0964 144.112 29.8324 144.024C29.5684 143.936 29.3444 143.824 29.1604 143.688C28.9764 143.544 28.8364 143.372 28.7404 143.172C28.6524 142.964 28.6084 142.716 28.6084 142.428C28.6084 142.14 28.6684 141.884 28.7884 141.66C28.9164 141.436 29.0884 141.248 29.3044 141.096C29.5284 140.936 29.7884 140.816 30.0844 140.736C30.3884 140.648 30.7164 140.604 31.0684 140.604C31.5164 140.604 31.8884 140.648 32.1844 140.736C32.4884 140.824 32.7364 140.944 32.9284 141.096C33.1204 141.248 33.2684 141.428 33.3724 141.636C33.4764 141.844 33.5564 142.064 33.6124 142.296L32.6644 142.452C32.6084 142.284 32.5444 142.136 32.4724 142.008C32.4004 141.88 32.3044 141.776 32.1844 141.696C32.0644 141.608 31.9164 141.544 31.7404 141.504C31.5724 141.456 31.3604 141.432 31.1044 141.432C30.8164 141.432 30.5764 141.46 30.3844 141.516C30.1924 141.564 30.0364 141.632 29.9164 141.72C29.8044 141.808 29.7244 141.908 29.6764 142.02C29.6284 142.124 29.6044 142.236 29.6044 142.356C29.6044 142.484 29.6204 142.6 29.6524 142.704C29.6844 142.8 29.7444 142.888 29.8324 142.968C29.9204 143.04 30.0404 143.104 30.1924 143.16C30.3444 143.216 30.5404 143.264 30.7804 143.304L31.6804 143.448C32.4084 143.568 32.9284 143.776 33.2404 144.072C33.5604 144.368 33.7204 144.8 33.7204 145.368C33.7204 145.632 33.6684 145.876 33.5644 146.1C33.4604 146.316 33.3044 146.508 33.0964 146.676C32.8884 146.836 32.6284 146.96 32.3164 147.048C32.0044 147.144 31.6404 147.192 31.2244 147.192C30.8484 147.192 30.4964 147.156 30.1684 147.084C29.8484 147.012 29.5644 146.9 29.3164 146.748C29.0684 146.588 28.8684 146.38 28.7164 146.124C28.5644 145.868 28.4764 145.556 28.4524 145.188H29.4604ZM37.6661 147.192C37.1941 147.192 36.7741 147.116 36.4061 146.964C36.0381 146.812 35.7261 146.596 35.4701 146.316C35.2141 146.036 35.0181 145.692 34.8821 145.284C34.7461 144.876 34.6781 144.42 34.6781 143.916C34.6781 143.412 34.7501 142.956 34.8941 142.548C35.0381 142.14 35.2421 141.792 35.5061 141.504C35.7701 141.216 36.0861 140.996 36.4541 140.844C36.8301 140.684 37.2461 140.604 37.7021 140.604C38.1661 140.604 38.5821 140.68 38.9501 140.832C39.3181 140.984 39.6301 141.204 39.8861 141.492C40.1501 141.772 40.3501 142.112 40.4861 142.512C40.6221 142.912 40.6901 143.364 40.6901 143.868C40.6901 144.38 40.6181 144.84 40.4741 145.248C40.3381 145.656 40.1381 146.004 39.8741 146.292C39.6181 146.58 39.3021 146.804 38.9261 146.964C38.5501 147.116 38.1301 147.192 37.6661 147.192ZM37.6781 146.328C38.0141 146.328 38.3021 146.268 38.5421 146.148C38.7821 146.028 38.9781 145.86 39.1301 145.644C39.2901 145.428 39.4061 145.172 39.4781 144.876C39.5501 144.572 39.5861 144.24 39.5861 143.88C39.5861 143.528 39.5501 143.204 39.4781 142.908C39.4061 142.612 39.2901 142.36 39.1301 142.152C38.9781 141.936 38.7821 141.768 38.5421 141.648C38.3021 141.528 38.0141 141.468 37.6781 141.468C37.3421 141.468 37.0541 141.528 36.8141 141.648C36.5821 141.768 36.3861 141.936 36.2261 142.152C36.0741 142.36 35.9621 142.612 35.8901 142.908C35.8181 143.204 35.7821 143.532 35.7821 143.892C35.7821 144.252 35.8181 144.58 35.8901 144.876C35.9621 145.172 36.0741 145.428 36.2261 145.644C36.3781 145.86 36.5741 146.028 36.8141 146.148C37.0541 146.268 37.3421 146.328 37.6781 146.328ZM42.0892 140.796H43.1212V141.744C43.4252 141.336 43.7612 141.044 44.1292 140.868C44.4972 140.692 44.8852 140.604 45.2932 140.604C45.9972 140.604 46.5172 140.796 46.8532 141.18C47.1972 141.564 47.3692 142.128 47.3692 142.872V147H46.3252V143.076C46.3252 142.5 46.2212 142.096 46.0132 141.864C45.8052 141.624 45.4852 141.504 45.0532 141.504C44.8212 141.504 44.5892 141.544 44.3572 141.624C44.1332 141.704 43.9292 141.832 43.7452 142.008C43.5452 142.184 43.3932 142.372 43.2892 142.572C43.1852 142.764 43.1332 143.016 43.1332 143.328V147H42.0892V140.796ZM51.6048 140.796H52.6368V141.744C52.9168 141.36 53.2248 141.076 53.5608 140.892C53.8968 140.7 54.2408 140.604 54.5928 140.604C55.0568 140.604 55.4288 140.704 55.7088 140.904C55.9968 141.104 56.2088 141.392 56.3448 141.768C56.6248 141.384 56.9448 141.096 57.3048 140.904C57.6648 140.704 58.0488 140.604 58.4568 140.604C59.0648 140.604 59.5328 140.772 59.8608 141.108C60.1968 141.436 60.3648 141.968 60.3648 142.704V147H59.3208V142.944C59.3208 142.664 59.2968 142.432 59.2488 142.248C59.2008 142.056 59.1288 141.908 59.0328 141.804C58.9448 141.692 58.8328 141.616 58.6968 141.576C58.5608 141.528 58.4048 141.504 58.2288 141.504C58.0448 141.504 57.8528 141.536 57.6528 141.6C57.4528 141.664 57.2568 141.776 57.0648 141.936C56.9048 142.072 56.7728 142.236 56.6688 142.428C56.5648 142.62 56.5128 142.84 56.5128 143.088V147H55.4688V142.956C55.4688 142.412 55.3728 142.036 55.1808 141.828C54.9968 141.612 54.7288 141.504 54.3768 141.504C53.9688 141.504 53.5848 141.672 53.2248 142.008C53.0888 142.136 52.9568 142.3 52.8288 142.5C52.7088 142.7 52.6488 142.968 52.6488 143.304V147H51.6048V140.796ZM61.9647 140.796H63.0087V147H61.9647V140.796ZM61.9287 138.432H63.0447V139.644H61.9287V138.432ZM64.996 141.624H64.036V140.796H64.996V139.104H66.04V140.796H67.684V141.624H66.04V145.26C66.04 145.564 66.108 145.808 66.244 145.992C66.38 146.176 66.588 146.268 66.868 146.268C67.044 146.268 67.196 146.256 67.324 146.232C67.46 146.208 67.584 146.176 67.696 146.136L67.876 146.94C67.716 146.996 67.54 147.04 67.348 147.072C67.164 147.112 66.944 147.132 66.688 147.132C66.336 147.132 66.052 147.08 65.836 146.976C65.62 146.872 65.448 146.724 65.32 146.532C65.192 146.34 65.104 146.112 65.056 145.848C65.016 145.584 64.996 145.296 64.996 144.984V141.624ZM74.1321 138.432H75.2961L78.6201 147H77.4201L76.5201 144.612H72.8481L71.9481 147H70.7961L74.1321 138.432ZM76.1841 143.652L74.6721 139.68L73.1841 143.652H76.1841ZM79.4008 140.796H80.4448V144.708C80.4448 145.284 80.5368 145.692 80.7208 145.932C80.9128 146.172 81.2208 146.292 81.6448 146.292C82.1088 146.292 82.5288 146.124 82.9048 145.788C83.1048 145.612 83.2568 145.428 83.3608 145.236C83.4648 145.036 83.5168 144.78 83.5168 144.468V140.796H84.5608V147H83.5288V146.04C83.2248 146.44 82.8968 146.732 82.5448 146.916C82.1928 147.1 81.8128 147.192 81.4048 147.192C80.7008 147.192 80.1888 147.004 79.8688 146.628C79.5568 146.244 79.4008 145.672 79.4008 144.912V140.796ZM86.5234 141.624H85.5634V140.796H86.5234V139.104H87.5674V140.796H89.2114V141.624H87.5674V145.26C87.5674 145.564 87.6354 145.808 87.7714 145.992C87.9074 146.176 88.1154 146.268 88.3954 146.268C88.5714 146.268 88.7234 146.256 88.8514 146.232C88.9874 146.208 89.1114 146.176 89.2234 146.136L89.4034 146.94C89.2434 146.996 89.0674 147.04 88.8754 147.072C88.6914 147.112 88.4714 147.132 88.2154 147.132C87.8634 147.132 87.5794 147.08 87.3634 146.976C87.1474 146.872 86.9754 146.724 86.8474 146.532C86.7194 146.34 86.6314 146.112 86.5834 145.848C86.5434 145.584 86.5234 145.296 86.5234 144.984V141.624ZM92.9318 147.192C92.4598 147.192 92.0398 147.116 91.6718 146.964C91.3038 146.812 90.9918 146.596 90.7358 146.316C90.4798 146.036 90.2838 145.692 90.1478 145.284C90.0118 144.876 89.9438 144.42 89.9438 143.916C89.9438 143.412 90.0158 142.956 90.1598 142.548C90.3038 142.14 90.5078 141.792 90.7718 141.504C91.0358 141.216 91.3518 140.996 91.7198 140.844C92.0958 140.684 92.5118 140.604 92.9678 140.604C93.4318 140.604 93.8478 140.68 94.2158 140.832C94.5838 140.984 94.8958 141.204 95.1518 141.492C95.4158 141.772 95.6158 142.112 95.7518 142.512C95.8878 142.912 95.9557 143.364 95.9557 143.868C95.9557 144.38 95.8838 144.84 95.7398 145.248C95.6038 145.656 95.4038 146.004 95.1398 146.292C94.8838 146.58 94.5678 146.804 94.1918 146.964C93.8158 147.116 93.3958 147.192 92.9318 147.192ZM92.9438 146.328C93.2798 146.328 93.5678 146.268 93.8078 146.148C94.0478 146.028 94.2438 145.86 94.3958 145.644C94.5558 145.428 94.6718 145.172 94.7438 144.876C94.8158 144.572 94.8518 144.24 94.8518 143.88C94.8518 143.528 94.8158 143.204 94.7438 142.908C94.6718 142.612 94.5558 142.36 94.3958 142.152C94.2438 141.936 94.0478 141.768 93.8078 141.648C93.5678 141.528 93.2798 141.468 92.9438 141.468C92.6078 141.468 92.3198 141.528 92.0798 141.648C91.8478 141.768 91.6518 141.936 91.4918 142.152C91.3398 142.36 91.2278 142.612 91.1558 142.908C91.0838 143.204 91.0478 143.532 91.0478 143.892C91.0478 144.252 91.0838 144.58 91.1558 144.876C91.2278 145.172 91.3398 145.428 91.4918 145.644C91.6438 145.86 91.8398 146.028 92.0798 146.148C92.3198 146.268 92.6078 146.328 92.9438 146.328Z" fill="#484848"/>
<path d="M5.316 232.112C5.06 232.456 4.764 232.724 4.428 232.916C4.092 233.1 3.696 233.192 3.24 233.192C2.784 233.192 2.388 233.108 2.052 232.94C1.724 232.772 1.452 232.544 1.236 232.256C1.02 231.96 0.86 231.612 0.756 231.212C0.652 230.812 0.6 230.384 0.6 229.928C0.6 229.416 0.664 228.956 0.792 228.548C0.92 228.132 1.1 227.78 1.332 227.492C1.572 227.204 1.86 226.984 2.196 226.832C2.54 226.68 2.928 226.604 3.36 226.604C3.688 226.604 4.02 226.672 4.356 226.808C4.692 226.936 5.004 227.184 5.292 227.552V224.432H6.336V233H5.316V232.112ZM5.328 229.712C5.328 229.216 5.272 228.832 5.16 228.56C5.056 228.28 4.88 228.044 4.632 227.852C4.456 227.708 4.276 227.608 4.092 227.552C3.916 227.496 3.72 227.468 3.504 227.468C3.248 227.468 3.008 227.512 2.784 227.6C2.568 227.688 2.376 227.832 2.208 228.032C2.048 228.224 1.92 228.476 1.824 228.788C1.736 229.092 1.692 229.464 1.692 229.904C1.692 230.36 1.74 230.744 1.836 231.056C1.94 231.368 2.072 231.616 2.232 231.8C2.4 231.984 2.584 232.116 2.784 232.196C2.992 232.276 3.204 232.316 3.42 232.316C3.652 232.316 3.86 232.288 4.044 232.232C4.228 232.176 4.412 232.08 4.596 231.944C4.836 231.752 5.016 231.512 5.136 231.224C5.264 230.936 5.328 230.572 5.328 230.132V229.712ZM11.8164 232.148C11.5924 232.42 11.3084 232.656 10.9644 232.856C10.6204 233.048 10.1924 233.144 9.68044 233.144C9.36844 233.144 9.08044 233.104 8.81644 233.024C8.56044 232.952 8.33644 232.84 8.14444 232.688C7.96044 232.528 7.81644 232.332 7.71244 232.1C7.60844 231.868 7.55644 231.596 7.55644 231.284C7.55644 230.86 7.64444 230.516 7.82044 230.252C8.00444 229.988 8.24444 229.78 8.54044 229.628C8.84444 229.476 9.18444 229.368 9.56044 229.304C9.93644 229.24 10.3244 229.2 10.7244 229.184L11.7924 229.148V228.908C11.7924 228.38 11.6804 228 11.4564 227.768C11.2324 227.536 10.8684 227.42 10.3644 227.42C9.86844 227.42 9.50444 227.504 9.27244 227.672C9.04044 227.832 8.88844 228.056 8.81644 228.344L7.86844 228.236C7.98044 227.668 8.24844 227.256 8.67244 227C9.09644 226.736 9.67244 226.604 10.4004 226.604C10.8484 226.604 11.2244 226.66 11.5284 226.772C11.8404 226.876 12.0924 227.028 12.2844 227.228C12.4764 227.428 12.6124 227.676 12.6924 227.972C12.7804 228.268 12.8244 228.6 12.8244 228.968V233H11.8164V232.148ZM11.7924 229.892L10.7964 229.928C10.3724 229.944 10.0204 229.984 9.74044 230.048C9.46044 230.112 9.23644 230.2 9.06844 230.312C8.90844 230.416 8.79244 230.548 8.72044 230.708C8.65644 230.868 8.62444 231.052 8.62444 231.26C8.62444 231.572 8.71644 231.824 8.90044 232.016C9.09244 232.2 9.40444 232.292 9.83644 232.292C10.4524 232.292 10.9324 232.14 11.2764 231.836C11.6204 231.532 11.7924 231.116 11.7924 230.588V229.892ZM13.5723 226.796H14.7843L16.6323 231.836L18.5163 226.796H19.6683L17.1723 233H16.0563L13.5723 226.796ZM23.0997 233.192C22.6277 233.192 22.2077 233.116 21.8397 232.964C21.4717 232.812 21.1597 232.596 20.9037 232.316C20.6477 232.036 20.4517 231.692 20.3157 231.284C20.1797 230.876 20.1117 230.42 20.1117 229.916C20.1117 229.412 20.1837 228.956 20.3277 228.548C20.4717 228.14 20.6757 227.792 20.9397 227.504C21.2037 227.216 21.5197 226.996 21.8877 226.844C22.2637 226.684 22.6797 226.604 23.1357 226.604C23.5997 226.604 24.0157 226.68 24.3837 226.832C24.7517 226.984 25.0637 227.204 25.3197 227.492C25.5837 227.772 25.7837 228.112 25.9197 228.512C26.0557 228.912 26.1237 229.364 26.1237 229.868C26.1237 230.38 26.0517 230.84 25.9077 231.248C25.7717 231.656 25.5717 232.004 25.3077 232.292C25.0517 232.58 24.7357 232.804 24.3597 232.964C23.9837 233.116 23.5637 233.192 23.0997 233.192ZM23.1117 232.328C23.4477 232.328 23.7357 232.268 23.9757 232.148C24.2157 232.028 24.4117 231.86 24.5637 231.644C24.7237 231.428 24.8397 231.172 24.9117 230.876C24.9837 230.572 25.0197 230.24 25.0197 229.88C25.0197 229.528 24.9837 229.204 24.9117 228.908C24.8397 228.612 24.7237 228.36 24.5637 228.152C24.4117 227.936 24.2157 227.768 23.9757 227.648C23.7357 227.528 23.4477 227.468 23.1117 227.468C22.7757 227.468 22.4877 227.528 22.2477 227.648C22.0157 227.768 21.8197 227.936 21.6597 228.152C21.5077 228.36 21.3957 228.612 21.3237 228.908C21.2517 229.204 21.2157 229.532 21.2157 229.892C21.2157 230.252 21.2517 230.58 21.3237 230.876C21.3957 231.172 21.5077 231.428 21.6597 231.644C21.8117 231.86 22.0077 232.028 22.2477 232.148C22.4877 232.268 22.7757 232.328 23.1117 232.328ZM27.5228 226.796H28.5548V227.744C28.8588 227.336 29.1948 227.044 29.5628 226.868C29.9308 226.692 30.3188 226.604 30.7268 226.604C31.4308 226.604 31.9508 226.796 32.2868 227.18C32.6308 227.564 32.8028 228.128 32.8028 228.872V233H31.7588V229.076C31.7588 228.5 31.6548 228.096 31.4468 227.864C31.2388 227.624 30.9188 227.504 30.4868 227.504C30.2548 227.504 30.0228 227.544 29.7908 227.624C29.5668 227.704 29.3628 227.832 29.1788 228.008C28.9788 228.184 28.8268 228.372 28.7228 228.572C28.6188 228.764 28.5668 229.016 28.5668 229.328V233H27.5228V226.796ZM37.1824 224.432H38.2864V228.056H42.6184V224.432H43.7224V233H42.6184V229.088H38.2864V233H37.1824V224.432ZM45.4519 234.32C45.6759 234.4 45.8999 234.44 46.1239 234.44C46.3799 234.44 46.5759 234.372 46.7119 234.236C46.8559 234.108 46.9959 233.864 47.1319 233.504L47.3839 232.844L44.7559 226.796H45.9679L47.9239 231.668L49.7119 226.796H50.8639L48.1519 233.588C48.0399 233.868 47.9279 234.112 47.8159 234.32C47.7039 234.536 47.5799 234.72 47.4439 234.872C47.3079 235.024 47.1439 235.136 46.9519 235.208C46.7679 235.288 46.5399 235.328 46.2679 235.328C46.0759 235.328 45.9039 235.316 45.7519 235.292C45.5999 235.268 45.4319 235.224 45.2479 235.16L45.4519 234.32ZM51.7571 224.432H52.8011V227.66C53.0571 227.324 53.3531 227.064 53.6891 226.88C54.0251 226.696 54.4211 226.604 54.8771 226.604C55.3171 226.604 55.7011 226.684 56.0291 226.844C56.3651 227.004 56.6411 227.228 56.8571 227.516C57.0811 227.804 57.2451 228.148 57.3491 228.548C57.4611 228.94 57.5171 229.376 57.5171 229.856C57.5171 230.368 57.4531 230.832 57.3251 231.248C57.1971 231.656 57.0131 232.004 56.7731 232.292C56.5331 232.58 56.2411 232.804 55.8971 232.964C55.5611 233.116 55.1811 233.192 54.7571 233.192C54.3971 233.192 54.0451 233.12 53.7011 232.976C53.3651 232.824 53.0611 232.568 52.7891 232.208V233H51.7571V224.432ZM52.7891 230.072C52.7891 230.472 52.8331 230.816 52.9211 231.104C53.0171 231.384 53.1451 231.616 53.3051 231.8C53.4651 231.984 53.6571 232.12 53.8811 232.208C54.1051 232.288 54.3491 232.328 54.6131 232.328C54.8691 232.328 55.1051 232.284 55.3211 232.196C55.5451 232.108 55.7371 231.968 55.8971 231.776C56.0571 231.576 56.1811 231.32 56.2691 231.008C56.3651 230.696 56.4131 230.316 56.4131 229.868C56.4131 229.412 56.3611 229.032 56.2571 228.728C56.1611 228.416 56.0331 228.168 55.8731 227.984C55.7131 227.8 55.5291 227.668 55.3211 227.588C55.1211 227.508 54.9131 227.468 54.6971 227.468C54.4251 227.468 54.1731 227.516 53.9411 227.612C53.7091 227.7 53.5051 227.836 53.3291 228.02C53.1611 228.196 53.0291 228.424 52.9331 228.704C52.8371 228.976 52.7891 229.292 52.7891 229.652V230.072ZM58.9173 226.796H59.9493V227.756C60.1813 227.412 60.4533 227.148 60.7653 226.964C61.0773 226.78 61.4093 226.688 61.7613 226.688C61.9773 226.688 62.1613 226.704 62.3133 226.736L62.1813 227.708C62.1013 227.692 62.0213 227.68 61.9413 227.672C61.8613 227.656 61.7733 227.648 61.6773 227.648C61.4853 227.648 61.2893 227.684 61.0893 227.756C60.8893 227.82 60.7013 227.932 60.5253 228.092C60.3493 228.244 60.2093 228.42 60.1053 228.62C60.0093 228.82 59.9613 229.052 59.9613 229.316V233H58.9173V226.796ZM63.3358 226.796H64.3798V233H63.3358V226.796ZM63.2998 224.432H64.4158V225.644H63.2998V224.432ZM70.5191 232.112C70.2631 232.456 69.9671 232.724 69.6311 232.916C69.2951 233.1 68.8991 233.192 68.4431 233.192C67.9871 233.192 67.5911 233.108 67.2551 232.94C66.9271 232.772 66.6551 232.544 66.4391 232.256C66.2231 231.96 66.0631 231.612 65.9591 231.212C65.8551 230.812 65.8031 230.384 65.8031 229.928C65.8031 229.416 65.8671 228.956 65.9951 228.548C66.1231 228.132 66.3031 227.78 66.5351 227.492C66.7751 227.204 67.0631 226.984 67.3991 226.832C67.7431 226.68 68.1311 226.604 68.5631 226.604C68.8911 226.604 69.2231 226.672 69.5591 226.808C69.8951 226.936 70.2071 227.184 70.4951 227.552V224.432H71.5391V233H70.5191V232.112ZM70.5311 229.712C70.5311 229.216 70.4751 228.832 70.3631 228.56C70.2591 228.28 70.0831 228.044 69.8351 227.852C69.6591 227.708 69.4791 227.608 69.2951 227.552C69.1191 227.496 68.9231 227.468 68.7071 227.468C68.4511 227.468 68.2111 227.512 67.9871 227.6C67.7711 227.688 67.5791 227.832 67.4111 228.032C67.2511 228.224 67.1231 228.476 67.0271 228.788C66.9391 229.092 66.8951 229.464 66.8951 229.904C66.8951 230.36 66.9431 230.744 67.0391 231.056C67.1431 231.368 67.2751 231.616 67.4351 231.8C67.6031 231.984 67.7871 232.116 67.9871 232.196C68.1951 232.276 68.4071 232.316 68.6231 232.316C68.8551 232.316 69.0631 232.288 69.2471 232.232C69.4311 232.176 69.6151 232.08 69.7991 231.944C70.0391 231.752 70.2191 231.512 70.3391 231.224C70.4671 230.936 70.5311 230.572 70.5311 230.132V229.712ZM80.7834 232.256C80.5114 232.536 80.1754 232.764 79.7754 232.94C79.3754 233.108 78.9194 233.192 78.4074 233.192C77.8474 233.192 77.3754 233.128 76.9914 233C76.6154 232.864 76.3114 232.684 76.0794 232.46C75.8554 232.236 75.6914 231.976 75.5874 231.68C75.4914 231.384 75.4434 231.076 75.4434 230.756C75.4434 230.436 75.4954 230.152 75.5994 229.904C75.7034 229.648 75.8394 229.42 76.0074 229.22C76.1834 229.012 76.3834 228.828 76.6074 228.668C76.8394 228.5 77.0834 228.348 77.3394 228.212C77.1234 227.956 76.9194 227.668 76.7274 227.348C76.5354 227.02 76.4394 226.652 76.4394 226.244C76.4394 225.98 76.4874 225.736 76.5834 225.512C76.6794 225.28 76.8154 225.084 76.9914 224.924C77.1674 224.756 77.3794 224.624 77.6274 224.528C77.8754 224.432 78.1474 224.384 78.4434 224.384C78.7714 224.384 79.0594 224.432 79.3074 224.528C79.5554 224.616 79.7594 224.74 79.9194 224.9C80.0874 225.06 80.2114 225.248 80.2914 225.464C80.3794 225.68 80.4234 225.908 80.4234 226.148C80.4234 226.436 80.3754 226.688 80.2794 226.904C80.1914 227.12 80.0674 227.316 79.9074 227.492C79.7554 227.668 79.5754 227.828 79.3674 227.972C79.1594 228.108 78.9434 228.244 78.7194 228.38L80.7714 230.792C80.8994 230.496 80.9834 230.204 81.0234 229.916C81.0714 229.628 81.1034 229.312 81.1194 228.968H82.0914C82.0754 229.448 82.0074 229.908 81.8874 230.348C81.7674 230.78 81.6034 231.176 81.3954 231.536L82.6554 233H81.4194L80.7834 232.256ZM77.8554 228.836C77.6794 228.94 77.5114 229.052 77.3514 229.172C77.1914 229.284 77.0474 229.412 76.9194 229.556C76.7994 229.7 76.7034 229.86 76.6314 230.036C76.5594 230.212 76.5234 230.408 76.5234 230.624C76.5234 230.864 76.5554 231.092 76.6194 231.308C76.6834 231.516 76.7914 231.696 76.9434 231.848C77.0954 232 77.2954 232.12 77.5434 232.208C77.7994 232.296 78.1194 232.34 78.5034 232.34C78.9034 232.34 79.2434 232.272 79.5234 232.136C79.8034 231.992 80.0314 231.816 80.2074 231.608L77.8554 228.836ZM78.2154 227.804C78.3594 227.724 78.5074 227.632 78.6594 227.528C78.8114 227.424 78.9474 227.312 79.0674 227.192C79.1954 227.064 79.2954 226.92 79.3674 226.76C79.4474 226.6 79.4874 226.42 79.4874 226.22C79.4874 225.868 79.3914 225.604 79.1994 225.428C79.0154 225.252 78.7714 225.164 78.4674 225.164C78.1314 225.164 77.8714 225.26 77.6874 225.452C77.5114 225.636 77.4234 225.904 77.4234 226.256C77.4234 226.56 77.5074 226.84 77.6754 227.096C77.8434 227.352 78.0234 227.588 78.2154 227.804ZM86.2839 224.432H91.8279V225.404H87.3879V228.092H91.5879V229.076H87.3879V232.028H92.0559L91.8759 233H86.2839V224.432ZM93.2889 224.432H94.3329V233H93.2889V224.432ZM101.324 231.26C101.22 231.86 100.952 232.332 100.52 232.676C100.096 233.02 99.4843 233.192 98.6842 233.192C97.7403 233.192 97.0163 232.908 96.5123 232.34C96.0083 231.764 95.7563 230.964 95.7563 229.94C95.7563 229.404 95.8283 228.928 95.9723 228.512C96.1163 228.096 96.3163 227.748 96.5723 227.468C96.8363 227.188 97.1483 226.976 97.5083 226.832C97.8683 226.68 98.2603 226.604 98.6842 226.604C99.1643 226.604 99.5763 226.68 99.9203 226.832C100.264 226.984 100.544 227.196 100.76 227.468C100.984 227.732 101.148 228.048 101.252 228.416C101.364 228.784 101.42 229.188 101.42 229.628V230.156H96.8123C96.8123 230.468 96.8523 230.76 96.9323 231.032C97.0203 231.296 97.1403 231.528 97.2923 231.728C97.4523 231.92 97.6483 232.072 97.8803 232.184C98.1123 232.296 98.3803 232.352 98.6842 232.352C99.2043 232.352 99.5843 232.256 99.8243 232.064C100.064 231.864 100.228 231.596 100.316 231.26H101.324ZM100.376 229.376C100.376 229.08 100.344 228.812 100.28 228.572C100.216 228.332 100.116 228.128 99.9803 227.96C99.8443 227.784 99.6683 227.648 99.4523 227.552C99.2363 227.456 98.9763 227.408 98.6723 227.408C98.1203 227.408 97.6883 227.576 97.3763 227.912C97.0723 228.248 96.8923 228.736 96.8363 229.376H100.376ZM102.804 224.432H103.836V229.424L106.74 226.796H108L105.78 228.872L108.24 233H107.052L105 229.484L103.836 230.528V233H102.804V224.432ZM109.562 227.624H108.602V226.796H109.562V225.104H110.606V226.796H112.25V227.624H110.606V231.26C110.606 231.564 110.674 231.808 110.81 231.992C110.946 232.176 111.154 232.268 111.434 232.268C111.61 232.268 111.762 232.256 111.89 232.232C112.026 232.208 112.15 232.176 112.262 232.136L112.442 232.94C112.282 232.996 112.106 233.04 111.914 233.072C111.73 233.112 111.51 233.132 111.254 233.132C110.902 233.132 110.618 233.08 110.402 232.976C110.186 232.872 110.014 232.724 109.886 232.532C109.758 232.34 109.67 232.112 109.622 231.848C109.582 231.584 109.562 231.296 109.562 230.984V227.624ZM113.363 226.796H114.395V227.756C114.627 227.412 114.899 227.148 115.211 226.964C115.523 226.78 115.855 226.688 116.207 226.688C116.423 226.688 116.607 226.704 116.759 226.736L116.627 227.708C116.547 227.692 116.467 227.68 116.387 227.672C116.307 227.656 116.219 227.648 116.123 227.648C115.931 227.648 115.735 227.684 115.535 227.756C115.335 227.82 115.147 227.932 114.971 228.092C114.795 228.244 114.655 228.42 114.551 228.62C114.455 228.82 114.407 229.052 114.407 229.316V233H113.363V226.796ZM120.178 233.192C119.706 233.192 119.286 233.116 118.918 232.964C118.55 232.812 118.238 232.596 117.982 232.316C117.726 232.036 117.53 231.692 117.394 231.284C117.258 230.876 117.19 230.42 117.19 229.916C117.19 229.412 117.262 228.956 117.406 228.548C117.55 228.14 117.754 227.792 118.018 227.504C118.282 227.216 118.598 226.996 118.966 226.844C119.342 226.684 119.758 226.604 120.214 226.604C120.678 226.604 121.094 226.68 121.462 226.832C121.83 226.984 122.142 227.204 122.398 227.492C122.662 227.772 122.862 228.112 122.998 228.512C123.134 228.912 123.202 229.364 123.202 229.868C123.202 230.38 123.13 230.84 122.986 231.248C122.85 231.656 122.65 232.004 122.386 232.292C122.13 232.58 121.814 232.804 121.438 232.964C121.062 233.116 120.642 233.192 120.178 233.192ZM120.19 232.328C120.526 232.328 120.814 232.268 121.054 232.148C121.294 232.028 121.49 231.86 121.642 231.644C121.802 231.428 121.918 231.172 121.99 230.876C122.062 230.572 122.098 230.24 122.098 229.88C122.098 229.528 122.062 229.204 121.99 228.908C121.918 228.612 121.802 228.36 121.642 228.152C121.49 227.936 121.294 227.768 121.054 227.648C120.814 227.528 120.526 227.468 120.19 227.468C119.854 227.468 119.566 227.528 119.326 227.648C119.094 227.768 118.898 227.936 118.738 228.152C118.586 228.36 118.474 228.612 118.402 228.908C118.33 229.204 118.294 229.532 118.294 229.892C118.294 230.252 118.33 230.58 118.402 230.876C118.474 231.172 118.586 231.428 118.738 231.644C118.89 231.86 119.086 232.028 119.326 232.148C119.566 232.268 119.854 232.328 120.19 232.328Z" fill="#484848"/>
<path d="M9.08645 0.5H37.6722C38.0047 0.5 38.2446 0.818516 38.1527 1.13809L30.3941 28.1381C30.3325 28.3524 30.1365 28.5 29.9136 28.5H1.32782C0.995318 28.5 0.75544 28.1815 0.847271 27.8619L8.60589 0.861909C8.66747 0.647622 8.86349 0.5 9.08645 0.5Z" stroke="#484848"/>
<path d="M11.0864 86.5H39.6722C40.0047 86.5 40.2446 86.8185 40.1527 87.1381L32.3941 114.138C32.3325 114.352 32.1365 114.5 31.9136 114.5H3.32782C2.99532 114.5 2.75544 114.181 2.84727 113.862L10.6059 86.8619C10.6675 86.6476 10.8635 86.5 11.0864 86.5Z" stroke="#484848"/>
<g style="mix-blend-mode:multiply">
<path d="M8.12534 81.7238C8.24849 81.2952 8.64053 81 9.08645 81H37.6722C38.3372 81 38.8169 81.637 38.6333 82.2762L30.8747 109.276C30.7515 109.705 30.3595 110 29.9136 110H1.32782C0.662812 110 0.183056 109.363 0.366718 108.724L8.12534 81.7238Z" fill="#FF7B7B"/>
</g>
<path d="M11.0864 172.5H39.6722C40.0047 172.5 40.2446 172.819 40.1527 173.138L32.3941 200.138C32.3325 200.352 32.1365 200.5 31.9136 200.5H3.32782C2.99532 200.5 2.75544 200.181 2.84727 199.862L10.6059 172.862C10.6675 172.648 10.8635 172.5 11.0864 172.5Z" stroke="#484848"/>
<g style="mix-blend-mode:multiply">
<path d="M8.12534 167.724C8.24849 167.295 8.64053 167 9.08645 167H37.6722C38.3372 167 38.8169 167.637 38.6333 168.276L30.8747 195.276C30.7515 195.705 30.3595 196 29.9136 196H1.32782C0.662812 196 0.183056 195.363 0.366718 194.724L8.12534 167.724Z" fill="#F6A219"/>
</g>
</svg>
