<svg width="94" height="176" viewBox="0 0 94 176" fill="none" xmlns="http://www.w3.org/2000/svg">
<path d="M0.79 32.86H3.18C3.70667 32.86 4.14 32.9167 4.48 33.03C4.82667 33.1433 5.09667 33.2967 5.29 33.49C5.49 33.6833 5.62667 33.91 5.7 34.17C5.78 34.4233 5.82 34.6933 5.82 34.98C5.82 35.28 5.78 35.5667 5.7 35.84C5.62 36.1133 5.48 36.3533 5.28 36.56C5.08 36.7667 4.81 36.93 4.47 37.05C4.13 37.17 3.7 37.23 3.18 37.23H1.7V40H0.79V32.86ZM3.17 36.45C3.51667 36.45 3.80333 36.4167 4.03 36.35C4.25667 36.2833 4.43333 36.1867 4.56 36.06C4.68667 35.9333 4.77333 35.7833 4.82 35.61C4.87333 35.43 4.9 35.23 4.9 35.01C4.9 34.7833 4.87333 34.5833 4.82 34.41C4.76667 34.2367 4.67333 34.0933 4.54 33.98C4.40667 33.8667 4.22667 33.7833 4 33.73C3.78 33.67 3.5 33.64 3.16 33.64H1.7V36.45H3.17ZM11.0482 38.55C10.9615 39.05 10.7382 39.4433 10.3782 39.73C10.0249 40.0167 9.51487 40.16 8.8482 40.16C8.06154 40.16 7.4582 39.9233 7.0382 39.45C6.6182 38.97 6.4082 38.3033 6.4082 37.45C6.4082 37.0033 6.4682 36.6067 6.5882 36.26C6.7082 35.9133 6.87487 35.6233 7.0882 35.39C7.3082 35.1567 7.5682 34.98 7.8682 34.86C8.1682 34.7333 8.49487 34.67 8.8482 34.67C9.2482 34.67 9.59154 34.7333 9.8782 34.86C10.1649 34.9867 10.3982 35.1633 10.5782 35.39C10.7649 35.61 10.9015 35.8733 10.9882 36.18C11.0815 36.4867 11.1282 36.8233 11.1282 37.19V37.63H7.2882C7.2882 37.89 7.32154 38.1333 7.3882 38.36C7.46154 38.58 7.56154 38.7733 7.6882 38.94C7.82154 39.1 7.98487 39.2267 8.1782 39.32C8.37154 39.4133 8.59487 39.46 8.8482 39.46C9.28154 39.46 9.5982 39.38 9.7982 39.22C9.9982 39.0533 10.1349 38.83 10.2082 38.55H11.0482ZM10.2582 36.98C10.2582 36.7333 10.2315 36.51 10.1782 36.31C10.1249 36.11 10.0415 35.94 9.9282 35.8C9.81487 35.6533 9.6682 35.54 9.4882 35.46C9.3082 35.38 9.09154 35.34 8.8382 35.34C8.3782 35.34 8.0182 35.48 7.7582 35.76C7.50487 36.04 7.35487 36.4467 7.3082 36.98H10.2582ZM12.2813 34.83H13.1413V35.63C13.3347 35.3433 13.5613 35.1233 13.8213 34.97C14.0813 34.8167 14.358 34.74 14.6513 34.74C14.8313 34.74 14.9847 34.7533 15.1113 34.78L15.0013 35.59C14.9347 35.5767 14.868 35.5667 14.8013 35.56C14.7347 35.5467 14.6613 35.54 14.5813 35.54C14.4213 35.54 14.258 35.57 14.0913 35.63C13.9247 35.6833 13.768 35.7767 13.6213 35.91C13.4747 36.0367 13.358 36.1833 13.2713 36.35C13.1913 36.5167 13.1513 36.71 13.1513 36.93V40H12.2813V34.83ZM16.4058 38.49C16.4658 38.85 16.6158 39.1033 16.8558 39.25C17.1024 39.39 17.4358 39.46 17.8558 39.46C18.2958 39.46 18.6058 39.3867 18.7858 39.24C18.9724 39.0867 19.0658 38.8867 19.0658 38.64C19.0658 38.54 19.0524 38.4467 19.0258 38.36C19.0058 38.2667 18.9624 38.1867 18.8958 38.12C18.8291 38.0467 18.7358 37.9833 18.6158 37.93C18.4958 37.8767 18.3391 37.8333 18.1458 37.8L17.4858 37.7C17.1924 37.6533 16.9358 37.5933 16.7158 37.52C16.4958 37.4467 16.3091 37.3533 16.1558 37.24C16.0024 37.12 15.8858 36.9767 15.8058 36.81C15.7324 36.6367 15.6958 36.43 15.6958 36.19C15.6958 35.95 15.7458 35.7367 15.8458 35.55C15.9524 35.3633 16.0958 35.2067 16.2758 35.08C16.4624 34.9467 16.6791 34.8467 16.9258 34.78C17.1791 34.7067 17.4524 34.67 17.7458 34.67C18.1191 34.67 18.4291 34.7067 18.6758 34.78C18.9291 34.8533 19.1358 34.9533 19.2958 35.08C19.4558 35.2067 19.5791 35.3567 19.6658 35.53C19.7524 35.7033 19.8191 35.8867 19.8658 36.08L19.0758 36.21C19.0291 36.07 18.9758 35.9467 18.9158 35.84C18.8558 35.7333 18.7758 35.6467 18.6758 35.58C18.5758 35.5067 18.4524 35.4533 18.3058 35.42C18.1658 35.38 17.9891 35.36 17.7758 35.36C17.5358 35.36 17.3358 35.3833 17.1758 35.43C17.0158 35.47 16.8858 35.5267 16.7858 35.6C16.6924 35.6733 16.6258 35.7567 16.5858 35.85C16.5458 35.9367 16.5258 36.03 16.5258 36.13C16.5258 36.2367 16.5391 36.3333 16.5658 36.42C16.5924 36.5 16.6424 36.5733 16.7158 36.64C16.7891 36.7 16.8891 36.7533 17.0158 36.8C17.1424 36.8467 17.3058 36.8867 17.5058 36.92L18.2558 37.04C18.8624 37.14 19.2958 37.3133 19.5558 37.56C19.8224 37.8067 19.9558 38.1667 19.9558 38.64C19.9558 38.86 19.9124 39.0633 19.8258 39.25C19.7391 39.43 19.6091 39.59 19.4358 39.73C19.2624 39.8633 19.0458 39.9667 18.7858 40.04C18.5258 40.12 18.2224 40.16 17.8758 40.16C17.5624 40.16 17.2691 40.13 16.9958 40.07C16.7291 40.01 16.4924 39.9167 16.2858 39.79C16.0791 39.6567 15.9124 39.4833 15.7858 39.27C15.6591 39.0567 15.5858 38.7967 15.5658 38.49H16.4058ZM23.2439 40.16C22.8506 40.16 22.5006 40.0967 22.1939 39.97C21.8872 39.8433 21.6272 39.6633 21.4139 39.43C21.2006 39.1967 21.0372 38.91 20.9239 38.57C20.8106 38.23 20.7539 37.85 20.7539 37.43C20.7539 37.01 20.8139 36.63 20.9339 36.29C21.0539 35.95 21.2239 35.66 21.4439 35.42C21.6639 35.18 21.9272 34.9967 22.2339 34.87C22.5472 34.7367 22.8939 34.67 23.2739 34.67C23.6606 34.67 24.0072 34.7333 24.3139 34.86C24.6206 34.9867 24.8806 35.17 25.0939 35.41C25.3139 35.6433 25.4806 35.9267 25.5939 36.26C25.7072 36.5933 25.7639 36.97 25.7639 37.39C25.7639 37.8167 25.7039 38.2 25.5839 38.54C25.4706 38.88 25.3039 39.17 25.0839 39.41C24.8706 39.65 24.6072 39.8367 24.2939 39.97C23.9806 40.0967 23.6306 40.16 23.2439 40.16ZM23.2539 39.44C23.5339 39.44 23.7739 39.39 23.9739 39.29C24.1739 39.19 24.3372 39.05 24.4639 38.87C24.5972 38.69 24.6939 38.4767 24.7539 38.23C24.8139 37.9767 24.8439 37.7 24.8439 37.4C24.8439 37.1067 24.8139 36.8367 24.7539 36.59C24.6939 36.3433 24.5972 36.1333 24.4639 35.96C24.3372 35.78 24.1739 35.64 23.9739 35.54C23.7739 35.44 23.5339 35.39 23.2539 35.39C22.9739 35.39 22.7339 35.44 22.5339 35.54C22.3406 35.64 22.1772 35.78 22.0439 35.96C21.9172 36.1333 21.8239 36.3433 21.7639 36.59C21.7039 36.8367 21.6739 37.11 21.6739 37.41C21.6739 37.71 21.7039 37.9833 21.7639 38.23C21.8239 38.4767 21.9172 38.69 22.0439 38.87C22.1706 39.05 22.3339 39.19 22.5339 39.29C22.7339 39.39 22.9739 39.44 23.2539 39.44ZM26.9298 34.83H27.7898V35.62C28.0431 35.28 28.3231 35.0367 28.6298 34.89C28.9364 34.7433 29.2598 34.67 29.5998 34.67C30.1864 34.67 30.6198 34.83 30.8998 35.15C31.1864 35.47 31.3298 35.94 31.3298 36.56V40H30.4598V36.73C30.4598 36.25 30.3731 35.9133 30.1998 35.72C30.0264 35.52 29.7598 35.42 29.3998 35.42C29.2064 35.42 29.0131 35.4533 28.8198 35.52C28.6331 35.5867 28.4631 35.6933 28.3098 35.84C28.1431 35.9867 28.0164 36.1433 27.9298 36.31C27.8431 36.47 27.7998 36.68 27.7998 36.94V40H26.9298V34.83Z" fill="#484848"/>
<path d="M7.79975 0.5H31.6639C31.9977 0.5 32.2377 0.820735 32.1437 1.14094L25.68 23.1409C25.6174 23.3538 25.4221 23.5 25.2003 23.5H1.33607C1.00233 23.5 0.762268 23.1793 0.856347 22.8591L7.32002 0.859055C7.38256 0.646195 7.57789 0.5 7.79975 0.5Z" stroke="#484848"/>
<path d="M2.89 92.86H3.86L6.63 100H5.63L4.88 98.01H1.82L1.07 100H0.11L2.89 92.86ZM4.6 97.21L3.34 93.9L2.1 97.21H4.6ZM7.28063 94.83H8.15063V98.09C8.15063 98.57 8.22729 98.91 8.38063 99.11C8.54063 99.31 8.79729 99.41 9.15063 99.41C9.53729 99.41 9.88729 99.27 10.2006 98.99C10.3673 98.8433 10.494 98.69 10.5806 98.53C10.6673 98.3633 10.7106 98.15 10.7106 97.89V94.83H11.5806V100H10.7206V99.2C10.4673 99.5333 10.194 99.7767 9.90063 99.93C9.60729 100.083 9.29063 100.16 8.95063 100.16C8.36396 100.16 7.93729 100.003 7.67063 99.69C7.41063 99.37 7.28063 98.8933 7.28063 98.26V94.83ZM13.2161 95.52H12.4161V94.83H13.2161V93.42H14.0861V94.83H15.4561V95.52H14.0861V98.55C14.0861 98.8033 14.1428 99.0067 14.2561 99.16C14.3694 99.3133 14.5428 99.39 14.7761 99.39C14.9228 99.39 15.0494 99.38 15.1561 99.36C15.2694 99.34 15.3728 99.3133 15.4661 99.28L15.6161 99.95C15.4828 99.9967 15.3361 100.033 15.1761 100.06C15.0228 100.093 14.8394 100.11 14.6261 100.11C14.3328 100.11 14.0961 100.067 13.9161 99.98C13.7361 99.8933 13.5928 99.77 13.4861 99.61C13.3794 99.45 13.3061 99.26 13.2661 99.04C13.2328 98.82 13.2161 98.58 13.2161 98.32V95.52ZM18.5564 100.16C18.1631 100.16 17.8131 100.097 17.5064 99.97C17.1997 99.8433 16.9397 99.6633 16.7264 99.43C16.5131 99.1967 16.3497 98.91 16.2364 98.57C16.1231 98.23 16.0664 97.85 16.0664 97.43C16.0664 97.01 16.1264 96.63 16.2464 96.29C16.3664 95.95 16.5364 95.66 16.7564 95.42C16.9764 95.18 17.2397 94.9967 17.5464 94.87C17.8597 94.7367 18.2064 94.67 18.5864 94.67C18.9731 94.67 19.3197 94.7333 19.6264 94.86C19.9331 94.9867 20.1931 95.17 20.4064 95.41C20.6264 95.6433 20.7931 95.9267 20.9064 96.26C21.0197 96.5933 21.0764 96.97 21.0764 97.39C21.0764 97.8167 21.0164 98.2 20.8964 98.54C20.7831 98.88 20.6164 99.17 20.3964 99.41C20.1831 99.65 19.9197 99.8367 19.6064 99.97C19.2931 100.097 18.9431 100.16 18.5564 100.16ZM18.5664 99.44C18.8464 99.44 19.0864 99.39 19.2864 99.29C19.4864 99.19 19.6497 99.05 19.7764 98.87C19.9097 98.69 20.0064 98.4767 20.0664 98.23C20.1264 97.9767 20.1564 97.7 20.1564 97.4C20.1564 97.1067 20.1264 96.8367 20.0664 96.59C20.0064 96.3433 19.9097 96.1333 19.7764 95.96C19.6497 95.78 19.4864 95.64 19.2864 95.54C19.0864 95.44 18.8464 95.39 18.5664 95.39C18.2864 95.39 18.0464 95.44 17.8464 95.54C17.6531 95.64 17.4897 95.78 17.3564 95.96C17.2297 96.1333 17.1364 96.3433 17.0764 96.59C17.0164 96.8367 16.9864 97.11 16.9864 97.41C16.9864 97.71 17.0164 97.9833 17.0764 98.23C17.1364 98.4767 17.2297 98.69 17.3564 98.87C17.4831 99.05 17.6464 99.19 17.8464 99.29C18.0464 99.39 18.2864 99.44 18.5664 99.44Z" fill="#484848"/>
<g style="mix-blend-mode:multiply">
<path d="M6.83117 61.7238C6.95432 61.2952 7.34635 61 7.79227 61H31.6154C32.2805 61 32.7602 61.637 32.5766 62.2762L26.1121 84.7725C25.989 85.201 25.5969 85.4963 25.151 85.4963H1.32782C0.662813 85.4963 0.183056 84.8592 0.366718 84.2201L6.83117 61.7238Z" fill="#FF7B7B"/>
</g>
<path d="M2.89 153.86H3.86L6.63 161H5.63L4.88 159.01H1.82L1.07 161H0.11L2.89 153.86ZM4.6 158.21L3.34 154.9L2.1 158.21H4.6ZM7.28063 155.83H8.15063V159.09C8.15063 159.57 8.22729 159.91 8.38063 160.11C8.54063 160.31 8.79729 160.41 9.15063 160.41C9.53729 160.41 9.88729 160.27 10.2006 159.99C10.3673 159.843 10.494 159.69 10.5806 159.53C10.6673 159.363 10.7106 159.15 10.7106 158.89V155.83H11.5806V161H10.7206V160.2C10.4673 160.533 10.194 160.777 9.90063 160.93C9.60729 161.083 9.29063 161.16 8.95063 161.16C8.36396 161.16 7.93729 161.003 7.67063 160.69C7.41063 160.37 7.28063 159.893 7.28063 159.26V155.83ZM13.2161 156.52H12.4161V155.83H13.2161V154.42H14.0861V155.83H15.4561V156.52H14.0861V159.55C14.0861 159.803 14.1428 160.007 14.2561 160.16C14.3694 160.313 14.5428 160.39 14.7761 160.39C14.9228 160.39 15.0494 160.38 15.1561 160.36C15.2694 160.34 15.3728 160.313 15.4661 160.28L15.6161 160.95C15.4828 160.997 15.3361 161.033 15.1761 161.06C15.0228 161.093 14.8394 161.11 14.6261 161.11C14.3328 161.11 14.0961 161.067 13.9161 160.98C13.7361 160.893 13.5928 160.77 13.4861 160.61C13.3794 160.45 13.3061 160.26 13.2661 160.04C13.2328 159.82 13.2161 159.58 13.2161 159.32V156.52ZM18.5564 161.16C18.1631 161.16 17.8131 161.097 17.5064 160.97C17.1997 160.843 16.9397 160.663 16.7264 160.43C16.5131 160.197 16.3497 159.91 16.2364 159.57C16.1231 159.23 16.0664 158.85 16.0664 158.43C16.0664 158.01 16.1264 157.63 16.2464 157.29C16.3664 156.95 16.5364 156.66 16.7564 156.42C16.9764 156.18 17.2397 155.997 17.5464 155.87C17.8597 155.737 18.2064 155.67 18.5864 155.67C18.9731 155.67 19.3197 155.733 19.6264 155.86C19.9331 155.987 20.1931 156.17 20.4064 156.41C20.6264 156.643 20.7931 156.927 20.9064 157.26C21.0197 157.593 21.0764 157.97 21.0764 158.39C21.0764 158.817 21.0164 159.2 20.8964 159.54C20.7831 159.88 20.6164 160.17 20.3964 160.41C20.1831 160.65 19.9197 160.837 19.6064 160.97C19.2931 161.097 18.9431 161.16 18.5564 161.16ZM18.5664 160.44C18.8464 160.44 19.0864 160.39 19.2864 160.29C19.4864 160.19 19.6497 160.05 19.7764 159.87C19.9097 159.69 20.0064 159.477 20.0664 159.23C20.1264 158.977 20.1564 158.7 20.1564 158.4C20.1564 158.107 20.1264 157.837 20.0664 157.59C20.0064 157.343 19.9097 157.133 19.7764 156.96C19.6497 156.78 19.4864 156.64 19.2864 156.54C19.0864 156.44 18.8464 156.39 18.5664 156.39C18.2864 156.39 18.0464 156.44 17.8464 156.54C17.6531 156.64 17.4897 156.78 17.3564 156.96C17.2297 157.133 17.1364 157.343 17.0764 157.59C17.0164 157.837 16.9864 158.11 16.9864 158.41C16.9864 158.71 17.0164 158.983 17.0764 159.23C17.1364 159.477 17.2297 159.69 17.3564 159.87C17.4831 160.05 17.6464 160.19 17.8464 160.29C18.0464 160.39 18.2864 160.44 18.5664 160.44ZM24.4688 155.83H25.3288V156.62C25.5622 156.3 25.8188 156.063 26.0988 155.91C26.3788 155.75 26.6655 155.67 26.9588 155.67C27.3455 155.67 27.6555 155.753 27.8888 155.92C28.1288 156.087 28.3055 156.327 28.4188 156.64C28.6522 156.32 28.9188 156.08 29.2188 155.92C29.5188 155.753 29.8388 155.67 30.1788 155.67C30.6855 155.67 31.0755 155.81 31.3488 156.09C31.6288 156.363 31.7688 156.807 31.7688 157.42V161H30.8988V157.62C30.8988 157.387 30.8788 157.193 30.8388 157.04C30.7988 156.88 30.7388 156.757 30.6588 156.67C30.5855 156.577 30.4922 156.513 30.3788 156.48C30.2655 156.44 30.1355 156.42 29.9888 156.42C29.8355 156.42 29.6755 156.447 29.5088 156.5C29.3422 156.553 29.1788 156.647 29.0188 156.78C28.8855 156.893 28.7755 157.03 28.6888 157.19C28.6022 157.35 28.5588 157.533 28.5588 157.74V161H27.6888V157.63C27.6888 157.177 27.6088 156.863 27.4488 156.69C27.2955 156.51 27.0722 156.42 26.7788 156.42C26.4388 156.42 26.1188 156.56 25.8188 156.84C25.7055 156.947 25.5955 157.083 25.4888 157.25C25.3888 157.417 25.3388 157.64 25.3388 157.92V161H24.4688V155.83ZM33.1021 155.83H33.9721V161H33.1021V155.83ZM33.0721 153.86H34.0021V154.87H33.0721V153.86ZM35.6282 156.52H34.8282V155.83H35.6282V154.42H36.4982V155.83H37.8682V156.52H36.4982V159.55C36.4982 159.803 36.5549 160.007 36.6682 160.16C36.7815 160.313 36.9549 160.39 37.1882 160.39C37.3349 160.39 37.4615 160.38 37.5682 160.36C37.6815 160.34 37.7849 160.313 37.8782 160.28L38.0282 160.95C37.8949 160.997 37.7482 161.033 37.5882 161.06C37.4349 161.093 37.2515 161.11 37.0382 161.11C36.7449 161.11 36.5082 161.067 36.3282 160.98C36.1482 160.893 36.0049 160.77 35.8982 160.61C35.7915 160.45 35.7182 160.26 35.6782 160.04C35.6449 159.82 35.6282 159.58 35.6282 159.32V156.52ZM41.1416 153.86H42.0616V156.88H45.6716V153.86H46.5916V161H45.6716V157.74H42.0616V161H41.1416V153.86ZM48.0328 162.1C48.2195 162.167 48.4061 162.2 48.5928 162.2C48.8061 162.2 48.9695 162.143 49.0828 162.03C49.2028 161.923 49.3195 161.72 49.4328 161.42L49.6428 160.87L47.4528 155.83H48.4628L50.0928 159.89L51.5828 155.83H52.5428L50.2828 161.49C50.1895 161.723 50.0961 161.927 50.0028 162.1C49.9095 162.28 49.8061 162.433 49.6928 162.56C49.5795 162.687 49.4428 162.78 49.2828 162.84C49.1295 162.907 48.9395 162.94 48.7128 162.94C48.5528 162.94 48.4095 162.93 48.2828 162.91C48.1561 162.89 48.0161 162.853 47.8628 162.8L48.0328 162.1ZM53.2872 153.86H54.1572V156.55C54.3705 156.27 54.6172 156.053 54.8972 155.9C55.1772 155.747 55.5072 155.67 55.8872 155.67C56.2539 155.67 56.5739 155.737 56.8472 155.87C57.1272 156.003 57.3572 156.19 57.5372 156.43C57.7239 156.67 57.8605 156.957 57.9472 157.29C58.0405 157.617 58.0872 157.98 58.0872 158.38C58.0872 158.807 58.0339 159.193 57.9272 159.54C57.8205 159.88 57.6672 160.17 57.4672 160.41C57.2672 160.65 57.0239 160.837 56.7372 160.97C56.4572 161.097 56.1405 161.16 55.7872 161.16C55.4872 161.16 55.1939 161.1 54.9072 160.98C54.6272 160.853 54.3739 160.64 54.1472 160.34V161H53.2872V153.86ZM54.1472 158.56C54.1472 158.893 54.1839 159.18 54.2572 159.42C54.3372 159.653 54.4439 159.847 54.5772 160C54.7105 160.153 54.8705 160.267 55.0572 160.34C55.2439 160.407 55.4472 160.44 55.6672 160.44C55.8805 160.44 56.0772 160.403 56.2572 160.33C56.4439 160.257 56.6039 160.14 56.7372 159.98C56.8705 159.813 56.9739 159.6 57.0472 159.34C57.1272 159.08 57.1672 158.763 57.1672 158.39C57.1672 158.01 57.1239 157.693 57.0372 157.44C56.9572 157.18 56.8505 156.973 56.7172 156.82C56.5839 156.667 56.4305 156.557 56.2572 156.49C56.0905 156.423 55.9172 156.39 55.7372 156.39C55.5105 156.39 55.3005 156.43 55.1072 156.51C54.9139 156.583 54.7439 156.697 54.5972 156.85C54.4572 156.997 54.3472 157.187 54.2672 157.42C54.1872 157.647 54.1472 157.91 54.1472 158.21V158.56ZM59.254 155.83H60.114V156.63C60.3073 156.343 60.534 156.123 60.794 155.97C61.054 155.817 61.3307 155.74 61.624 155.74C61.804 155.74 61.9573 155.753 62.084 155.78L61.974 156.59C61.9073 156.577 61.8407 156.567 61.774 156.56C61.7073 156.547 61.634 156.54 61.554 156.54C61.394 156.54 61.2307 156.57 61.064 156.63C60.8973 156.683 60.7407 156.777 60.594 156.91C60.4473 157.037 60.3307 157.183 60.244 157.35C60.164 157.517 60.124 157.71 60.124 157.93V161H59.254V155.83ZM62.9361 155.83H63.8061V161H62.9361V155.83ZM62.9061 153.86H63.8361V154.87H62.9061V153.86ZM68.9222 160.26C68.7089 160.547 68.4622 160.77 68.1822 160.93C67.9022 161.083 67.5722 161.16 67.1922 161.16C66.8122 161.16 66.4822 161.09 66.2022 160.95C65.9289 160.81 65.7022 160.62 65.5222 160.38C65.3422 160.133 65.2089 159.843 65.1222 159.51C65.0355 159.177 64.9922 158.82 64.9922 158.44C64.9922 158.013 65.0455 157.63 65.1522 157.29C65.2589 156.943 65.4089 156.65 65.6022 156.41C65.8022 156.17 66.0422 155.987 66.3222 155.86C66.6089 155.733 66.9322 155.67 67.2922 155.67C67.5655 155.67 67.8422 155.727 68.1222 155.84C68.4022 155.947 68.6622 156.153 68.9022 156.46V153.86H69.7722V161H68.9222V160.26ZM68.9322 158.26C68.9322 157.847 68.8855 157.527 68.7922 157.3C68.7055 157.067 68.5589 156.87 68.3522 156.71C68.2055 156.59 68.0555 156.507 67.9022 156.46C67.7555 156.413 67.5922 156.39 67.4122 156.39C67.1989 156.39 66.9989 156.427 66.8122 156.5C66.6322 156.573 66.4722 156.693 66.3322 156.86C66.1989 157.02 66.0922 157.23 66.0122 157.49C65.9389 157.743 65.9022 158.053 65.9022 158.42C65.9022 158.8 65.9422 159.12 66.0222 159.38C66.1089 159.64 66.2189 159.847 66.3522 160C66.4922 160.153 66.6455 160.263 66.8122 160.33C66.9855 160.397 67.1622 160.43 67.3422 160.43C67.5355 160.43 67.7089 160.407 67.8622 160.36C68.0155 160.313 68.1689 160.233 68.3222 160.12C68.5222 159.96 68.6722 159.76 68.7722 159.52C68.8789 159.28 68.9322 158.977 68.9322 158.61V158.26ZM71.2808 157.64H74.2208V158.51H71.2808V157.64ZM0.97 174H0.07L2.34 166.66H3.24L0.97 174ZM4.10055 166.86H8.72055V167.67H5.02055V169.91H8.52055V170.73H5.02055V173.19H8.91055L8.76055 174H4.10055V166.86ZM9.93805 166.86H10.808V174H9.93805V166.86ZM16.6341 172.55C16.5475 173.05 16.3241 173.443 15.9641 173.73C15.6108 174.017 15.1008 174.16 14.4341 174.16C13.6475 174.16 13.0441 173.923 12.6241 173.45C12.2041 172.97 11.9941 172.303 11.9941 171.45C11.9941 171.003 12.0541 170.607 12.1741 170.26C12.2941 169.913 12.4608 169.623 12.6741 169.39C12.8941 169.157 13.1541 168.98 13.4541 168.86C13.7541 168.733 14.0808 168.67 14.4341 168.67C14.8341 168.67 15.1775 168.733 15.4641 168.86C15.7508 168.987 15.9841 169.163 16.1641 169.39C16.3508 169.61 16.4875 169.873 16.5741 170.18C16.6675 170.487 16.7141 170.823 16.7141 171.19V171.63H12.8741C12.8741 171.89 12.9075 172.133 12.9741 172.36C13.0475 172.58 13.1475 172.773 13.2741 172.94C13.4075 173.1 13.5708 173.227 13.7641 173.32C13.9575 173.413 14.1808 173.46 14.4341 173.46C14.8675 173.46 15.1841 173.38 15.3841 173.22C15.5841 173.053 15.7208 172.83 15.7941 172.55H16.6341ZM15.8441 170.98C15.8441 170.733 15.8175 170.51 15.7641 170.31C15.7108 170.11 15.6275 169.94 15.5141 169.8C15.4008 169.653 15.2541 169.54 15.0741 169.46C14.8941 169.38 14.6775 169.34 14.4241 169.34C13.9641 169.34 13.6041 169.48 13.3441 169.76C13.0908 170.04 12.9408 170.447 12.8941 170.98H15.8441ZM17.8673 166.86H18.7273V171.02L21.1473 168.83H22.1973L20.3473 170.56L22.3973 174H21.4073L19.6973 171.07L18.7273 171.94V174H17.8673V166.86ZM23.4993 169.52H22.6993V168.83H23.4993V167.42H24.3693V168.83H25.7393V169.52H24.3693V172.55C24.3693 172.803 24.426 173.007 24.5393 173.16C24.6526 173.313 24.826 173.39 25.0593 173.39C25.206 173.39 25.3326 173.38 25.4393 173.36C25.5526 173.34 25.656 173.313 25.7493 173.28L25.8993 173.95C25.766 173.997 25.6193 174.033 25.4593 174.06C25.306 174.093 25.1226 174.11 24.9093 174.11C24.616 174.11 24.3793 174.067 24.1993 173.98C24.0193 173.893 23.876 173.77 23.7693 173.61C23.6626 173.45 23.5893 173.26 23.5493 173.04C23.516 172.82 23.4993 172.58 23.4993 172.32V169.52ZM26.6661 168.83H27.5261V169.63C27.7194 169.343 27.9461 169.123 28.2061 168.97C28.4661 168.817 28.7428 168.74 29.0361 168.74C29.2161 168.74 29.3694 168.753 29.4961 168.78L29.3861 169.59C29.3194 169.577 29.2528 169.567 29.1861 169.56C29.1194 169.547 29.0461 169.54 28.9661 169.54C28.8061 169.54 28.6428 169.57 28.4761 169.63C28.3094 169.683 28.1528 169.777 28.0061 169.91C27.8594 170.037 27.7428 170.183 27.6561 170.35C27.5761 170.517 27.5361 170.71 27.5361 170.93V174H26.6661V168.83ZM32.3455 174.16C31.9521 174.16 31.6021 174.097 31.2955 173.97C30.9888 173.843 30.7288 173.663 30.5155 173.43C30.3021 173.197 30.1388 172.91 30.0255 172.57C29.9121 172.23 29.8555 171.85 29.8555 171.43C29.8555 171.01 29.9155 170.63 30.0355 170.29C30.1555 169.95 30.3255 169.66 30.5455 169.42C30.7655 169.18 31.0288 168.997 31.3355 168.87C31.6488 168.737 31.9955 168.67 32.3755 168.67C32.7621 168.67 33.1088 168.733 33.4155 168.86C33.7221 168.987 33.9821 169.17 34.1955 169.41C34.4155 169.643 34.5821 169.927 34.6955 170.26C34.8088 170.593 34.8655 170.97 34.8655 171.39C34.8655 171.817 34.8055 172.2 34.6855 172.54C34.5721 172.88 34.4055 173.17 34.1855 173.41C33.9721 173.65 33.7088 173.837 33.3955 173.97C33.0821 174.097 32.7321 174.16 32.3455 174.16ZM32.3555 173.44C32.6355 173.44 32.8755 173.39 33.0755 173.29C33.2755 173.19 33.4388 173.05 33.5655 172.87C33.6988 172.69 33.7955 172.477 33.8555 172.23C33.9155 171.977 33.9455 171.7 33.9455 171.4C33.9455 171.107 33.9155 170.837 33.8555 170.59C33.7955 170.343 33.6988 170.133 33.5655 169.96C33.4388 169.78 33.2755 169.64 33.0755 169.54C32.8755 169.44 32.6355 169.39 32.3555 169.39C32.0755 169.39 31.8355 169.44 31.6355 169.54C31.4421 169.64 31.2788 169.78 31.1455 169.96C31.0188 170.133 30.9255 170.343 30.8655 170.59C30.8055 170.837 30.7755 171.11 30.7755 171.41C30.7755 171.71 30.8055 171.983 30.8655 172.23C30.9255 172.477 31.0188 172.69 31.1455 172.87C31.2721 173.05 31.4355 173.19 31.6355 173.29C31.8355 173.39 32.0755 173.44 32.3555 173.44ZM39.2513 173.29C39.0647 173.517 38.828 173.713 38.5413 173.88C38.2547 174.04 37.898 174.12 37.4713 174.12C37.2113 174.12 36.9713 174.087 36.7513 174.02C36.538 173.96 36.3513 173.867 36.1913 173.74C36.038 173.607 35.918 173.443 35.8313 173.25C35.7447 173.057 35.7013 172.83 35.7013 172.57C35.7013 172.217 35.7747 171.93 35.9213 171.71C36.0747 171.49 36.2747 171.317 36.5213 171.19C36.7747 171.063 37.058 170.973 37.3713 170.92C37.6847 170.867 38.008 170.833 38.3413 170.82L39.2313 170.79V170.59C39.2313 170.15 39.138 169.833 38.9513 169.64C38.7647 169.447 38.4613 169.35 38.0413 169.35C37.628 169.35 37.3247 169.42 37.1313 169.56C36.938 169.693 36.8113 169.88 36.7513 170.12L35.9613 170.03C36.0547 169.557 36.278 169.213 36.6313 169C36.9847 168.78 37.4647 168.67 38.0713 168.67C38.4447 168.67 38.758 168.717 39.0113 168.81C39.2713 168.897 39.4813 169.023 39.6413 169.19C39.8013 169.357 39.9147 169.563 39.9813 169.81C40.0547 170.057 40.0913 170.333 40.0913 170.64V174H39.2513V173.29ZM39.2313 171.41L38.4013 171.44C38.048 171.453 37.7547 171.487 37.5213 171.54C37.288 171.593 37.1013 171.667 36.9613 171.76C36.828 171.847 36.7313 171.957 36.6713 172.09C36.618 172.223 36.5913 172.377 36.5913 172.55C36.5913 172.81 36.668 173.02 36.8213 173.18C36.9813 173.333 37.2413 173.41 37.6013 173.41C38.1147 173.41 38.5147 173.283 38.8013 173.03C39.088 172.777 39.2313 172.43 39.2313 171.99V171.41ZM41.4122 168.83H42.2722V169.62C42.5255 169.28 42.8055 169.037 43.1122 168.89C43.4189 168.743 43.7422 168.67 44.0822 168.67C44.6689 168.67 45.1022 168.83 45.3822 169.15C45.6689 169.47 45.8122 169.94 45.8122 170.56V174H44.9422V170.73C44.9422 170.25 44.8555 169.913 44.6822 169.72C44.5089 169.52 44.2422 169.42 43.8822 169.42C43.6889 169.42 43.4955 169.453 43.3022 169.52C43.1155 169.587 42.9455 169.693 42.7922 169.84C42.6255 169.987 42.4989 170.143 42.4122 170.31C42.3255 170.47 42.2822 170.68 42.2822 170.94V174H41.4122V168.83ZM47.4153 169.52H46.6153V168.83H47.4153V167.42H48.2853V168.83H49.6553V169.52H48.2853V172.55C48.2853 172.803 48.342 173.007 48.4553 173.16C48.5686 173.313 48.742 173.39 48.9753 173.39C49.122 173.39 49.2486 173.38 49.3553 173.36C49.4686 173.34 49.572 173.313 49.6653 173.28L49.8153 173.95C49.682 173.997 49.5353 174.033 49.3753 174.06C49.222 174.093 49.0386 174.11 48.8253 174.11C48.532 174.11 48.2953 174.067 48.1153 173.98C47.9353 173.893 47.792 173.77 47.6853 173.61C47.5786 173.45 47.5053 173.26 47.4653 173.04C47.432 172.82 47.4153 172.58 47.4153 172.32V169.52ZM50.5821 168.83H51.4421V169.63C51.6354 169.343 51.8621 169.123 52.1221 168.97C52.3821 168.817 52.6588 168.74 52.9521 168.74C53.1321 168.74 53.2854 168.753 53.4121 168.78L53.3021 169.59C53.2354 169.577 53.1688 169.567 53.1021 169.56C53.0354 169.547 52.9621 169.54 52.8821 169.54C52.7221 169.54 52.5588 169.57 52.3921 169.63C52.2254 169.683 52.0688 169.777 51.9221 169.91C51.7754 170.037 51.6588 170.183 51.5721 170.35C51.4921 170.517 51.4521 170.71 51.4521 170.93V174H50.5821V168.83ZM54.2642 168.83H55.1342V174H54.2642V168.83ZM54.2342 166.86H55.1642V167.87H54.2342V166.86ZM60.9603 172.55C60.8736 173.05 60.6503 173.443 60.2903 173.73C59.937 174.017 59.427 174.16 58.7603 174.16C57.9736 174.16 57.3703 173.923 56.9503 173.45C56.5303 172.97 56.3203 172.303 56.3203 171.45C56.3203 171.003 56.3803 170.607 56.5003 170.26C56.6203 169.913 56.787 169.623 57.0003 169.39C57.2203 169.157 57.4803 168.98 57.7803 168.86C58.0803 168.733 58.407 168.67 58.7603 168.67C59.1603 168.67 59.5036 168.733 59.7903 168.86C60.077 168.987 60.3103 169.163 60.4903 169.39C60.677 169.61 60.8136 169.873 60.9003 170.18C60.9936 170.487 61.0403 170.823 61.0403 171.19V171.63H57.2003C57.2003 171.89 57.2336 172.133 57.3003 172.36C57.3736 172.58 57.4736 172.773 57.6003 172.94C57.7336 173.1 57.897 173.227 58.0903 173.32C58.2836 173.413 58.507 173.46 58.7603 173.46C59.1936 173.46 59.5103 173.38 59.7103 173.22C59.9103 173.053 60.047 172.83 60.1203 172.55H60.9603ZM60.1703 170.98C60.1703 170.733 60.1436 170.51 60.0903 170.31C60.037 170.11 59.9536 169.94 59.8403 169.8C59.727 169.653 59.5803 169.54 59.4003 169.46C59.2203 169.38 59.0036 169.34 58.7503 169.34C58.2903 169.34 57.9303 169.48 57.6703 169.76C57.417 170.04 57.267 170.447 57.2203 170.98H60.1703ZM62.1934 166.86H63.0634V169.55C63.2768 169.27 63.5234 169.053 63.8034 168.9C64.0834 168.747 64.4134 168.67 64.7934 168.67C65.1601 168.67 65.4801 168.737 65.7534 168.87C66.0334 169.003 66.2634 169.19 66.4434 169.43C66.6301 169.67 66.7668 169.957 66.8534 170.29C66.9468 170.617 66.9934 170.98 66.9934 171.38C66.9934 171.807 66.9401 172.193 66.8334 172.54C66.7268 172.88 66.5734 173.17 66.3734 173.41C66.1734 173.65 65.9301 173.837 65.6434 173.97C65.3634 174.097 65.0468 174.16 64.6934 174.16C64.3934 174.16 64.1001 174.1 63.8134 173.98C63.5334 173.853 63.2801 173.64 63.0534 173.34V174H62.1934V166.86ZM63.0534 171.56C63.0534 171.893 63.0901 172.18 63.1634 172.42C63.2434 172.653 63.3501 172.847 63.4834 173C63.6168 173.153 63.7768 173.267 63.9634 173.34C64.1501 173.407 64.3534 173.44 64.5734 173.44C64.7868 173.44 64.9834 173.403 65.1634 173.33C65.3501 173.257 65.5101 173.14 65.6434 172.98C65.7768 172.813 65.8801 172.6 65.9534 172.34C66.0334 172.08 66.0734 171.763 66.0734 171.39C66.0734 171.01 66.0301 170.693 65.9434 170.44C65.8634 170.18 65.7568 169.973 65.6234 169.82C65.4901 169.667 65.3368 169.557 65.1634 169.49C64.9968 169.423 64.8234 169.39 64.6434 169.39C64.4168 169.39 64.2068 169.43 64.0134 169.51C63.8201 169.583 63.6501 169.697 63.5034 169.85C63.3634 169.997 63.2534 170.187 63.1734 170.42C63.0934 170.647 63.0534 170.91 63.0534 171.21V171.56Z" fill="#484848"/>
<g style="mix-blend-mode:multiply">
<path d="M6.83117 122.724C6.95432 122.295 7.34635 122 7.79227 122H31.6154C32.2805 122 32.7602 122.637 32.5766 123.276L26.1121 145.772C25.989 146.201 25.5969 146.496 25.151 146.496H1.32782C0.662813 146.496 0.183056 145.859 0.366718 145.22L6.83117 122.724Z" fill="#F6A219"/>
</g>
</svg>
