<?xml version="1.0" encoding="UTF-8"?><svg xmlns="http://www.w3.org/2000/svg" viewBox="0 0 85.32 89.72"><defs><style>.cls-1{fill:#f6a31c;}.cls-2{fill:#ef7a7c;}.cls-3{fill:#fff9f2;}.cls-4{fill:#616160;}.cls-5{mix-blend-mode:multiply;}.cls-6{isolation:isolate;}.cls-7{fill:none;stroke:#494848;stroke-miterlimit:10;stroke-width:.46px;}</style></defs><g class="cls-6"><g id="Layer_2"><g id="Layer_1-2"><g><g><path class="cls-4" d="M2.37,2.1l-1.27,.77-.3-.52,1.65-1.02h.65V6.86h-.72V2.1Z"/><path class="cls-4" d="M7.15,1.14h1.91c.42,0,.77,.04,1.04,.14s.49,.21,.65,.37c.16,.15,.27,.33,.33,.54,.06,.21,.09,.42,.09,.65,0,.24-.03,.47-.1,.69-.06,.22-.18,.41-.34,.58-.16,.17-.38,.3-.65,.39-.27,.1-.62,.14-1.03,.14h-1.18v2.22h-.73V1.14Zm1.9,2.87c.28,0,.51-.03,.69-.08,.18-.05,.32-.13,.42-.23,.1-.1,.17-.22,.21-.36,.04-.14,.06-.3,.06-.48s-.02-.34-.06-.48c-.04-.14-.12-.25-.22-.34s-.25-.16-.43-.2c-.18-.04-.4-.07-.68-.07h-1.17v2.25h1.18Z"/><path class="cls-4" d="M15.36,5.7c-.07,.4-.25,.71-.53,.94-.29,.23-.7,.34-1.23,.34-.63,0-1.11-.19-1.45-.57-.34-.38-.5-.91-.5-1.6,0-.36,.05-.67,.14-.95s.23-.51,.4-.7c.17-.19,.38-.33,.62-.43,.24-.1,.5-.15,.78-.15,.32,0,.59,.05,.82,.15s.42,.24,.56,.42c.15,.18,.26,.39,.33,.64,.07,.25,.11,.52,.11,.81v.35h-3.07c0,.21,.03,.4,.08,.58,.06,.18,.14,.33,.24,.46,.1,.13,.23,.23,.39,.31,.15,.07,.33,.11,.54,.11,.35,0,.6-.06,.76-.2s.27-.31,.33-.53h.67Zm-.63-1.26c0-.2-.02-.38-.06-.54s-.11-.3-.2-.41c-.09-.11-.21-.2-.35-.27-.14-.06-.32-.1-.52-.1-.37,0-.65,.11-.86,.34-.21,.22-.33,.55-.36,.98h2.36Z"/><path class="cls-4" d="M16.34,2.72h.69v.64c.16-.23,.34-.41,.54-.53,.21-.12,.43-.18,.66-.18,.14,0,.27,.01,.37,.03l-.09,.65c-.05-.01-.11-.02-.16-.03-.05,0-.11-.01-.18-.01-.13,0-.26,.02-.39,.07-.13,.04-.26,.12-.38,.23-.12,.1-.21,.22-.28,.35-.07,.13-.1,.29-.1,.46v2.46h-.7V2.72Z"/><path class="cls-4" d="M19.64,5.65c.05,.29,.17,.49,.36,.6,.2,.12,.46,.17,.8,.17,.35,0,.6-.06,.75-.18,.15-.12,.22-.28,.22-.48,0-.08,0-.16-.03-.23s-.05-.14-.11-.19c-.05-.06-.13-.11-.22-.15s-.22-.08-.38-.1l-.53-.08c-.23-.04-.44-.09-.62-.14-.18-.06-.33-.13-.45-.23-.12-.09-.21-.21-.28-.34-.06-.14-.09-.3-.09-.49s.04-.36,.12-.51,.2-.28,.34-.38c.15-.1,.32-.18,.52-.24,.2-.06,.42-.08,.65-.08,.3,0,.55,.03,.75,.09,.2,.06,.36,.14,.49,.24,.13,.1,.23,.22,.3,.36s.12,.29,.16,.44l-.63,.1c-.04-.11-.08-.21-.13-.3s-.11-.16-.19-.21c-.08-.06-.18-.1-.29-.13-.11-.03-.26-.04-.43-.04-.19,0-.35,.02-.48,.05-.13,.03-.23,.08-.31,.14s-.13,.12-.16,.2-.05,.15-.05,.23c0,.09,.01,.16,.03,.23,.02,.07,.06,.12,.12,.18,.06,.05,.14,.09,.24,.13,.1,.04,.23,.07,.39,.1l.6,.1c.49,.08,.83,.22,1.04,.42s.32,.49,.32,.86c0,.18-.04,.34-.1,.48-.07,.15-.17,.28-.31,.38-.14,.11-.31,.2-.52,.26-.21,.06-.45,.09-.73,.09-.25,0-.48-.02-.7-.07s-.41-.12-.57-.23c-.17-.1-.3-.24-.4-.41-.1-.17-.16-.38-.18-.62h.67Z"/><path class="cls-4" d="M25.1,6.98c-.31,0-.59-.05-.84-.15s-.45-.25-.62-.43-.3-.42-.39-.69c-.09-.27-.14-.58-.14-.91s.05-.64,.14-.91c.1-.27,.23-.5,.41-.7,.18-.19,.39-.34,.64-.44,.25-.1,.52-.16,.83-.16s.59,.05,.83,.15,.45,.25,.63,.44c.17,.19,.31,.42,.4,.68,.09,.27,.14,.57,.14,.9s-.05,.65-.14,.92c-.09,.27-.23,.5-.4,.7-.17,.19-.39,.34-.64,.44-.25,.1-.53,.16-.84,.16Zm0-.58c.22,0,.42-.04,.58-.12,.16-.08,.29-.19,.4-.34,.1-.14,.18-.32,.23-.52,.05-.2,.07-.42,.07-.66s-.02-.45-.07-.65c-.05-.2-.12-.37-.23-.51-.1-.14-.24-.25-.4-.33-.16-.08-.35-.12-.58-.12s-.42,.04-.57,.12-.29,.19-.39,.33c-.1,.14-.18,.31-.23,.51s-.07,.42-.07,.66,.02,.46,.07,.66,.12,.37,.22,.51c.1,.14,.23,.26,.39,.34s.35,.12,.58,.12Z"/><path class="cls-4" d="M28.06,2.72h.69v.63c.2-.27,.43-.47,.67-.58,.25-.12,.5-.18,.78-.18,.47,0,.82,.13,1.04,.38,.23,.26,.34,.63,.34,1.13v2.75h-.7v-2.62c0-.38-.07-.65-.21-.81-.14-.16-.35-.24-.64-.24-.15,0-.31,.03-.46,.08-.15,.05-.29,.14-.41,.26-.13,.12-.23,.24-.3,.37s-.1,.3-.1,.51v2.45h-.7V2.72Z"/><path class="cls-4" d="M32.58,2.72h.8v.94h-.8v-.94Zm0,3.2h.8v.94h-.8v-.94Z"/></g><g><g><path class="cls-4" d="M28.12,26.04c-.31,0-.59-.05-.84-.15s-.45-.25-.62-.43-.3-.42-.39-.69c-.09-.27-.14-.58-.14-.91s.05-.64,.14-.91c.1-.27,.23-.5,.41-.7,.18-.19,.39-.34,.64-.44,.25-.1,.52-.16,.83-.16s.59,.05,.83,.15,.45,.25,.63,.44c.17,.19,.31,.42,.4,.68,.09,.27,.14,.57,.14,.9s-.05,.65-.14,.92c-.09,.27-.23,.5-.4,.7-.17,.19-.39,.34-.64,.44-.25,.1-.53,.16-.84,.16Zm0-.58c.22,0,.42-.04,.58-.12,.16-.08,.29-.19,.4-.34,.1-.14,.18-.32,.23-.52,.05-.2,.07-.42,.07-.66s-.02-.45-.07-.65c-.05-.2-.12-.37-.23-.51-.1-.14-.24-.25-.4-.33-.16-.08-.35-.12-.58-.12s-.42,.04-.57,.12-.29,.19-.39,.33c-.1,.14-.18,.31-.23,.51s-.07,.42-.07,.66,.02,.46,.07,.66,.12,.37,.22,.51c.1,.14,.23,.26,.39,.34s.35,.12,.58,.12Z"/><path class="cls-4" d="M31.07,20.2h.7v2.19c.2-.26,.42-.45,.67-.57,.24-.12,.5-.18,.77-.18,.47,0,.82,.13,1.04,.38,.23,.26,.34,.63,.34,1.13v2.75h-.7v-2.62c0-.38-.07-.65-.2-.81-.14-.16-.35-.24-.64-.24-.15,0-.31,.03-.46,.08-.15,.05-.29,.14-.41,.26-.13,.12-.23,.24-.3,.37s-.1,.3-.1,.51v2.45h-.7v-5.71Z"/><path class="cls-4" d="M35.63,21.78h.69v.63c.2-.27,.43-.47,.67-.58,.25-.12,.5-.18,.78-.18,.47,0,.82,.13,1.04,.38,.23,.26,.34,.63,.34,1.13v2.75h-.7v-2.62c0-.38-.07-.65-.21-.81-.14-.16-.35-.24-.64-.24-.15,0-.31,.03-.46,.08-.15,.05-.29,.14-.41,.26-.13,.12-.23,.24-.3,.37s-.1,.3-.1,.51v2.45h-.7v-4.14Z"/><path class="cls-4" d="M43.77,24.75c-.07,.4-.25,.71-.53,.94-.29,.23-.7,.34-1.23,.34-.63,0-1.11-.19-1.45-.57-.34-.38-.5-.91-.5-1.6,0-.36,.05-.67,.14-.95s.23-.51,.4-.7c.17-.19,.38-.33,.62-.43,.24-.1,.5-.15,.78-.15,.32,0,.59,.05,.82,.15s.42,.24,.56,.42c.15,.18,.26,.39,.33,.64,.07,.25,.11,.52,.11,.81v.35h-3.07c0,.21,.03,.4,.08,.58,.06,.18,.14,.33,.24,.46,.1,.13,.23,.23,.39,.31,.15,.07,.33,.11,.54,.11,.35,0,.6-.06,.76-.2s.27-.31,.33-.53h.67Zm-.63-1.26c0-.2-.02-.38-.06-.54s-.11-.3-.2-.41c-.09-.11-.21-.2-.35-.27-.14-.06-.32-.1-.52-.1-.37,0-.65,.11-.86,.34-.21,.22-.33,.55-.36,.98h2.36Z"/><path class="cls-4" d="M48.31,20.2h.78l2.22,5.71h-.8l-.6-1.59h-2.45l-.6,1.59h-.77l2.22-5.71Zm1.37,3.48l-1.01-2.65-.99,2.65h2Z"/><path class="cls-4" d="M51.83,21.78h.7v2.61c0,.38,.06,.66,.19,.82,.12,.16,.33,.24,.61,.24,.31,0,.59-.11,.84-.34,.13-.12,.24-.24,.3-.37,.07-.13,.1-.3,.1-.51v-2.45h.7v4.14h-.69v-.64c-.2,.27-.42,.46-.66,.58-.24,.12-.49,.18-.76,.18-.47,0-.81-.13-1.02-.38-.21-.25-.32-.63-.32-1.14v-2.74Z"/><path class="cls-4" d="M56.58,22.33h-.64v-.55h.64v-1.13h.7v1.13h1.1v.55h-1.1v2.42c0,.2,.05,.37,.14,.49,.09,.12,.23,.18,.42,.18,.12,0,.22,0,.31-.02,.09-.02,.17-.04,.24-.06l.12,.54c-.11,.04-.22,.07-.35,.09-.12,.02-.27,.04-.44,.04-.24,0-.42-.04-.57-.1-.14-.07-.26-.17-.34-.3-.09-.13-.14-.28-.17-.46-.03-.18-.04-.37-.04-.58v-2.24Z"/><path class="cls-4" d="M60.85,26.04c-.31,0-.59-.05-.84-.15s-.45-.25-.62-.43-.3-.42-.39-.69c-.09-.27-.14-.58-.14-.91s.05-.64,.14-.91c.1-.27,.23-.5,.41-.7,.18-.19,.39-.34,.64-.44,.25-.1,.52-.16,.83-.16s.59,.05,.83,.15,.45,.25,.63,.44c.17,.19,.31,.42,.4,.68,.09,.27,.14,.57,.14,.9s-.05,.65-.14,.92c-.09,.27-.23,.5-.4,.7-.17,.19-.39,.34-.64,.44-.25,.1-.53,.16-.84,.16Zm0-.58c.22,0,.42-.04,.58-.12,.16-.08,.29-.19,.4-.34,.1-.14,.18-.32,.23-.52,.05-.2,.07-.42,.07-.66s-.02-.45-.07-.65c-.05-.2-.12-.37-.23-.51-.1-.14-.24-.25-.4-.33-.16-.08-.35-.12-.58-.12s-.42,.04-.57,.12-.29,.19-.39,.33c-.1,.14-.18,.31-.23,.51s-.07,.42-.07,.66,.02,.46,.07,.66,.12,.37,.22,.51c.1,.14,.23,.26,.39,.34s.35,.12,.58,.12Z"/></g><g><path class="cls-3" d="M1.66,19.19c.16-1.56,1.57-2.83,3.14-2.83H15.03c1.57,0,2.71,1.27,2.55,2.83l-1.37,13.23c-.16,1.56-1.57,2.83-3.14,2.83H2.85c-1.57,0-2.71-1.27-2.55-2.83l1.37-13.23Z"/><path class="cls-7" d="M1.66,19.19c.16-1.56,1.57-2.83,3.14-2.83H15.03c1.57,0,2.71,1.27,2.55,2.83l-1.37,13.23c-.16,1.56-1.57,2.83-3.14,2.83H2.85c-1.57,0-2.71-1.27-2.55-2.83l1.37-13.23Z"/></g></g><g><g><path class="cls-4" d="M27.46,47.55h.69v.63c.19-.26,.39-.45,.62-.57,.22-.12,.45-.19,.69-.19,.31,0,.56,.07,.75,.2,.19,.13,.33,.33,.42,.58,.19-.26,.4-.45,.64-.58s.5-.2,.77-.2c.41,0,.72,.11,.94,.33,.22,.22,.33,.58,.33,1.07v2.86h-.7v-2.7c0-.19-.02-.34-.05-.47-.03-.13-.08-.22-.14-.3-.06-.07-.14-.12-.23-.15s-.19-.04-.31-.04c-.12,0-.25,.02-.38,.06-.13,.04-.26,.12-.39,.22-.11,.09-.19,.2-.26,.33s-.1,.27-.1,.44v2.61h-.7v-2.7c0-.36-.06-.61-.19-.76s-.31-.21-.54-.21c-.27,0-.53,.11-.77,.34-.09,.08-.18,.19-.26,.33-.08,.13-.12,.31-.12,.54v2.46h-.7v-4.14Z"/><path class="cls-4" d="M34.34,45.98h.74v.81h-.74v-.81Zm.02,1.58h.7v4.14h-.7v-4.14Z"/><path class="cls-4" d="M36.39,48.1h-.64v-.55h.64v-1.13h.7v1.13h1.1v.55h-1.1v2.42c0,.2,.05,.37,.14,.49,.09,.12,.23,.18,.42,.18,.12,0,.22,0,.31-.02,.09-.02,.17-.04,.24-.06l.12,.54c-.11,.04-.22,.07-.35,.09-.12,.02-.27,.04-.44,.04-.24,0-.42-.04-.57-.1-.14-.07-.26-.17-.34-.3-.09-.13-.14-.28-.17-.46-.03-.18-.04-.37-.04-.58v-2.24Z"/><path class="cls-4" d="M42.49,45.98h.78l2.22,5.71h-.8l-.6-1.59h-2.45l-.6,1.59h-.77l2.22-5.71Zm1.37,3.48l-1.01-2.65-.99,2.65h2Z"/><path class="cls-4" d="M46,47.55h.7v2.61c0,.38,.06,.66,.19,.82,.12,.16,.33,.24,.61,.24,.31,0,.59-.11,.84-.34,.13-.12,.24-.24,.3-.37,.07-.13,.1-.3,.1-.51v-2.45h.7v4.14h-.69v-.64c-.2,.27-.42,.46-.66,.58-.24,.12-.49,.18-.76,.18-.47,0-.81-.13-1.02-.38-.21-.25-.32-.63-.32-1.14v-2.74Z"/><path class="cls-4" d="M50.75,48.1h-.64v-.55h.64v-1.13h.7v1.13h1.1v.55h-1.1v2.42c0,.2,.05,.37,.14,.49,.09,.12,.23,.18,.42,.18,.12,0,.22,0,.31-.02,.09-.02,.17-.04,.24-.06l.12,.54c-.11,.04-.22,.07-.35,.09-.12,.02-.27,.04-.44,.04-.24,0-.42-.04-.57-.1-.14-.07-.26-.17-.34-.3-.09-.13-.14-.28-.17-.46-.03-.18-.04-.37-.04-.58v-2.24Z"/><path class="cls-4" d="M55.02,51.82c-.31,0-.59-.05-.84-.15s-.45-.25-.62-.43-.3-.42-.39-.69c-.09-.27-.14-.58-.14-.91s.05-.64,.14-.91c.1-.27,.23-.5,.41-.7,.18-.19,.39-.34,.64-.44,.25-.1,.52-.16,.83-.16s.59,.05,.83,.15,.45,.25,.63,.44c.17,.19,.31,.42,.4,.68,.09,.27,.14,.57,.14,.9s-.05,.65-.14,.92c-.09,.27-.23,.5-.4,.7-.17,.19-.39,.34-.64,.44-.25,.1-.53,.16-.84,.16Zm0-.58c.22,0,.42-.04,.58-.12,.16-.08,.29-.19,.4-.34,.1-.14,.18-.32,.23-.52,.05-.2,.07-.42,.07-.66s-.02-.45-.07-.65c-.05-.2-.12-.37-.23-.51-.1-.14-.24-.25-.4-.33-.16-.08-.35-.12-.58-.12s-.42,.04-.57,.12-.29,.19-.39,.33c-.1,.14-.18,.31-.23,.51s-.07,.42-.07,.66,.02,.46,.07,.66,.12,.37,.22,.51c.1,.14,.23,.26,.39,.34s.35,.12,.58,.12Z"/></g><g><g><path class="cls-3" d="M2.86,45.78c.16-1.56,1.57-2.83,3.14-2.83h10.23c1.57,0,2.71,1.27,2.55,2.83l-1.37,13.23c-.16,1.56-1.57,2.83-3.14,2.83H4.04c-1.57,0-2.71-1.27-2.55-2.83l1.37-13.23Z"/><path class="cls-7" d="M2.86,45.78c.16-1.56,1.57-2.83,3.14-2.83h10.23c1.57,0,2.71,1.27,2.55,2.83l-1.37,13.23c-.16,1.56-1.57,2.83-3.14,2.83H4.04c-1.57,0-2.71-1.27-2.55-2.83l1.37-13.23Z"/></g><g class="cls-5"><path class="cls-2" d="M1.66,44.16c.16-1.56,1.57-2.83,3.14-2.83H15.03c1.57,0,2.71,1.27,2.55,2.83l-1.37,13.23c-.16,1.56-1.57,2.83-3.14,2.83H2.85c-1.57,0-2.71-1.27-2.55-2.83l1.37-13.23Z"/></g></g></g><g><g><path class="cls-4" d="M30.47,72.88c-.17,.23-.37,.41-.59,.53-.22,.13-.49,.19-.79,.19s-.57-.06-.79-.17c-.22-.11-.4-.27-.55-.46-.14-.2-.25-.43-.32-.69s-.1-.55-.1-.86c0-.34,.04-.65,.13-.92,.08-.27,.21-.51,.36-.7,.16-.19,.35-.34,.58-.44s.48-.15,.77-.15c.22,0,.44,.04,.66,.13,.22,.09,.43,.25,.62,.5v-2.08h.7v5.71h-.68v-.59Zm0-1.6c0-.33-.04-.59-.11-.77-.07-.18-.19-.34-.36-.47-.12-.1-.24-.16-.36-.2-.12-.04-.25-.06-.4-.06-.17,0-.33,.03-.48,.09-.15,.06-.28,.15-.38,.28s-.19,.3-.26,.5c-.06,.21-.09,.46-.09,.75s.03,.56,.1,.77c.07,.21,.16,.37,.26,.5,.11,.12,.23,.21,.37,.26,.14,.05,.28,.08,.42,.08,.15,0,.29-.02,.42-.06,.12-.04,.25-.1,.37-.19,.16-.13,.28-.29,.36-.48,.08-.19,.12-.43,.12-.73v-.28Z"/><path class="cls-4" d="M34.81,72.9c-.15,.18-.34,.34-.57,.47-.23,.13-.51,.2-.86,.2-.21,0-.4-.03-.57-.08-.17-.05-.32-.13-.45-.23-.12-.1-.22-.23-.29-.39-.07-.15-.1-.34-.1-.54,0-.28,.06-.51,.18-.69s.28-.31,.48-.42c.2-.1,.43-.17,.68-.22,.25-.04,.51-.07,.78-.08l.71-.02v-.16c0-.35-.07-.6-.22-.76-.15-.15-.39-.23-.73-.23s-.57,.06-.73,.16c-.15,.11-.26,.26-.3,.45l-.63-.07c.07-.38,.25-.66,.54-.83,.28-.17,.67-.26,1.15-.26,.3,0,.55,.04,.76,.11s.37,.17,.5,.31c.13,.13,.22,.3,.28,.5,.06,.2,.08,.42,.08,.66v2.69h-.67v-.57Zm-.02-1.5l-.66,.02c-.28,.01-.52,.04-.7,.08-.19,.04-.33,.1-.44,.17-.11,.07-.19,.16-.23,.27-.04,.11-.07,.23-.07,.37,0,.21,.06,.38,.19,.5s.33,.19,.62,.19c.41,0,.73-.1,.96-.3,.23-.2,.34-.48,.34-.83v-.46Z"/><path class="cls-4" d="M35.98,69.33h.81l1.23,3.36,1.26-3.36h.77l-1.66,4.14h-.74l-1.66-4.14Z"/><path class="cls-4" d="M42.32,73.6c-.31,0-.59-.05-.84-.15s-.45-.25-.62-.43-.3-.42-.39-.69c-.09-.27-.14-.58-.14-.91s.05-.64,.14-.91c.1-.27,.23-.5,.41-.7,.18-.19,.39-.34,.64-.44,.25-.1,.52-.16,.83-.16s.59,.05,.83,.15,.45,.25,.63,.44c.17,.19,.31,.42,.4,.68,.09,.27,.14,.57,.14,.9s-.05,.65-.14,.92c-.09,.27-.23,.5-.4,.7-.17,.19-.39,.34-.64,.44-.25,.1-.53,.16-.84,.16Zm0-.58c.22,0,.42-.04,.58-.12,.16-.08,.29-.19,.4-.34,.1-.14,.18-.32,.23-.52,.05-.2,.07-.42,.07-.66s-.02-.45-.07-.65c-.05-.2-.12-.37-.23-.51-.1-.14-.24-.25-.4-.33-.16-.08-.35-.12-.58-.12s-.42,.04-.57,.12-.29,.19-.39,.33c-.1,.14-.18,.31-.23,.51s-.07,.42-.07,.66,.02,.46,.07,.66,.12,.37,.22,.51c.1,.14,.23,.26,.39,.34s.35,.12,.58,.12Z"/><path class="cls-4" d="M45.27,69.33h.69v.63c.2-.27,.43-.47,.67-.58,.25-.12,.5-.18,.78-.18,.47,0,.82,.13,1.04,.38,.23,.26,.34,.63,.34,1.13v2.75h-.7v-2.62c0-.38-.07-.65-.21-.81-.14-.16-.35-.24-.64-.24-.15,0-.31,.03-.46,.08-.15,.05-.29,.14-.41,.26-.13,.12-.23,.24-.3,.37s-.1,.3-.1,.51v2.45h-.7v-4.14Z"/><path class="cls-4" d="M27.56,77.36h.74v2.42h2.89v-2.42h.74v5.71h-.74v-2.61h-2.89v2.61h-.74v-5.71Z"/><path class="cls-4" d="M33.07,83.95c.15,.05,.3,.08,.45,.08,.17,0,.3-.04,.4-.13,.09-.09,.18-.25,.28-.49l.17-.44-1.75-4.03h.81l1.3,3.25,1.19-3.25h.77l-1.81,4.53c-.08,.19-.15,.35-.22,.49-.07,.14-.16,.26-.25,.36s-.2,.18-.32,.23c-.13,.05-.28,.08-.46,.08-.13,0-.24,0-.34-.02s-.21-.05-.34-.09l.14-.56Z"/><path class="cls-4" d="M37.27,77.36h.7v2.15c.17-.22,.37-.4,.59-.52,.22-.12,.49-.18,.79-.18s.55,.05,.77,.16c.22,.11,.41,.26,.55,.45,.15,.19,.26,.42,.33,.68,.07,.26,.11,.56,.11,.88,0,.34-.04,.65-.13,.92s-.21,.51-.37,.7-.35,.34-.58,.44c-.23,.1-.48,.16-.76,.16-.24,0-.47-.05-.7-.15s-.43-.27-.61-.51v.53h-.69v-5.71Zm.69,3.76c0,.27,.03,.5,.09,.68,.06,.19,.14,.34,.25,.47,.11,.12,.23,.21,.38,.27,.15,.06,.31,.08,.49,.08s.33-.03,.48-.09c.15-.06,.27-.15,.38-.28,.11-.13,.19-.3,.25-.51s.09-.46,.09-.76-.03-.56-.1-.76-.15-.37-.26-.49c-.11-.12-.23-.21-.36-.26-.14-.05-.28-.08-.42-.08-.18,0-.35,.03-.5,.09-.16,.06-.29,.15-.4,.27-.11,.12-.2,.27-.27,.46-.06,.18-.1,.4-.1,.64v.28Z"/><path class="cls-4" d="M42.05,78.93h.69v.64c.16-.23,.34-.41,.54-.53,.21-.12,.43-.18,.66-.18,.14,0,.27,.01,.37,.03l-.09,.65c-.05-.01-.11-.02-.16-.03-.05,0-.11-.01-.18-.01-.13,0-.26,.02-.39,.07-.13,.05-.26,.12-.38,.23-.12,.1-.21,.22-.28,.35-.07,.13-.1,.29-.1,.46v2.46h-.7v-4.14Z"/><path class="cls-4" d="M44.97,77.36h.74v.81h-.74v-.81Zm.02,1.58h.7v4.14h-.7v-4.14Z"/><path class="cls-4" d="M49.78,82.48c-.17,.23-.37,.41-.59,.53-.22,.12-.49,.19-.79,.19s-.57-.06-.79-.17c-.22-.11-.4-.26-.55-.46-.14-.19-.25-.42-.32-.69s-.1-.55-.1-.86c0-.34,.04-.65,.13-.92,.08-.27,.21-.51,.36-.7,.16-.19,.35-.34,.58-.44,.23-.1,.48-.15,.77-.15,.22,0,.44,.04,.66,.13,.22,.09,.43,.25,.62,.5v-2.08h.7v5.71h-.68v-.59Zm0-1.6c0-.33-.04-.59-.11-.77-.07-.18-.19-.34-.36-.47-.12-.1-.24-.16-.36-.2-.12-.04-.25-.06-.4-.06-.17,0-.33,.03-.48,.09-.15,.06-.28,.15-.38,.28s-.19,.3-.26,.5-.09,.45-.09,.75,.03,.56,.1,.77c.07,.21,.16,.37,.26,.5s.23,.21,.37,.26c.14,.05,.28,.08,.42,.08,.15,0,.29-.02,.42-.06,.12-.04,.25-.1,.37-.19,.16-.13,.28-.29,.36-.48,.08-.19,.12-.43,.12-.73v-.28Z"/><path class="cls-4" d="M56.63,82.57c-.18,.19-.41,.34-.67,.45-.27,.12-.57,.17-.91,.17-.37,0-.69-.04-.94-.13-.25-.09-.46-.21-.61-.36s-.26-.32-.33-.52-.1-.4-.1-.62,.03-.4,.1-.57,.16-.32,.28-.46c.11-.14,.25-.26,.4-.37,.15-.11,.31-.21,.48-.3-.14-.17-.28-.36-.41-.58s-.19-.46-.19-.73c0-.18,.03-.34,.1-.49,.06-.15,.15-.28,.27-.39,.12-.11,.26-.2,.42-.26,.17-.06,.35-.1,.54-.1,.22,0,.41,.03,.58,.09,.17,.06,.3,.14,.41,.25,.11,.11,.19,.23,.25,.38,.06,.14,.08,.3,.08,.46,0,.19-.03,.36-.09,.5-.06,.14-.14,.27-.25,.39-.1,.12-.23,.22-.36,.32-.14,.09-.28,.19-.43,.28l1.37,1.61c.08-.2,.14-.39,.17-.58s.05-.4,.06-.63h.65c-.01,.32-.06,.62-.14,.92-.08,.29-.19,.56-.33,.8l.84,.98h-.82l-.42-.5Zm-1.95-2.28c-.12,.07-.23,.14-.34,.22s-.2,.16-.28,.26c-.08,.1-.15,.2-.2,.32s-.07,.25-.07,.39c0,.16,.02,.31,.06,.45,.04,.14,.11,.26,.22,.36,.1,.1,.24,.18,.4,.24s.38,.09,.64,.09,.49-.05,.68-.14c.19-.09,.34-.21,.46-.35l-1.57-1.85Zm.24-.69c.1-.05,.19-.11,.3-.18s.19-.15,.28-.23,.15-.18,.2-.28c.05-.11,.08-.23,.08-.36,0-.23-.06-.41-.19-.53s-.29-.18-.49-.18c-.22,0-.4,.06-.52,.19-.12,.13-.18,.31-.18,.54,0,.2,.06,.39,.17,.56,.11,.17,.23,.33,.36,.47Z"/><path class="cls-4" d="M60.3,77.36h3.7v.65h-2.96v1.79h2.8v.66h-2.8v1.97h3.11l-.12,.65h-3.73v-5.71Z"/><path class="cls-4" d="M64.97,77.36h.7v5.71h-.7v-5.71Z"/><path class="cls-4" d="M70.33,81.91c-.07,.4-.25,.71-.53,.94s-.7,.34-1.23,.34c-.63,0-1.11-.19-1.45-.57-.34-.38-.5-.91-.5-1.6,0-.36,.05-.67,.14-.95,.1-.28,.23-.51,.4-.7,.17-.19,.38-.33,.62-.43,.24-.1,.5-.15,.78-.15,.32,0,.59,.05,.82,.15,.23,.1,.42,.24,.56,.42,.15,.18,.26,.39,.33,.64,.07,.25,.11,.51,.11,.81v.35h-3.07c0,.21,.03,.4,.08,.58,.06,.18,.14,.33,.24,.46,.1,.13,.23,.23,.39,.31,.15,.08,.33,.11,.54,.11,.35,0,.6-.07,.76-.2s.27-.31,.33-.53h.67Zm-.63-1.26c0-.2-.02-.38-.06-.54-.04-.16-.11-.3-.2-.41-.09-.12-.21-.2-.35-.27-.14-.06-.32-.1-.52-.1-.37,0-.65,.11-.86,.34-.21,.22-.33,.55-.36,.98h2.36Z"/><path class="cls-4" d="M71.32,77.36h.69v3.33l1.94-1.75h.84l-1.48,1.38,1.64,2.75h-.79l-1.37-2.34-.78,.7v1.65h-.69v-5.71Z"/><path class="cls-4" d="M75.82,79.49h-.64v-.55h.64v-1.13h.7v1.13h1.1v.55h-1.1v2.42c0,.2,.05,.37,.14,.49,.09,.12,.23,.18,.42,.18,.12,0,.22,0,.31-.02s.17-.04,.24-.06l.12,.54c-.11,.04-.22,.07-.35,.09-.12,.02-.27,.04-.44,.04-.24,0-.42-.03-.57-.1-.14-.07-.26-.17-.34-.3-.09-.13-.14-.28-.17-.46s-.04-.37-.04-.58v-2.24Z"/><path class="cls-4" d="M78.36,78.93h.69v.64c.16-.23,.34-.41,.54-.53,.21-.12,.43-.18,.66-.18,.14,0,.27,.01,.37,.03l-.09,.65c-.05-.01-.11-.02-.16-.03-.05,0-.11-.01-.18-.01-.13,0-.26,.02-.39,.07-.13,.05-.26,.12-.38,.23-.12,.1-.21,.22-.28,.35-.07,.13-.1,.29-.1,.46v2.46h-.7v-4.14Z"/><path class="cls-4" d="M82.9,83.2c-.31,0-.59-.05-.84-.15-.25-.1-.45-.25-.62-.43-.17-.19-.3-.42-.39-.69-.09-.27-.14-.58-.14-.91s.05-.64,.14-.91,.23-.5,.41-.7c.18-.19,.39-.34,.64-.44,.25-.1,.52-.16,.83-.16s.59,.05,.83,.15c.25,.1,.45,.25,.63,.44,.17,.19,.31,.42,.4,.68,.09,.27,.14,.57,.14,.9s-.05,.65-.14,.92c-.09,.27-.23,.5-.4,.7-.17,.19-.39,.34-.64,.44-.25,.1-.53,.16-.84,.16Zm0-.58c.22,0,.42-.04,.58-.12,.16-.08,.29-.19,.4-.34,.1-.14,.18-.32,.23-.52,.05-.2,.07-.42,.07-.66s-.02-.45-.07-.65c-.05-.2-.12-.37-.23-.51-.1-.14-.24-.25-.4-.33-.16-.08-.35-.12-.58-.12s-.42,.04-.57,.12-.29,.19-.39,.33c-.1,.14-.18,.31-.23,.51s-.07,.42-.07,.66,.02,.46,.07,.66,.12,.37,.22,.51c.1,.14,.23,.26,.39,.34s.35,.12,.58,.12Z"/></g><g><g><path class="cls-3" d="M2.86,72.36c.16-1.56,1.57-2.83,3.14-2.83h10.23c1.57,0,2.71,1.27,2.55,2.83l-1.37,13.23c-.16,1.56-1.57,2.83-3.14,2.83H4.04c-1.57,0-2.71-1.27-2.55-2.83l1.37-13.23Z"/><path class="cls-7" d="M2.86,72.36c.16-1.56,1.57-2.83,3.14-2.83h10.23c1.57,0,2.71,1.27,2.55,2.83l-1.37,13.23c-.16,1.56-1.57,2.83-3.14,2.83H4.04c-1.57,0-2.71-1.27-2.55-2.83l1.37-13.23Z"/></g><g class="cls-5"><path class="cls-1" d="M1.66,70.74c.16-1.56,1.57-2.83,3.14-2.83H15.03c1.57,0,2.71,1.27,2.55,2.83l-1.37,13.23c-.16,1.56-1.57,2.83-3.14,2.83H2.85c-1.57,0-2.71-1.27-2.55-2.83l1.37-13.23Z"/></g></g></g></g></g></g></g></svg>