<?xml version="1.0" encoding="UTF-8"?>
<svg id="fahrrad" data-name="Ebene 2" xmlns="http://www.w3.org/2000/svg" viewBox="0 0 10.2 6.4" width="20" y="-39" height="30" >
  <g id="Layer_1" data-name="Layer 1">
    <g>
      <path class="cls-1" d="M8.4,.9c0-.4-.3-.7-.7-.7h-1.6l2.3,4.2"/>
      <path class="cls-1" d="M8.4,6.2c.9,0,1.6-.8,1.6-1.8s-.7-1.8-1.6-1.8-1.6,.8-1.6,1.8,.7,1.8,1.6,1.8Z"/>
      <path class="cls-1" d="M1.8,6.2c.9,0,1.6-.8,1.6-1.8s-.7-1.8-1.6-1.8S.2,3.4,.2,4.4s.7,1.8,1.6,1.8Z"/>
      <path class="cls-1" d="M1.8,.2h1.1l2.3,4.2"/>
      <path class="cls-1" d="M6.8,1.6H3.7l-1.9,2.8"/>
    </g>
  </g>
</svg>