<?xml version="1.0" encoding="UTF-8"?>
<svg id="oepv" data-name="Ebene 2" xmlns="http://www.w3.org/2000/svg" viewBox="0 0 7.2 8.8" width="15" y="-40" height="30">
  <g id="Layer_1" data-name="Layer 1">
    <g>
      <path class="cls-1" d="M.2,4.1H7.1"/>
      <path class="cls-1" d="M.2,1.8H7.1"/>
      <path class="cls-1" d="M2.3,7.4l-1,1.3"/>
      <path class="cls-1" d="M4.9,7.4l1,1.3"/>
      <path class="cls-1" d="M6.1,.2H1.2C.6,.2,.2,.6,.2,1.2V6.4c0,.5,.4,1,1,1H6.1c.5,0,1-.4,1-1V1.2c0-.5-.4-1-1-1Z"/>
      <path class="cls-1" d="M3.6,1.8v2.3"/>
      <path class="cls-1" d="M1.8,6.4c.3,0,.5-.2,.5-.5s-.2-.5-.5-.5-.5,.2-.5,.5,.2,.5,.5,.5Z"/>
      <path class="cls-1" d="M5.4,6.4c.3,0,.5-.2,.5-.5s-.2-.5-.5-.5-.5,.2-.5,.5,.2,.5,.5,.5Z"/>
    </g>
  </g>
</svg>