<svg width="18" height="17" viewBox="0 0 18 17" fill="none" xmlns="http://www.w3.org/2000/svg">
<path d="M1 8.15771V13.7367C1 14.8412 1.89543 15.7367 3 15.7367H15C16.1046 15.7367 17 14.8412 17 13.7367V8.15771" stroke="black"/>
<path d="M9.35355 0.646447C9.15829 0.451184 8.84171 0.451184 8.64645 0.646447L5.46447 3.82843C5.2692 4.02369 5.2692 4.34027 5.46447 4.53553C5.65973 4.7308 5.97631 4.7308 6.17157 4.53553L9 1.70711L11.8284 4.53553C12.0237 4.7308 12.3403 4.7308 12.5355 4.53553C12.7308 4.34027 12.7308 4.02369 12.5355 3.82843L9.35355 0.646447ZM9.5 11.1053V1H8.5V11.1053H9.5Z" fill="black"/>
</svg>
