<svg width="18" height="17" viewBox="0 0 18 17" fill="none" xmlns="http://www.w3.org/2000/svg">
<g clip-path="url(#clip0_1090_27499)">
<path d="M1 8.15771V13.7367C1 14.8412 1.89543 15.7367 3 15.7367H15C16.1046 15.7367 17 14.8412 17 13.7367V8.15771" stroke="#484848"/>
<path d="M8.64641 10.9589C8.84167 11.1542 9.15825 11.1542 9.35351 10.9589L12.5355 7.77692C12.7308 7.58166 12.7308 7.26508 12.5355 7.06982C12.3402 6.87455 12.0237 6.87455 11.8284 7.06982L8.99996 9.89824L6.17156 7.06982C5.97626 6.87455 5.65966 6.87455 5.46446 7.06982C5.26916 7.26508 5.26916 7.58166 5.46446 7.77692L8.64641 10.9589ZM8.49996 0.500046L8.49996 10.6053L9.49996 10.6053L9.49996 0.500046L8.49996 0.500046Z" fill="#484848"/>
</g>
<defs>
<clipPath id="clip0_1090_27499">
<rect width="18" height="17" fill="white"/>
</clipPath>
</defs>
</svg>
