<svg width="45" height="45" viewBox="0 0 45 45" fill="none" xmlns="http://www.w3.org/2000/svg">
    <path d="M5.29289 22.2929C4.90237 22.6834 4.90237 23.3166 5.29289 23.7071L11.6569 30.0711C12.0474 30.4616 12.6805 30.4616 13.0711 30.0711C13.4616 29.6805 13.4616 29.0474 13.0711 28.6569L7.41421 23L13.0711 17.3431C13.4616 16.9526 13.4616 16.3195 13.0711 15.9289C12.6805 15.5384 12.0474 15.5384 11.6569 15.9289L5.29289 22.2929ZM40.7071 23.7071C41.0976 23.3166 41.0976 22.6834 40.7071 22.2929L34.3431 15.9289C33.9526 15.5384 33.3195 15.5384 32.9289 15.9289C32.5384 16.3195 32.5384 16.9526 32.9289 17.3431L38.5858 23L32.9289 28.6569C32.5384 29.0474 32.5384 29.6805 32.9289 30.0711C33.3195 30.4616 33.9526 30.4616 34.3431 30.0711L40.7071 23.7071ZM6 24L40 24L40 22L6 22L6 24Z" fill="#484848" />
</svg>