<?xml version="1.0" encoding="utf-8"?>
<!-- Generator: Adobe Illustrator 27.0.0, SVG Export Plug-In . SVG Version: 6.00 Build 0)  -->
<svg version="1.1" id="Layer_1" xmlns="http://www.w3.org/2000/svg" xmlns:xlink="http://www.w3.org/1999/xlink" x="0px" y="0px"
	 viewBox="0 0 127.1 35" style="enable-background:new 0 0 127.1 35;" xml:space="preserve">
<style type="text/css">
	.st0{fill:#FEFAF6;stroke:#E87780;}
	.st1{fill:url(#SVGID_1_);}
</style>
<path class="st0" d="M17.4,0.5h92.3c9.3,0,16.8,7.5,16.8,16.8v0c0,9.3-7.5,16.8-16.8,16.8H17.4c-9.3,0-16.8-7.5-16.8-16.8v0
	C0.6,8,8.1,0.5,17.4,0.5z"/>
<linearGradient id="SVGID_1_" gradientUnits="userSpaceOnUse" x1="107.0358" y1="20.4248" x2="25.3398" y2="17.2606" gradientTransform="matrix(1 0 0 -1 0 35.937)">
	<stop  offset="0" style="stop-color:#E8AD77"/>
	<stop  offset="1" style="stop-color:#E87780"/>
</linearGradient>
<path class="st1" d="M21.9,17.3l-1.8,1.5L19.2,23h-2.4l2.4-11.4h2.4L20.7,16l5-4.4h2.7l-4.7,4.4l2.7,7.1h-2.5L21.9,17.3z M27.6,23
	L30,11.6h2.4l-2,9.4h5.4l-0.7,2H27.6z M37,23l2.4-11.4h2.4L39.3,23H37z M46.5,23l-1.1-7.6L43.8,23h-2.1l2.4-11.4h2.8l1.1,8.5
	l4.7-8.5h2.8L53.1,23h-2.2l1.6-7.6L48.3,23H46.5z M63.4,11.6L65.3,23h-2.5l-0.4-2.6h-4L57,23h-2.6l6.7-11.4H63.4z M59.5,18.4h2.8
	l-0.5-4.1L59.5,18.4z M66.6,23L69,11.6h2.4l-2,9.4h5.4l-0.7,2H66.6z M84.2,11.6L86.1,23h-2.5l-0.4-2.6h-4L77.8,23h-2.6L82,11.6H84.2
	z M80.3,18.4h2.8l-0.5-4.1L80.3,18.4z M94.6,23l-3.3-7.5L89.8,23h-2.3l2.4-11.4h2l3.2,7.6l1.6-7.6H99L96.6,23H94.6z M98.9,23
	l2.4-11.4h3.8c0.8,0,1.5,0.1,2,0.4c0.6,0.2,1.1,0.6,1.5,1c0.4,0.4,0.7,0.9,0.9,1.5c0.2,0.6,0.3,1.2,0.3,1.8c0,1-0.2,2-0.5,2.8
	c-0.3,0.8-0.7,1.5-1.3,2.1c-0.6,0.6-1.3,1-2.2,1.3c-0.9,0.3-1.9,0.5-3.1,0.5H98.9z M103.2,21c0.7,0,1.4-0.1,1.9-0.3
	c0.5-0.2,1-0.5,1.3-0.9c0.4-0.4,0.6-0.9,0.8-1.5c0.2-0.6,0.3-1.2,0.3-1.9c0-0.4-0.1-0.7-0.2-1.1c-0.1-0.3-0.3-0.6-0.5-0.9
	c-0.2-0.3-0.5-0.5-0.8-0.6c-0.3-0.1-0.7-0.2-1.1-0.2h-1.6l-1.6,7.4H103.2z"/>
</svg>
