<svg width="156" height="27" viewBox="0 0 156 27" fill="none" xmlns="http://www.w3.org/2000/svg">
<rect x="0.777344" y="1.79005" width="56" height="24" rx="12" stroke="#E87780"/>
<g clip-path="url(#clip0_837_27453)">
<path d="M47.5071 8.7447C47.5811 8.6707 47.8853 8.40758 47.9922 8.36647C48.2964 8.17735 48.3704 8.17735 48.2142 8.58847C48.2142 8.66248 48.1402 8.9996 48.0662 9.0736C47.8031 9.41072 47.392 9.0736 47.4989 8.73648L47.5071 8.7447ZM44.991 6.60685C45.213 6.53285 46.0846 5.9326 45.7064 6.60685L45.4432 7.13309C45.139 7.3551 44.7279 6.86997 44.991 6.60685V6.60685ZM42.59 8.6707C43.0752 7.76622 43.8645 7.31398 44.3908 7.31398C44.8019 7.31398 45.3281 7.72511 45.3281 8.14446C45.4021 8.6707 45.3281 9.57517 45.1061 9.72318C44.843 9.72318 44.0536 11.0388 43.7494 11.0388C43.3383 11.0388 42.812 11.0388 42.6969 10.5537C42.812 10.1014 42.6969 9.69029 42.5818 9.35317C42.5818 9.01604 42.4667 9.01604 42.5818 8.67892L42.59 8.6707ZM41.3155 7.99645C41.4307 7.77444 41.5787 7.69222 41.8829 7.61822C42.294 7.4291 42.294 7.5031 42.0309 7.84023C41.9569 7.98823 41.8829 8.25135 41.6527 8.36647C41.3155 8.51447 41.1675 8.25135 41.3155 7.98823V7.99645ZM38.9475 9.57517C39.2106 9.19694 40.1151 8.7447 40.3371 8.7447C40.7482 8.89271 40.9784 8.89271 41.3895 8.89271H41.5375C41.6855 9.15583 41.9158 9.56695 41.8418 9.9863C41.7678 10.6605 41.0524 11.491 40.6742 11.639C40.4522 11.787 39.6217 11.9761 39.2435 11.787C38.7172 11.565 38.6432 10.1672 38.9392 9.56695L38.9475 9.57517ZM44.3168 18.9324C43.9385 19.3435 42.812 19.9849 42.1789 19.4997C41.5458 19.0146 41.2415 18.2581 41.2415 18.069H41.1675C41.0935 18.069 40.3042 17.921 39.9999 17.6579C39.7368 17.4359 39.2846 16.5643 39.1366 16.4163V16.3423C38.8734 16.3423 38.7583 16.4903 38.3883 16.3423C37.8621 16.1532 37.377 15.5118 37.377 14.9856C37.377 14.2373 38.1663 13.1109 38.8817 12.9546C39.449 12.6915 40.5015 12.6175 40.5015 12.6175C41.1429 12.1324 42.0391 11.9433 42.0391 11.9433C42.0391 11.9433 42.8696 11.6061 43.2396 11.6801C43.881 11.8281 43.881 12.7737 44.103 12.9546C44.4401 13.1026 45.0074 13.3658 44.8512 14.2702C44.4401 15.7338 44.8512 16.3341 45.0732 17.1646C44.9992 17.7648 44.8101 18.1759 44.325 18.9324H44.3168ZM45.0321 11.6801C45.1472 11.269 45.2952 10.7017 45.5995 10.3234C46.1668 9.68207 46.5368 9.53406 46.8411 9.53406C47.2522 9.68207 47.5893 9.75607 47.8195 9.75607C47.8935 9.75607 48.0087 9.75607 48.0087 9.83007C48.0827 10.1672 48.0827 11.0717 47.8935 11.4088C47.7455 11.8199 47.3673 12.3873 46.9562 12.6504C46.0928 13.1355 44.9992 12.9135 45.0403 11.6719L45.0321 11.6801ZM47.3591 16.2683C47.022 16.5314 47.022 16.8685 46.3806 17.0165C45.7064 17.1646 45.287 16.2683 45.287 15.8901C45.287 15.3638 45.509 15.1418 45.8544 14.6896C46.0764 14.3853 46.0764 13.7111 46.5697 13.5631C47.6962 13.152 48.0004 14.3113 48.0744 15.0267C47.8853 15.6269 47.6633 16.0381 47.3591 16.2683V16.2683ZM48.2964 13.4151C47.9922 13.6371 47.5811 13.226 47.9182 12.93C48.0662 12.8148 48.2224 12.7408 48.3704 12.5188C48.5185 12.1817 48.6336 12.3297 48.6336 12.5599C48.6336 12.9382 48.5185 13.1602 48.2964 13.4233V13.4151Z" fill="#E87780"/>
<path d="M9.81495 16.071C9.81495 17.3126 10.0781 18.1759 10.6043 18.7022C11.1306 19.2284 11.9199 19.4915 13.0053 19.4915C13.3095 19.4915 13.6466 19.4504 13.9838 19.4175C14.3209 19.3846 14.6991 19.3024 15.0774 19.1955L14.6991 17.2386C14.51 17.2797 14.3209 17.3126 14.1729 17.3537C13.9838 17.3948 13.7946 17.3948 13.6466 17.3948C13.3095 17.3948 13.0464 17.3208 12.8162 17.1317C12.5859 16.9425 12.479 16.6054 12.479 16.0792V11.4499H14.7731V9.38606H12.479V6.75485H9.81495V9.38606H8.27734V11.4499H9.81495V16.071V16.071ZM22.3296 19.3024H24.8457V13.0286C24.8457 12.4284 24.7717 11.861 24.6237 11.3759C24.4757 10.8908 24.2455 10.4714 23.9083 10.1343C23.5712 9.79718 23.1601 9.53406 22.6338 9.34494C22.1076 9.15583 21.4662 9.08182 20.6769 9.08182C19.4353 9.08182 18.4568 9.30383 17.7086 9.75607C16.9603 10.2083 16.5081 10.9566 16.3518 12.009L18.7939 12.231C18.9419 11.4417 19.5422 11.0306 20.5947 11.0306C21.0469 11.0306 21.458 11.1457 21.7952 11.3677C22.1323 11.5897 22.2803 12.009 22.2803 12.6093V13.0944L21.0058 13.1684C20.3644 13.2095 19.7642 13.2424 19.1311 13.3575C18.5308 13.4726 17.9635 13.6206 17.4783 13.8838C16.9932 14.1058 16.5739 14.4511 16.2778 14.8951C15.9736 15.3063 15.8256 15.8736 15.8256 16.5479C15.8256 17.0741 15.8996 17.5263 16.0887 17.9046C16.2778 18.2828 16.4999 18.5788 16.8041 18.8091C17.1083 19.0311 17.4454 19.2202 17.8566 19.3353C18.2677 19.4504 18.687 19.5244 19.1311 19.5244C19.9204 19.5244 20.5207 19.3764 21.0058 19.1133C21.4909 18.8502 21.9432 18.4719 22.3214 18.0197V19.2942L22.3296 19.3024ZM22.2885 15.3967C22.2885 15.8078 22.2145 16.145 22.0665 16.4081C21.9185 16.6712 21.7294 16.8932 21.4662 17.0823C21.0551 17.3866 20.4878 17.5675 19.8135 17.5675C19.4024 17.5675 19.0982 17.4523 18.8762 17.2632C18.6542 17.0741 18.539 16.811 18.539 16.4739C18.539 16.2519 18.5801 16.0627 18.6542 15.8736C18.7282 15.6845 18.8433 15.5365 19.0324 15.4214C19.2215 15.2734 19.4846 15.1994 19.8217 15.0843C20.1589 15.0103 20.6111 14.9362 21.1785 14.8951L22.3461 14.8211L22.3049 15.3885L22.2885 15.3967ZM26.3093 19.3024H34.4989L34.762 17.2386H29.6888L34.4989 11.1868V9.38606H26.3833V11.4499H31.1195L26.3093 17.5017V19.3024Z" fill="#E87780"/>
</g>
<rect x="64.3027" y="1.41664" width="90.7387" height="24" rx="12" stroke="#E87780"/>
<path d="M79.9223 13.5691L78.1343 15.0211L77.4623 18.2131H76.3583L78.1703 9.64514H79.2743L78.4223 13.6891L83.2583 9.64514H84.5543L80.8103 12.9091L83.0543 18.2131H81.8303L79.9223 13.5691ZM84.163 18.2131L85.975 9.64514H87.079L85.471 17.2291H89.911L89.539 18.2131H84.163ZM90.9013 18.2131L92.7133 9.64514H93.8173L92.0053 18.2131H90.9013ZM95.7133 9.64514H97.0453L98.2813 16.8931L102.601 9.64514H103.969L102.157 18.2131H101.137L102.565 11.4571L98.4493 18.2131H97.5493L96.3373 11.4811L94.9093 18.2131H93.9013L95.7133 9.64514ZM109.534 9.64514L111.046 18.2131H109.906L109.498 15.8251H105.838L104.434 18.2131H103.234L108.382 9.64514H109.534ZM106.366 14.8651H109.366L108.694 10.8931L106.366 14.8651ZM112.136 18.2131L113.948 9.64514H115.052L113.444 17.2291H117.884L117.512 18.2131H112.136ZM124.592 9.64514L126.104 18.2131H124.964L124.556 15.8251H120.896L119.492 18.2131H118.292L123.44 9.64514H124.592ZM121.424 14.8651H124.424L123.752 10.8931L121.424 14.8651ZM132.714 18.2131L129.702 11.4091L128.262 18.2131H127.194L129.006 9.64514H130.002L132.99 16.4491L134.43 9.64514H135.498L133.686 18.2131H132.714ZM135.585 18.2131L137.397 9.64514H140.181C140.701 9.64514 141.169 9.73314 141.585 9.90914C142.009 10.0771 142.365 10.3171 142.653 10.6291C142.949 10.9331 143.177 11.2971 143.337 11.7211C143.497 12.1451 143.577 12.6051 143.577 13.1011C143.577 13.8451 143.469 14.5291 143.253 15.1531C143.045 15.7771 142.725 16.3171 142.293 16.7731C141.861 17.2211 141.317 17.5731 140.661 17.8291C140.013 18.0851 139.249 18.2131 138.369 18.2131H135.585ZM138.525 17.2531C139.173 17.2531 139.741 17.1571 140.229 16.9651C140.717 16.7651 141.121 16.4851 141.441 16.1251C141.769 15.7571 142.013 15.3171 142.173 14.8051C142.341 14.2931 142.425 13.7251 142.425 13.1011C142.425 12.7571 142.377 12.4331 142.281 12.1291C142.185 11.8251 142.037 11.5611 141.837 11.3371C141.645 11.1051 141.401 10.9251 141.105 10.7971C140.809 10.6611 140.465 10.5931 140.073 10.5931H138.309L136.893 17.2531H138.525Z" fill="url(#paint0_linear_837_27453)"/>
<defs>
<linearGradient id="paint0_linear_837_27453" x1="141.656" y1="14.0056" x2="82.551" y2="16.2136" gradientUnits="userSpaceOnUse">
<stop stop-color="#E8AD77"/>
<stop offset="1" stop-color="#E87780"/>
</linearGradient>
<clipPath id="clip0_837_27453">
<rect width="44.3561" height="14.7131" fill="white" transform="translate(6.9502 4.78472)"/>
</clipPath>
</defs>
</svg>
