<?xml version="1.0" encoding="utf-8"?>
<!-- Generator: Adobe Illustrator 27.0.0, SVG Export Plug-In . SVG Version: 6.00 Build 0)  -->
<svg version="1.1" id="Layer_1" xmlns="http://www.w3.org/2000/svg" xmlns:xlink="http://www.w3.org/1999/xlink" x="0px" y="0px"
	 viewBox="0 0 79.3 35" style="enable-background:new 0 0 79.3 35;" xml:space="preserve">
<style type="text/css">
	.st0{fill:#FEFAF6;stroke:#E87780;}
	.st1{clip-path:url(#SVGID_00000075862238450229360810000015548786840129449379_);}
	.st2{fill:#E87780;}
</style>
<path class="st0" d="M17.6,0.9h44.2c9.3,0,16.8,7.5,16.8,16.8v0c0,9.3-7.5,16.8-16.8,16.8H17.6C8.3,34.5,0.8,27,0.8,17.7v0
	C0.8,8.4,8.3,0.9,17.6,0.9z"/>
<g>
	<defs>
		<path id="SVGID_1_" d="M23.5,8h32c4.7,0,8.5,3.8,8.5,8.5l0,0c0,4.7-3.8,8.5-8.5,8.5h-32c-4.7,0-8.5-3.8-8.5-8.5l0,0
			C15,11.8,18.8,8,23.5,8z"/>
	</defs>
	<clipPath id="SVGID_00000041253295042016279340000013406821600173319053_">
		<use xlink:href="#SVGID_1_"  style="overflow:visible;"/>
	</clipPath>
	<g style="clip-path:url(#SVGID_00000041253295042016279340000013406821600173319053_);">
		<path class="st2" d="M59.8,12.6c0.1-0.1,0.4-0.4,0.5-0.4c0.3-0.2,0.4-0.2,0.2,0.3c0,0.1-0.1,0.5-0.2,0.6
			C60.1,13.3,59.7,13,59.8,12.6L59.8,12.6z M57,10.1c0.2-0.1,1.2-0.8,0.8,0l-0.3,0.6C57.2,11,56.7,10.4,57,10.1L57,10.1z M54.4,12.5
			c0.5-1,1.4-1.6,2-1.6c0.5,0,1,0.5,1,1c0.1,0.6,0,1.7-0.2,1.8c-0.3,0-1.2,1.5-1.5,1.5c-0.5,0-1,0-1.2-0.6c0.1-0.5,0-1-0.1-1.4
			C54.4,12.9,54.2,12.9,54.4,12.5L54.4,12.5z M53,11.7c0.1-0.3,0.3-0.4,0.6-0.4c0.5-0.2,0.5-0.1,0.2,0.3c-0.1,0.2-0.2,0.5-0.4,0.6
			C53,12.3,52.8,12,53,11.7L53,11.7z M50.3,13.5c0.3-0.4,1.3-1,1.5-1c0.5,0.2,0.7,0.2,1.2,0.2h0.2c0.2,0.3,0.4,0.8,0.3,1.3
			c-0.1,0.8-0.9,1.7-1.3,1.9c-0.2,0.2-1.2,0.4-1.6,0.2C50.1,15.8,50,14.2,50.3,13.5L50.3,13.5z M56.3,24.3c-0.4,0.5-1.7,1.2-2.4,0.7
			c-0.7-0.6-1-1.4-1-1.7h-0.1c-0.1,0-1-0.2-1.3-0.5c-0.3-0.3-0.8-1.3-1-1.4v-0.1c-0.3,0-0.4,0.2-0.8,0c-0.6-0.2-1.1-1-1.1-1.6
			c0-0.9,0.9-2.2,1.7-2.3c0.6-0.3,1.8-0.4,1.8-0.4c0.7-0.6,1.7-0.8,1.7-0.8s0.9-0.4,1.3-0.3c0.7,0.2,0.7,1.3,1,1.5
			c0.4,0.2,1,0.5,0.8,1.5c-0.5,1.7,0,2.4,0.2,3.3C57,23,56.8,23.5,56.3,24.3L56.3,24.3z M57.1,16c0.1-0.5,0.3-1.1,0.6-1.6
			c0.6-0.7,1-0.9,1.4-0.9c0.5,0.2,0.8,0.3,1.1,0.3c0.1,0,0.2,0,0.2,0.1c0.1,0.4,0.1,1.4-0.1,1.8c-0.2,0.5-0.6,1.1-1,1.4
			C58.2,17.6,57,17.4,57.1,16L57.1,16z M59.6,21.3c-0.4,0.3-0.4,0.7-1.1,0.9c-0.7,0.2-1.2-0.9-1.2-1.3c0-0.6,0.2-0.9,0.6-1.4
			c0.2-0.4,0.2-1.1,0.8-1.3c1.2-0.5,1.6,0.9,1.7,1.7C60.2,20.5,60,21,59.6,21.3L59.6,21.3z M60.7,18c-0.3,0.3-0.8-0.2-0.4-0.6
			c0.2-0.1,0.3-0.2,0.5-0.5c0.2-0.4,0.3-0.2,0.3,0C61,17.4,60.9,17.7,60.7,18L60.7,18z"/>
		<path class="st2" d="M18.2,21c0,1.4,0.3,2.4,0.9,3c0.6,0.6,1.5,0.9,2.7,0.9c0.3,0,0.7,0,1.1-0.1c0.4,0,0.8-0.1,1.2-0.3l-0.4-2.3
			c-0.2,0-0.4,0.1-0.6,0.1c-0.2,0-0.4,0-0.6,0c-0.4,0-0.7-0.1-0.9-0.3c-0.3-0.2-0.4-0.6-0.4-1.2v-5.3h2.5v-2.4h-2.5v-3h-2.9v3h-1.7
			v2.4h1.7V21L18.2,21z M32,24.8h2.8v-7.2c0-0.7-0.1-1.3-0.2-1.9c-0.2-0.6-0.4-1-0.8-1.4c-0.4-0.4-0.8-0.7-1.4-0.9
			C31.7,13.1,31,13,30.2,13c-1.4,0-2.5,0.3-3.3,0.8c-0.8,0.5-1.3,1.4-1.5,2.6l2.7,0.3c0.2-0.9,0.8-1.4,2-1.4c0.5,0,1,0.1,1.3,0.4
			c0.4,0.3,0.5,0.7,0.5,1.4v0.6l-1.4,0.1c-0.7,0-1.4,0.1-2.1,0.2c-0.7,0.1-1.3,0.3-1.8,0.6c-0.5,0.3-1,0.7-1.3,1.2
			c-0.3,0.5-0.5,1.1-0.5,1.9c0,0.6,0.1,1.1,0.3,1.6c0.2,0.4,0.5,0.8,0.8,1c0.3,0.3,0.7,0.5,1.2,0.6c0.5,0.1,0.9,0.2,1.4,0.2
			c0.9,0,1.5-0.2,2.1-0.5c0.5-0.3,1-0.7,1.5-1.3L32,24.8L32,24.8z M31.9,20.3c0,0.5-0.1,0.9-0.2,1.2c-0.2,0.3-0.4,0.6-0.7,0.8
			c-0.5,0.4-1.1,0.6-1.8,0.6c-0.5,0-0.8-0.1-1-0.4c-0.2-0.2-0.4-0.5-0.4-0.9c0-0.3,0-0.5,0.1-0.7c0.1-0.2,0.2-0.4,0.4-0.5
			c0.2-0.2,0.5-0.3,0.9-0.4c0.4-0.1,0.9-0.2,1.5-0.2l1.3-0.1L31.9,20.3L31.9,20.3z M36.4,24.8h9l0.3-2.4h-5.6l5.3-7v-2.1h-9v2.4h5.2
			l-5.3,7V24.8z"/>
	</g>
</g>
</svg>
