<svg width="215" height="35" viewBox="0 0 215 35" fill="none" xmlns="http://www.w3.org/2000/svg">
    <rect x="0.777344" y="0.932949" width="77.8129" height="33.5671" rx="16.7835" stroke="#E87780" fill="#fefaf6" />
    <g clip-path="url(#clip0_837_27454)">
        <path d="M59.8035 12.5755C59.8853 12.49 60.2214 12.186 60.3394 12.1385C60.6755 11.92 60.7573 11.92 60.5847 12.395C60.5847 12.4805 60.5029 12.87 60.4212 12.9555C60.1305 13.3451 59.6764 12.9555 59.7944 12.566L59.8035 12.5755ZM57.024 10.1054C57.2693 10.0198 58.2321 9.3263 57.8143 10.1054L57.5236 10.7134C57.1875 10.9699 56.7333 10.4094 57.024 10.1054V10.1054ZM54.3717 12.49C54.9076 11.4449 55.7796 10.9224 56.3609 10.9224C56.8151 10.9224 57.3964 11.3974 57.3964 11.882C57.4782 12.49 57.3964 13.5351 57.1512 13.7061C56.8605 13.7061 55.9885 15.2262 55.6524 15.2262C55.1982 15.2262 54.6169 15.2262 54.4897 14.6656C54.6169 14.1431 54.4897 13.6681 54.3626 13.2785C54.3626 12.889 54.2354 12.889 54.3626 12.4995L54.3717 12.49ZM52.9637 11.711C53.0909 11.4544 53.2544 11.3594 53.5905 11.2739C54.0447 11.0554 54.0447 11.1409 53.754 11.5304C53.6722 11.7015 53.5905 12.0055 53.3362 12.1385C52.9637 12.3095 52.8002 12.0055 52.9637 11.7014V11.711ZM50.3477 13.5351C50.6384 13.098 51.6376 12.5755 51.8828 12.5755C52.337 12.7465 52.5913 12.7465 53.0455 12.7465H53.209C53.3725 13.0505 53.6268 13.5256 53.5451 14.0101C53.4633 14.7891 52.6731 15.7487 52.2552 15.9197C52.01 16.0907 51.0926 16.3092 50.6747 16.0907C50.0934 15.8342 50.0116 14.2191 50.3386 13.5256L50.3477 13.5351ZM56.2792 24.3467C55.8613 24.8218 54.6169 25.5628 53.9175 25.0023C53.2181 24.4417 52.882 23.5677 52.882 23.3492H52.8002C52.7185 23.3492 51.8465 23.1782 51.5104 22.8741C51.2197 22.6176 50.7201 21.6106 50.5566 21.4396V21.354C50.266 21.354 50.1388 21.5251 49.73 21.354C49.1487 21.1355 48.6128 20.3945 48.6128 19.7864C48.6128 18.9219 49.4848 17.6203 50.2751 17.4398C50.9018 17.1358 52.0645 17.0503 52.0645 17.0503C52.773 16.4897 53.7631 16.2712 53.7631 16.2712C53.7631 16.2712 54.6805 15.8817 55.0892 15.9672C55.7977 16.1382 55.7977 17.2308 56.043 17.4398C56.4154 17.6108 57.0422 17.9148 56.8696 18.9599C56.4154 20.651 56.8696 21.3445 57.1148 22.3041C57.0331 22.9976 56.8242 23.4727 56.2882 24.3467H56.2792ZM57.0694 15.9672C57.1966 15.4922 57.3601 14.8366 57.6962 14.3996C58.3229 13.6586 58.7317 13.4876 59.0678 13.4876C59.5219 13.6586 59.8944 13.7441 60.1487 13.7441C60.2304 13.7441 60.3576 13.7441 60.3576 13.8296C60.4394 14.2191 60.4394 15.2642 60.2304 15.6537C60.0669 16.1287 59.6491 16.7843 59.1949 17.0883C58.2412 17.6488 57.0331 17.3923 57.0785 15.9577L57.0694 15.9672ZM59.64 21.2685C59.2676 21.5726 59.2676 21.9621 58.5591 22.1331C57.8143 22.3041 57.351 21.2685 57.351 20.8315C57.351 20.2235 57.5963 19.967 57.9778 19.4444C58.223 19.0929 58.223 18.3139 58.768 18.1428C60.0124 17.6678 60.3485 19.0074 60.4303 19.834C60.2214 20.5275 59.9761 21.0025 59.64 21.2685V21.2685ZM60.6755 17.9718C60.3394 18.2284 59.8853 17.7533 60.2577 17.4113C60.4212 17.2783 60.5938 17.1928 60.7573 16.9363C60.9208 16.5467 61.0479 16.7178 61.0479 16.9838C61.0479 17.4208 60.9208 17.6773 60.6755 17.9813V17.9718Z" fill="#E87780" />
        <path d="M18.1649 21.0405C18.1649 22.4751 18.4556 23.4727 19.0369 24.0807C19.6182 24.6888 20.4902 24.9928 21.6893 24.9928C22.0253 24.9928 22.3978 24.9453 22.7702 24.9073C23.1426 24.8693 23.5604 24.7743 23.9783 24.6507L23.5604 22.3896C23.3515 22.4371 23.1426 22.4751 22.9791 22.5226C22.7702 22.5701 22.5613 22.5701 22.3978 22.5701C22.0253 22.5701 21.7347 22.4846 21.4803 22.2661C21.226 22.0476 21.1079 21.6581 21.1079 21.05V15.7012H23.6422V13.3165H21.1079V10.2764H18.1649V13.3165H16.4663V15.7012H18.1649V21.0405V21.0405ZM31.9898 24.7743H34.7693V17.5253C34.7693 16.8318 34.6876 16.1762 34.5241 15.6157C34.3606 15.0552 34.1062 14.5706 33.7338 14.1811C33.3614 13.7916 32.9072 13.4876 32.3259 13.269C31.7446 13.0505 31.036 12.965 30.164 12.965C28.7925 12.965 27.7115 13.2215 26.8849 13.7441C26.0584 14.2666 25.5588 15.1312 25.3862 16.3472L28.084 16.6038C28.2475 15.6917 28.9105 15.2167 30.0732 15.2167C30.5728 15.2167 31.027 15.3497 31.3994 15.6062C31.7718 15.8627 31.9353 16.3472 31.9353 17.0408V17.6013L30.5274 17.6868C29.8189 17.7343 29.1558 17.7723 28.4564 17.9053C27.7933 18.0383 27.1665 18.2093 26.6306 18.5134C26.0947 18.7699 25.6314 19.1689 25.3044 19.6819C24.9684 20.157 24.8049 20.8125 24.8049 21.5916C24.8049 22.1996 24.8866 22.7221 25.0955 23.1592C25.3044 23.5962 25.5497 23.9382 25.8858 24.2042C26.2219 24.4607 26.5943 24.6792 27.0484 24.8123C27.5026 24.9453 27.9659 25.0308 28.4564 25.0308C29.3284 25.0308 29.9915 24.8598 30.5274 24.5557C31.0633 24.2517 31.5629 23.8147 31.9807 23.2922V24.7648L31.9898 24.7743ZM31.9444 20.2615C31.9444 20.7365 31.8626 21.126 31.6991 21.43C31.5356 21.7341 31.3267 21.9906 31.0361 22.2091C30.5819 22.5606 29.9551 22.7696 29.2103 22.7696C28.7561 22.7696 28.42 22.6366 28.1748 22.4181C27.9295 22.1996 27.8024 21.8956 27.8024 21.5061C27.8024 21.2495 27.8478 21.031 27.9295 20.8125C28.0113 20.594 28.1385 20.423 28.3474 20.29C28.5563 20.119 28.847 20.0335 29.2194 19.9005C29.5918 19.8149 30.0914 19.7294 30.7181 19.6819L32.008 19.5964L31.9626 20.252L31.9444 20.2615ZM36.3862 24.7743H45.4332L45.7239 22.3896H40.1194L45.4332 15.3972V13.3165H36.4679V15.7012H41.6999L36.3862 22.6936V24.7743Z" fill="#E87780" />
    </g>
    <rect x="88.5" y="0.5" width="125.845" height="33.5671" rx="16.7835" stroke="#E87780" fill="#fefaf6" />
    <path d="M109.728 17.336L107.968 18.824L107.088 23H104.688L107.104 11.576H109.504L108.56 16.008L113.584 11.576H116.32L111.584 15.944L114.32 23H111.776L109.728 17.336ZM115.485 23L117.901 11.576H120.285L118.301 20.952H123.709L123.021 23H115.485ZM124.829 23L127.245 11.576H129.629L127.213 23H124.829ZM134.347 23L133.291 15.4L131.691 23H129.547L131.963 11.576H134.763L135.835 20.104L140.539 11.576H143.387L140.971 23H138.779L140.395 15.384L136.203 23H134.347ZM151.281 11.576L153.153 23H150.689L150.337 20.36H146.337L144.865 23H142.305L149.009 11.576H151.281ZM147.345 18.392H150.113L149.585 14.296L147.345 18.392ZM154.485 23L156.901 11.576H159.285L157.301 20.952H162.709L162.021 23H154.485ZM172.109 11.576L173.981 23H171.517L171.165 20.36H167.165L165.693 23H163.133L169.837 11.576H172.109ZM168.173 18.392H170.941L170.413 14.296L168.173 18.392ZM182.481 23L179.217 15.496L177.633 23H175.313L177.729 11.576H179.761L182.977 19.128L184.577 11.576H186.897L184.481 23H182.481ZM186.813 23L189.229 11.576H193.037C193.805 11.576 194.488 11.704 195.085 11.96C195.682 12.2053 196.189 12.5413 196.605 12.968C197.021 13.3947 197.336 13.896 197.549 14.472C197.773 15.0373 197.885 15.6453 197.885 16.296C197.885 17.3307 197.73 18.264 197.421 19.096C197.122 19.9173 196.674 20.6213 196.077 21.208C195.48 21.784 194.733 22.2267 193.837 22.536C192.952 22.8453 191.928 23 190.765 23H186.813ZM191.069 20.968C191.816 20.968 192.461 20.856 193.005 20.632C193.549 20.408 193.997 20.0933 194.349 19.688C194.701 19.272 194.962 18.7867 195.133 18.232C195.304 17.6667 195.389 17.048 195.389 16.376C195.389 15.992 195.336 15.6347 195.229 15.304C195.133 14.9627 194.978 14.6693 194.765 14.424C194.562 14.168 194.296 13.9707 193.965 13.832C193.645 13.6827 193.266 13.608 192.829 13.608H191.181L189.613 20.968H191.069Z" fill="url(#paint0_linear_837_27454)" />
    <defs>
        <linearGradient id="paint0_linear_837_27454" x1="194.978" y1="17.3899" x2="113.282" y2="20.5541" gradientUnits="userSpaceOnUse">
            <stop stop-color="#E8AD77" />
            <stop offset="1" stop-color="#E87780" />
        </linearGradient>
        <clipPath id="clip0_837_27454">
            <rect x="15" y="8" width="49" height="17" rx="8.5" fill="white" />
        </clipPath>
    </defs>
</svg>