<?xml version="1.0" encoding="utf-8"?>
<!-- Generator: Adobe Illustrator 27.0.0, SVG Export Plug-In . SVG Version: 6.00 Build 0)  -->
<svg version="1.1" id="Layer_1" xmlns="http://www.w3.org/2000/svg" xmlns:xlink="http://www.w3.org/1999/xlink" x="0px" y="0px"
	 viewBox="0 0 109.2 35" style="enable-background:new 0 0 109.2 35;" xml:space="preserve">
<style type="text/css">
	.st0{fill:#FEFAF6;stroke:#E87780;}
	.st1{fill:#E87980;}
	.st2{fill:url(#SVGID_1_);}
	.st3{fill:url(#SVGID_00000114753898433845896580000003448983151219278740_);}
	.st4{fill:url(#SVGID_00000063629374454435896810000012177483387936669365_);}
	.st5{fill:url(#SVGID_00000033363958043305409220000000691696084073099945_);}
	.st6{fill:url(#SVGID_00000080184348152550332820000000840239859848420249_);}
	.st7{fill:url(#SVGID_00000085935688426404344240000014921559446763480994_);}
	.st8{fill:url(#SVGID_00000060732458552526701180000008958785799207930813_);}
</style>
<path class="st0" d="M15,0.7h79.3c8,0,14.4,7.5,14.4,16.8l0,0c0,9.3-6.5,16.8-14.4,16.8H15c-8,0-14.4-7.5-14.4-16.8l0,0
	C0.5,8.2,7,0.7,15,0.7z"/>
<g>
	<g>
		<path class="st1" d="M21.4,23.3c-0.6,0-1.2-0.1-1.7-0.2s-0.9-0.4-1.3-0.7c-0.4-0.3-0.6-0.7-0.8-1.1c-0.2-0.5-0.3-1-0.3-1.6
			c0-0.4,0.1-0.9,0.2-1.4l1.4-6.8h2.4l-1.4,6.8c-0.1,0.4-0.1,0.8-0.1,1.1c0,0.6,0.2,1.1,0.5,1.4s0.8,0.4,1.4,0.4
			c0.4,0,0.7-0.1,1-0.2s0.5-0.3,0.7-0.5s0.4-0.5,0.5-0.9s0.3-0.8,0.4-1.3l1.4-6.8h2.4l-1.4,6.8c-0.2,0.9-0.4,1.6-0.7,2.2
			c-0.3,0.6-0.6,1.1-1,1.5s-0.9,0.7-1.5,0.9C22.9,23.2,22.2,23.3,21.4,23.3z"/>
		<path class="st1" d="M32.6,23l-1.1-7.6L30,23h-2.1l2.4-11.4H33l1.1,8.5l4.7-8.5h2.8L39.3,23h-2.2l1.6-7.6L34.5,23H32.6z"/>
		<path class="st1" d="M46,13.6l-0.6,2.7h4.8l-0.4,2H45L44,23h-2.4L44,11.6h7.5l-0.4,2H46z"/>
		<path class="st1" d="M53.3,23h-2.4l2.4-11.4h3.9c0.7,0,1.4,0.1,1.9,0.3s0.9,0.4,1.2,0.7s0.5,0.7,0.6,1c0.1,0.4,0.2,0.8,0.2,1.2
			c0,0.9-0.2,1.7-0.7,2.2s-1.1,1-1.9,1.2L60,23h-2.5l-1.1-4.3H56h-1.8L53.3,23z M56.5,16.7c0.3,0,0.6,0,0.9-0.1
			c0.3-0.1,0.5-0.2,0.7-0.3s0.4-0.3,0.5-0.6c0.1-0.2,0.2-0.5,0.2-0.9c0-0.2,0-0.3-0.1-0.5s-0.2-0.3-0.3-0.4
			c-0.1-0.1-0.3-0.2-0.6-0.3c-0.2-0.1-0.5-0.1-0.9-0.1h-1.6l-0.7,3.2H56.5z"/>
		<path class="st1" d="M69.7,11.6L71.5,23H69l-0.4-2.6h-4L63.3,23h-2.6l6.7-11.4H69.7z M65.7,18.4h2.8L68,14.3L65.7,18.4z"/>
		<path class="st1" d="M80.7,15.1c-0.1-0.7-0.3-1.1-0.6-1.4c-0.3-0.3-0.8-0.4-1.4-0.4s-1,0.1-1.5,0.4c-0.4,0.3-0.8,0.6-1.1,1
			c-0.3,0.4-0.5,0.9-0.7,1.5s-0.2,1.2-0.2,1.8c0,0.4,0,0.9,0.1,1.2c0.1,0.4,0.2,0.7,0.4,1c0.2,0.3,0.4,0.5,0.8,0.7
			c0.3,0.2,0.7,0.3,1.2,0.3s0.9,0,1.2-0.1c0.4-0.1,0.7-0.2,1-0.4l0.4-2h-2.2l0.4-2h4.4l-1.1,5c-0.5,0.4-1.1,0.8-1.9,1.1
			c-0.7,0.3-1.6,0.4-2.5,0.4c-0.8,0-1.6-0.1-2.2-0.4s-1.1-0.6-1.5-1.1s-0.7-1-0.8-1.6c-0.2-0.6-0.3-1.3-0.3-2c0-0.9,0.1-1.8,0.4-2.6
			s0.7-1.6,1.2-2.2s1.2-1.1,1.9-1.5c0.8-0.4,1.6-0.6,2.6-0.6c1.3,0,2.3,0.3,3,0.9c0.7,0.6,1.1,1.5,1.2,2.6L80.7,15.1z"/>
		<path class="st1" d="M87.9,13.6l-0.5,2.5h5.1l-0.4,2H87L86.3,21H92l-0.7,2h-7.9l2.4-11.4h7.8l-0.4,2H87.9z"/>
	</g>
	<g>
		<linearGradient id="SVGID_1_" gradientUnits="userSpaceOnUse" x1="17.3" y1="17.25" x2="93.6" y2="17.25">
			<stop  offset="0" style="stop-color:#E8AD77"/>
			<stop  offset="0.1868" style="stop-color:#E8A978"/>
			<stop  offset="0.3602" style="stop-color:#E89E79"/>
			<stop  offset="0.5278" style="stop-color:#E88B7D"/>
			<stop  offset="0.6592" style="stop-color:#E87780"/>
			<stop  offset="0.7981" style="stop-color:#E87A80"/>
			<stop  offset="1" style="stop-color:#E8A778"/>
		</linearGradient>
		<path class="st2" d="M21.4,23.3c-0.6,0-1.2-0.1-1.7-0.2s-0.9-0.4-1.3-0.7c-0.4-0.3-0.6-0.7-0.8-1.1c-0.2-0.5-0.3-1-0.3-1.6
			c0-0.4,0.1-0.9,0.2-1.4l1.4-6.8h2.4l-1.4,6.8c-0.1,0.4-0.1,0.8-0.1,1.1c0,0.6,0.2,1.1,0.5,1.4s0.8,0.4,1.4,0.4
			c0.4,0,0.7-0.1,1-0.2s0.5-0.3,0.7-0.5s0.4-0.5,0.5-0.9s0.3-0.8,0.4-1.3l1.4-6.8h2.4l-1.4,6.8c-0.2,0.9-0.4,1.6-0.7,2.2
			c-0.3,0.6-0.6,1.1-1,1.5s-0.9,0.7-1.5,0.9C22.9,23.2,22.2,23.3,21.4,23.3z"/>
		
			<linearGradient id="SVGID_00000049934729751565274820000011185060004348520859_" gradientUnits="userSpaceOnUse" x1="17.3" y1="17.25" x2="93.6" y2="17.25">
			<stop  offset="0" style="stop-color:#E8AD77"/>
			<stop  offset="0.1868" style="stop-color:#E8A978"/>
			<stop  offset="0.3602" style="stop-color:#E89E79"/>
			<stop  offset="0.5278" style="stop-color:#E88B7D"/>
			<stop  offset="0.6592" style="stop-color:#E87780"/>
			<stop  offset="0.7981" style="stop-color:#E87A80"/>
			<stop  offset="1" style="stop-color:#E8A778"/>
		</linearGradient>
		<path style="fill:url(#SVGID_00000049934729751565274820000011185060004348520859_);" d="M32.6,23l-1.1-7.6L30,23h-2.1l2.4-11.4
			H33l1.1,8.5l4.7-8.5h2.8L39.3,23h-2.2l1.6-7.6L34.5,23H32.6z"/>
		
			<linearGradient id="SVGID_00000042701614488308818440000010341644828217477035_" gradientUnits="userSpaceOnUse" x1="17.3" y1="17.25" x2="93.6" y2="17.25">
			<stop  offset="0" style="stop-color:#E8AD77"/>
			<stop  offset="0.1868" style="stop-color:#E8A978"/>
			<stop  offset="0.3602" style="stop-color:#E89E79"/>
			<stop  offset="0.5278" style="stop-color:#E88B7D"/>
			<stop  offset="0.6592" style="stop-color:#E87780"/>
			<stop  offset="0.7981" style="stop-color:#E87A80"/>
			<stop  offset="1" style="stop-color:#E8A778"/>
		</linearGradient>
		<path style="fill:url(#SVGID_00000042701614488308818440000010341644828217477035_);" d="M46,13.6l-0.6,2.7h4.8l-0.4,2H45L44,23
			h-2.4L44,11.6h7.5l-0.4,2H46z"/>
		
			<linearGradient id="SVGID_00000170981536859462930790000018357098884532643988_" gradientUnits="userSpaceOnUse" x1="17.3" y1="17.25" x2="93.6" y2="17.25">
			<stop  offset="0" style="stop-color:#E8AD77"/>
			<stop  offset="0.1868" style="stop-color:#E8A978"/>
			<stop  offset="0.3602" style="stop-color:#E89E79"/>
			<stop  offset="0.5278" style="stop-color:#E88B7D"/>
			<stop  offset="0.6592" style="stop-color:#E87780"/>
			<stop  offset="0.7981" style="stop-color:#E87A80"/>
			<stop  offset="1" style="stop-color:#E8A778"/>
		</linearGradient>
		<path style="fill:url(#SVGID_00000170981536859462930790000018357098884532643988_);" d="M53.3,23h-2.4l2.4-11.4h3.9
			c0.7,0,1.4,0.1,1.9,0.3s0.9,0.4,1.2,0.7s0.5,0.7,0.6,1c0.1,0.4,0.2,0.8,0.2,1.2c0,0.9-0.2,1.7-0.7,2.2s-1.1,1-1.9,1.2L60,23h-2.5
			l-1.1-4.3H56h-1.8L53.3,23z M56.5,16.7c0.3,0,0.6,0,0.9-0.1c0.3-0.1,0.5-0.2,0.7-0.3s0.4-0.3,0.5-0.6c0.1-0.2,0.2-0.5,0.2-0.9
			c0-0.2,0-0.3-0.1-0.5s-0.2-0.3-0.3-0.4c-0.1-0.1-0.3-0.2-0.6-0.3c-0.2-0.1-0.5-0.1-0.9-0.1h-1.6l-0.7,3.2H56.5z"/>
		
			<linearGradient id="SVGID_00000148639227014248614970000015230670765100722348_" gradientUnits="userSpaceOnUse" x1="17.3" y1="17.25" x2="93.6" y2="17.25">
			<stop  offset="0" style="stop-color:#E8AD77"/>
			<stop  offset="0.1868" style="stop-color:#E8A978"/>
			<stop  offset="0.3602" style="stop-color:#E89E79"/>
			<stop  offset="0.5278" style="stop-color:#E88B7D"/>
			<stop  offset="0.6592" style="stop-color:#E87780"/>
			<stop  offset="0.7981" style="stop-color:#E87A80"/>
			<stop  offset="1" style="stop-color:#E8A778"/>
		</linearGradient>
		<path style="fill:url(#SVGID_00000148639227014248614970000015230670765100722348_);" d="M69.7,11.6L71.5,23H69l-0.4-2.6h-4
			L63.3,23h-2.6l6.7-11.4H69.7z M65.7,18.4h2.8L68,14.3L65.7,18.4z"/>
		
			<linearGradient id="SVGID_00000183242692297127617850000004740744152458088623_" gradientUnits="userSpaceOnUse" x1="17.3" y1="17.25" x2="93.6" y2="17.25">
			<stop  offset="0" style="stop-color:#E8AD77"/>
			<stop  offset="0.1868" style="stop-color:#E8A978"/>
			<stop  offset="0.3602" style="stop-color:#E89E79"/>
			<stop  offset="0.5278" style="stop-color:#E88B7D"/>
			<stop  offset="0.6592" style="stop-color:#E87780"/>
			<stop  offset="0.7981" style="stop-color:#E87A80"/>
			<stop  offset="1" style="stop-color:#E8A778"/>
		</linearGradient>
		<path style="fill:url(#SVGID_00000183242692297127617850000004740744152458088623_);" d="M80.7,15.1c-0.1-0.7-0.3-1.1-0.6-1.4
			c-0.3-0.3-0.8-0.4-1.4-0.4s-1,0.1-1.5,0.4c-0.4,0.3-0.8,0.6-1.1,1c-0.3,0.4-0.5,0.9-0.7,1.5s-0.2,1.2-0.2,1.8c0,0.4,0,0.9,0.1,1.2
			c0.1,0.4,0.2,0.7,0.4,1c0.2,0.3,0.4,0.5,0.8,0.7c0.3,0.2,0.7,0.3,1.2,0.3s0.9,0,1.2-0.1c0.4-0.1,0.7-0.2,1-0.4l0.4-2h-2.2l0.4-2
			h4.4l-1.1,5c-0.5,0.4-1.1,0.8-1.9,1.1c-0.7,0.3-1.6,0.4-2.5,0.4c-0.8,0-1.6-0.1-2.2-0.4s-1.1-0.6-1.5-1.1s-0.7-1-0.8-1.6
			c-0.2-0.6-0.3-1.3-0.3-2c0-0.9,0.1-1.8,0.4-2.6s0.7-1.6,1.2-2.2s1.2-1.1,1.9-1.5c0.8-0.4,1.6-0.6,2.6-0.6c1.3,0,2.3,0.3,3,0.9
			c0.7,0.6,1.1,1.5,1.2,2.6L80.7,15.1z"/>
		
			<linearGradient id="SVGID_00000034077013527526380750000006141133874955440288_" gradientUnits="userSpaceOnUse" x1="17.3" y1="17.25" x2="93.6" y2="17.25">
			<stop  offset="0" style="stop-color:#E8AD77"/>
			<stop  offset="0.1868" style="stop-color:#E8A978"/>
			<stop  offset="0.3602" style="stop-color:#E89E79"/>
			<stop  offset="0.5278" style="stop-color:#E88B7D"/>
			<stop  offset="0.6592" style="stop-color:#E87780"/>
			<stop  offset="0.7981" style="stop-color:#E87A80"/>
			<stop  offset="1" style="stop-color:#E8A778"/>
		</linearGradient>
		<path style="fill:url(#SVGID_00000034077013527526380750000006141133874955440288_);" d="M87.9,13.6l-0.5,2.5h5.1l-0.4,2H87
			L86.3,21H92l-0.7,2h-7.9l2.4-11.4h7.8l-0.4,2H87.9z"/>
	</g>
</g>
</svg>
